<?xml version="1.0" standalone="no"?>
<!DOCTYPE svg PUBLIC "-//W3C//DTD SVG 20010904//EN"
 "http://www.w3.org/TR/2001/REC-SVG-20010904/DTD/svg10.dtd">
<svg version="1.0" xmlns="http://www.w3.org/2000/svg"
 width="512.000000pt" height="512.000000pt" viewBox="0 0 512.000000 512.000000"
 preserveAspectRatio="xMidYMid meet">
<metadata>
Created by potrace 1.11, written by Peter Selinger 2001-2013
</metadata>
<g transform="translate(0.000000,512.000000) scale(0.100000,-0.100000)"
fill="#000000" stroke="none">
<path d="M1463 4471 l-1103 -636 0 -1280 0 -1280 1102 -635 c606 -349 1104
-634 1107 -633 3 1 393 225 866 498 473 273 967 558 1097 633 l238 137 0 1280
0 1280 -1063 613 c-584 337 -1080 623 -1102 636 l-40 24 -1102 -637z m1345
-1833 l-3 -553 -24 -59 c-31 -74 -103 -149 -175 -182 -69 -31 -186 -45 -275
-33 -74 11 -170 53 -218 95 l-32 29 30 73 c16 41 36 90 44 109 l15 34 33 -25
c108 -82 217 -86 289 -10 53 57 53 53 56 582 l3 492 130 0 130 0 -3 -552z"/>
</g>
</svg>
