<?xml version="1.0" encoding="UTF-8"?>
<svg width="1440px" height="2847px" viewBox="0 0 1440 2847" version="1.1" xmlns="http://www.w3.org/2000/svg" xmlns:xlink="http://www.w3.org/1999/xlink">
    <!-- Generator: Sketch 53.2 (72643) - https://sketchapp.com -->
    <title>background-top</title>
    <desc>Created with Sketch.</desc>
    <defs>
        <radialGradient cx="46.9750653%" cy="55.2188783%" fx="46.9750653%" fy="55.2188783%" r="159.489901%" id="radialGradient-1">
            <stop stop-color="#004468" offset="0%"></stop>
            <stop stop-color="#002132" offset="100%"></stop>
        </radialGradient>
        <radialGradient cx="46.9750653%" cy="55.2188783%" fx="46.9750653%" fy="55.2188783%" r="159.489901%" id="radialGradient-2">
            <stop stop-color="#F77F00" offset="0%"></stop>
            <stop stop-color="#D62828" offset="100%"></stop>
        </radialGradient>
    </defs>
    <g id="Page-1" stroke="none" stroke-width="1" fill="none" fill-rule="evenodd">
        <g id="Home">
            <g id="background-top" transform="translate(-300.000000, -993.000000)">
                <g id="Group-4" opacity="0.4" transform="translate(0.000000, 1189.000000)" fill="url(#radialGradient-1)">
                    <polygon id="Polygon-Copy-19" points="471.5 199 582.784264 263.25 582.784264 391.75 471.5 456 360.215736 391.75 360.215736 263.25"></polygon>
                    <polygon id="Polygon-Copy-21" points="585.5 398 696.784264 462.25 696.784264 590.75 585.5 655 474.215736 590.75 474.215736 462.25"></polygon>
                    <polygon id="Polygon-Copy-25" points="357.5 0 468.784264 64.25 468.784264 192.75 357.5 257 246.215736 192.75 246.215736 64.25"></polygon>
                    <polygon id="Polygon-Copy-20" points="242.5 199 353.784264 263.25 353.784264 391.75 242.5 456 131.215736 391.75 131.215736 263.25"></polygon>
                    <polygon id="Polygon-Copy-22" points="356.5 398 467.784264 462.25 467.784264 590.75 356.5 655 245.215736 590.75 245.215736 462.25"></polygon>
                    <polygon id="Polygon-Copy-19" points="929.5 199 1040.78426 263.25 1040.78426 391.75 929.5 456 818.215736 391.75 818.215736 263.25"></polygon>
                    <polygon id="Polygon-Copy-23" points="1043.5 398 1154.78426 462.25 1154.78426 590.75 1043.5 655 932.215736 590.75 932.215736 462.25"></polygon>
                    <polygon id="Polygon-Copy-27" points="815.5 0 926.784264 64.25 926.784264 192.75 815.5 257 704.215736 192.75 704.215736 64.25"></polygon>
                    <polygon id="Polygon-Copy-27" points="1041.5 0 1152.78426 64.25 1152.78426 192.75 1041.5 257 930.215736 192.75 930.215736 64.25"></polygon>
                    <polygon id="Polygon-Copy-20" points="700.5 199 811.784264 263.25 811.784264 391.75 700.5 456 589.215736 391.75 589.215736 263.25"></polygon>
                    <polygon id="Polygon-Copy-28" points="586.5 0 697.784264 64.25 697.784264 192.75 586.5 257 475.215736 192.75 475.215736 64.25"></polygon>
                </g>
                <g id="Group-4-Copy" opacity="0.4" transform="translate(115.000000, 1788.000000)" fill="url(#radialGradient-1)">
                    <polygon id="Polygon-Copy-19" points="471.5 199 582.784264 263.25 582.784264 391.75 471.5 456 360.215736 391.75 360.215736 263.25"></polygon>
                    <polygon id="Polygon-Copy-21" points="585.5 398 696.784264 462.25 696.784264 590.75 585.5 655 474.215736 590.75 474.215736 462.25"></polygon>
                    <polygon id="Polygon-Copy-25" points="357.5 0 468.784264 64.25 468.784264 192.75 357.5 257 246.215736 192.75 246.215736 64.25"></polygon>
                    <polygon id="Polygon-Copy-20" points="242.5 199 353.784264 263.25 353.784264 391.75 242.5 456 131.215736 391.75 131.215736 263.25"></polygon>
                    <polygon id="Polygon-Copy-22" points="356.5 398 467.784264 462.25 467.784264 590.75 356.5 655 245.215736 590.75 245.215736 462.25"></polygon>
                    <polygon id="Polygon-Copy-23" points="1043.5 398 1154.78426 462.25 1154.78426 590.75 1043.5 655 932.215736 590.75 932.215736 462.25"></polygon>
                    <polygon id="Polygon-Copy-20" points="700.5 199 811.784264 263.25 811.784264 391.75 700.5 456 589.215736 391.75 589.215736 263.25"></polygon>
                    <polygon id="Polygon-Copy-24" points="814.5 398 925.784264 462.25 925.784264 590.75 814.5 655 703.215736 590.75 703.215736 462.25"></polygon>
                    <polygon id="Polygon-Copy-26" points="128.5 0 239.784264 64.25 239.784264 192.75 128.5 257 17.2157356 192.75 17.2157356 64.25"></polygon>
                    <polygon id="Polygon-Copy-28" points="586.5 0 697.784264 64.25 697.784264 192.75 586.5 257 475.215736 192.75 475.215736 64.25"></polygon>
                </g>
                <g id="Group-4-Copy-4" opacity="0.3" transform="translate(0.000000, 3185.000000)" fill="url(#radialGradient-1)">
                    <polygon id="Polygon-Copy-19" points="471.5 199 582.784264 263.25 582.784264 391.75 471.5 456 360.215736 391.75 360.215736 263.25"></polygon>
                    <polygon id="Polygon-Copy-21" points="585.5 398 696.784264 462.25 696.784264 590.75 585.5 655 474.215736 590.75 474.215736 462.25"></polygon>
                    <polygon id="Polygon-Copy-25" points="357.5 0 468.784264 64.25 468.784264 192.75 357.5 257 246.215736 192.75 246.215736 64.25"></polygon>
                    <polygon id="Polygon-Copy-20" points="242.5 199 353.784264 263.25 353.784264 391.75 242.5 456 131.215736 391.75 131.215736 263.25"></polygon>
                    <polygon id="Polygon-Copy-22" points="356.5 398 467.784264 462.25 467.784264 590.75 356.5 655 245.215736 590.75 245.215736 462.25"></polygon>
                    <polygon id="Polygon-Copy-19" points="929.5 199 1040.78426 263.25 1040.78426 391.75 929.5 456 818.215736 391.75 818.215736 263.25"></polygon>
                    <polygon id="Polygon-Copy-27" points="815.5 0 926.784264 64.25 926.784264 192.75 815.5 257 704.215736 192.75 704.215736 64.25"></polygon>
                    <polygon id="Polygon-Copy-20" points="700.5 199 811.784264 263.25 811.784264 391.75 700.5 456 589.215736 391.75 589.215736 263.25"></polygon>
                    <polygon id="Polygon-Copy-24" points="814.5 398 925.784264 462.25 925.784264 590.75 814.5 655 703.215736 590.75 703.215736 462.25"></polygon>
                    <polygon id="Polygon-Copy-28" points="586.5 0 697.784264 64.25 697.784264 192.75 586.5 257 475.215736 192.75 475.215736 64.25"></polygon>
                </g>
                <g id="Group" transform="translate(917.000000, 794.000000)" fill="url(#radialGradient-2)">
                    <polygon id="Polygon" points="241.5 199 352.784264 263.25 352.784264 391.75 241.5 456 130.215736 391.75 130.215736 263.25"></polygon>
                    <polygon id="Polygon-Copy-19" points="128.5 0 239.784264 64.25 239.784264 192.75 128.5 257 17.2157356 192.75 17.2157356 64.25"></polygon>
                    <polygon id="Polygon-Copy" points="355.5 396 466.784264 460.25 466.784264 588.75 355.5 653 244.215736 588.75 244.215736 460.25"></polygon>
                    <polygon id="Polygon-Copy-9" points="469.5 594 580.784264 658.25 580.784264 786.75 469.5 851 358.215736 786.75 358.215736 658.25"></polygon>
                    <polygon id="Polygon-Copy-18" points="240.5 593 351.784264 657.25 351.784264 785.75 240.5 850 129.215736 785.75 129.215736 657.25"></polygon>
                    <polygon id="Polygon-Copy-11" points="354.5 791 465.784264 855.25 465.784264 983.75 354.5 1048 243.215736 983.75 243.215736 855.25"></polygon>
                    <polygon id="Polygon-Copy-17" points="467.5 991 578.784264 1055.25 578.784264 1183.75 467.5 1248 356.215736 1183.75 356.215736 1055.25"></polygon>
                    <polygon id="Polygon-Copy-12" points="583.5 793 694.784264 857.25 694.784264 985.75 583.5 1050 472.215736 985.75 472.215736 857.25"></polygon>
                    <polygon id="Polygon-Copy-13" points="812.5 793 923.784264 857.25 923.784264 985.75 812.5 1050 701.215736 985.75 701.215736 857.25"></polygon>
                    <polygon id="Polygon-Copy-15" points="697.5 991 808.784264 1055.25 808.784264 1183.75 697.5 1248 586.215736 1183.75 586.215736 1055.25"></polygon>
                    <polygon id="Polygon-Copy-16" points="926.5 991 1037.78426 1055.25 1037.78426 1183.75 926.5 1248 815.215736 1183.75 815.215736 1055.25"></polygon>
                    <polygon id="Polygon-Copy-14" points="924.5 595 1035.78426 659.25 1035.78426 787.75 924.5 852 813.215736 787.75 813.215736 659.25"></polygon>
                    <polygon id="Polygon-Copy-10" points="696.5 595 807.784264 659.25 807.784264 787.75 696.5 852 585.215736 787.75 585.215736 659.25"></polygon>
                    <polygon id="Polygon-Copy" points="583.5 396 694.784264 460.25 694.784264 588.75 583.5 653 472.215736 588.75 472.215736 460.25"></polygon>
                    <polygon id="Polygon-Copy-2" points="470.5 198 581.784264 262.25 581.784264 390.75 470.5 455 359.215736 390.75 359.215736 262.25"></polygon>
                    <polygon id="Polygon-Copy-4" points="698.5 199 809.784264 263.25 809.784264 391.75 698.5 456 587.215736 391.75 587.215736 263.25"></polygon>
                    <polygon id="Polygon-Copy-6" points="811.5 398 922.784264 462.25 922.784264 590.75 811.5 655 700.215736 590.75 700.215736 462.25"></polygon>
                    <polygon id="Polygon-Copy-7" points="926.5 200 1037.78426 264.25 1037.78426 392.75 926.5 457 815.215736 392.75 815.215736 264.25"></polygon>
                    <polygon id="Polygon-Copy-8" points="812.5 2 923.784264 66.25 923.784264 194.75 812.5 259 701.215736 194.75 701.215736 66.25"></polygon>
                    <polygon id="Polygon-Copy-5" points="585.5 1 696.784264 65.25 696.784264 193.75 585.5 258 474.215736 193.75 474.215736 65.25"></polygon>
                    <polygon id="Polygon-Copy-3" points="355.5 1 466.784264 65.25 466.784264 193.75 355.5 258 244.215736 193.75 244.215736 65.25"></polygon>
                </g>
                <g id="Group-Copy" transform="translate(4.000000, 0.000000)" fill="url(#radialGradient-2)">
                    <polygon id="Polygon-Copy-11" points="354.5 791 465.784264 855.25 465.784264 983.75 354.5 1048 243.215736 983.75 243.215736 855.25"></polygon>
                    <polygon id="Polygon-Copy-17" points="467.5 991 578.784264 1055.25 578.784264 1183.75 467.5 1248 356.215736 1183.75 356.215736 1055.25"></polygon>
                    <polygon id="Polygon-Copy-12" points="583.5 793 694.784264 857.25 694.784264 985.75 583.5 1050 472.215736 985.75 472.215736 857.25"></polygon>
                    <polygon id="Polygon-Copy-13" points="812.5 793 923.784264 857.25 923.784264 985.75 812.5 1050 701.215736 985.75 701.215736 857.25"></polygon>
                    <polygon id="Polygon-Copy-15" points="697.5 991 808.784264 1055.25 808.784264 1183.75 697.5 1248 586.215736 1183.75 586.215736 1055.25"></polygon>
                    <polygon id="Polygon-Copy-16" points="926.5 991 1037.78426 1055.25 1037.78426 1183.75 926.5 1248 815.215736 1183.75 815.215736 1055.25"></polygon>
                </g>
            </g>
        </g>
    </g>
</svg>