<?xml version="1.0" encoding="UTF-8"?>
<svg width="248px" height="101px" viewBox="0 0 248 101" version="1.1" xmlns="http://www.w3.org/2000/svg" xmlns:xlink="http://www.w3.org/1999/xlink">
    <!-- Generator: Sketch 53.2 (72643) - https://sketchapp.com -->
    <title>Client-One</title>
    <desc>Created with Sketch.</desc>
    <g id="Page-1" stroke="none" stroke-width="1" fill="none" fill-rule="evenodd">
        <g id="Home" transform="translate(-120.000000, -730.000000)" fill="#FFFFFF" fill-rule="nonzero">
            <g id="Client-Logos" transform="translate(120.000000, 721.000000)">
                <g id="Client-One" transform="translate(0.000000, 9.000000)">
                    <g id="Paramount-Pictures-Logo" transform="translate(112.000000, 0.000000)">
                        <polygon id="polygon5" points="42.038835 7.8191617 38.9368932 9.42514972 36.5230583 7 37.0800971 10.3628742 34 11.9796407 37.4842233 12.5401197 38.0303398 16 39.5703884 12.8958084 43 13.4347305 40.4987864 10.9988024"></polygon>
                        <polygon id="polygon7" points="49.9207547 4.79127358 48.1597484 2 48.0792453 5.36438679 45 6.33018867 48.0490566 7.52948114 47.9383648 11 49.8805031 8.28301886 52.8893082 9.45047169 51.0578617 6.58490566 53 3.85731132"></polygon>
                        <polygon id="polygon9" points="31.0143885 14 28.3165468 16.2058824 25.5107914 14.2426471 26.6870504 17.5294117 24 19.7242647 27.4964029 19.625 28.6834532 23 29.5791367 19.5698529 33 19.4485294 30.118705 17.4632353"></polygon>
                        <polygon id="polygon11" points="62.5334142 3.18478261 61.2211422 0 60.4556502 3.36956522 57 3.70652174 60.0072906 5.54347826 59.2199268 9 61.8226002 6.6630435 64.797084 8.47826088 63.4082622 5.23913044 66 2.85869565"></polygon>
                        <polygon id="polygon13" points="13.5299878 35.4689737 13.0893513 32 11.3488372 35.0071599 8 34.2983293 10.3133415 36.8114559 8.57282744 39.8186158 11.8445532 38.4009547 14.1909425 41 13.8053856 37.5739857 17 36.1670644"></polygon>
                        <polygon id="polygon15" points="8.53102626 47.0646766 7.4570406 44 6.36157518 47.0447761 3 46.9751244 5.70644394 48.8557214 4.61097852 51.8905473 7.4570406 50.0497513 10.2279236 52 9.1861575 48.9452737 12 47.1044776"></polygon>
                        <polygon id="polygon17" points="21.9521472 22 19.6552147 24.6218787 16.4858896 23.2841855 18.2858896 26.1843044 16 28.78478 19.4785276 28.0249703 21.3116564 31 21.5656442 27.5862069 25 26.804994 21.7202454 25.4673008"></polygon>
                        <polygon id="polygon19" points="128 34.3520286 124.637362 35.0071599 122.923077 32 122.461539 35.4689737 119 36.1455847 122.175824 37.5739857 121.736264 41 124.131868 38.4331742 127.362637 39.8400955 125.648352 36.8114559"></polygon>
                        <polygon id="polygon21" points="129.26555 47.8518057 132 46.0186799 128.630383 46.0485679 127.553828 43 126.466507 46.0884185 123 46.0983811 125.799043 47.9514321 124.733254 51 127.521531 49.0572852 130.363636 50.9202989"></polygon>
                        <polygon id="polygon23" points="117.705665 26.1907583 119.55665 23.3329384 116.342365 24.6232227 114.070197 22 114.302956 25.4869668 111 26.7985782 114.413793 27.5876777 114.657635 31 116.530788 28.035545 120 28.8139811"></polygon>
                        <polygon id="polygon25" points="6.54854368 58.0686748 4.83373787 55 4.375 58.4481928 1 59.0337352 4.09101942 60.540964 3.62135922 64 6.08980583 61.4518072 9.2463592 63.0024094 7.58616502 59.9445784 10 57.4289158"></polygon>
                        <polygon id="polygon27" points="133.007389 67 130.679803 69.6913876 127.376847 68.3672248 129.272168 71.2846888 127 73.9330144 130.469212 73.061005 132.397783 76 132.641625 72.522727 136 71.7153112 132.763547 70.4557414"></polygon>
                        <polygon id="polygon29" points="74.5376214 3.37363966 73.8276702 0 72.4514562 3.1668682 69 2.82950423 71.6104368 5.21281741 70.1905338 8.44498188 73.1723298 6.67110036 75.7609224 9 74.9963592 5.55018138 78 3.72188633"></polygon>
                        <polygon id="polygon31" points="86.8989897 5.36438679 86.8585857 2 85.0505051 4.77004717 82 3.79363208 83.9494949 6.57429247 82.0707069 9.4292453 85.0909091 8.26179247 87.0202023 11 86.9393937 7.54009434 90 6.36202831"></polygon>
                        <polygon id="polygon33" points="99.5236362 7 97.08 9.4035928 94.0036362 7.79760478 95.52 10.966467 93 13.4131737 96.4254546 12.8850299 97.9418184 16 98.5418184 12.5401197 102 11.9904192 98.912727 10.3628742"></polygon>
                        <polygon id="polygon35" points="110.543165 14.297066 107.705036 16.2224939 105.028777 14 105.924461 17.487775 103 19.4352078 106.431654 19.589242 107.305755 23 108.546762 19.6662592 112 19.7652812 109.31295 17.5427873"></polygon>
                        <polygon id="polygon37" points="129.883636 61.4813026 132.327273 64 131.890909 60.5367916 135 59.0820268 131.629091 58.4632084 131.181818 55 129.458182 58.094089 126 57.4209892 128.389091 59.950543 126.730909 62.9794936"></polygon>
                        <path d="M73.3437609,49.4160977 C73.5646481,49.6560678 75.4158998,51.294125 75.7209362,51.6175631 C76.0575269,51.9827353 78.0560381,53.5686246 79.1394406,53.5686246 C80.2123262,53.5686246 81.001211,54.7476091 81.5797278,55.331885 C82.8524639,56.5108679 88.1642935,62.0823495 89.8998423,63.2717681 C90.667691,63.8038748 91.4039848,63.7099746 91.9825016,64.1481806 C92.5925733,64.5863872 92.8660531,64.8889575 93.2131636,64.9932934 C93.5602729,65.0976276 94.6752308,64.7846233 96.0005601,66.4539806 C96.6106318,66.8713203 96.7789263,66.9547886 96.7789263,66.9547886 C96.7789263,66.9547886 98.5670673,68.5824115 99.2086943,69.7509626 C99.7872112,70.7525769 113.198269,88.6042738 118.005213,95 C122.454528,86.8931809 125,77.5865114 125,67.6851326 C125,36.3846734 99.6925455,11 68.4842243,11 C37.2759035,11.0104352 11.9894849,36.3951059 12.0000033,67.705999 C12.0000033,76.2510247 14.2404389,85.8393997 18.269015,93.7166813 C25.5478021,86.9453488 44.6283184,65.3167311 46.8161617,62.8022605 C50.1400005,58.9731712 51.5810313,61.414607 53.3691726,59.275742 C54.3368724,58.1071915 54.8943513,57.6585526 55.3045721,57.4185821 C55.9987918,57.0116759 56.7876783,56.0309279 57.1663426,55.7596575 C57.555527,55.4570857 58.4495977,54.2885364 59.1332988,53.6938266 C59.8064807,53.1095519 61.1738823,52.2227054 62.541284,51.043721 C63.9192043,49.854304 66.2543073,47.1207303 68.7892596,47.1207303 C71.8080619,47.1102952 73.0913172,49.1656937 73.3437609,49.4160977 Z M29.8077842,50.5742145 C25.1270625,50.5429143 24.4643979,47.3189665 24.4854356,45.9626136 C24.4959558,45.7122096 24.5275096,45.5348411 24.5485458,45.4305054 C24.7589157,44.7523289 25.1165436,44.1576204 25.8107633,44.1576204 C26.5155018,44.1576204 27.0940171,44.7314626 27.0940171,45.4305054 C27.0940171,45.8687117 26.8731298,46.2547515 26.5155018,46.473854 C25.9790592,46.8181599 25.9054301,47.2146322 25.9054301,47.4024345 C25.9054301,47.4546023 25.9159503,47.4963363 25.9159503,47.4963363 C25.9159503,49.7395358 28.6402362,50.0421063 29.6289736,50.0734078 L29.8077869,50.0734078 C30.8385983,50.0734078 31.7326689,49.8647378 32.5110352,49.478698 C37.9701259,46.8077261 38.0332362,35.8212651 44.4074338,31.7730711 C44.6178023,31.6374366 44.7966169,31.6896031 44.8492098,31.7835063 C44.8807649,31.846108 44.870246,31.9191422 44.8071358,32.0130426 C42.5246258,34.8613844 41.6621102,39.4729867 41.6621102,39.4729867 C43.6395851,39.4729867 45.2278741,38.4192042 46.2586854,37.0732837 C47.0580893,36.0299351 47.4893464,34.8196504 47.4893464,33.7971695 C47.4893464,29.7907109 43.9025463,28.1213522 40.8627063,28.1213522 C32.3427407,28.1213522 28.6612739,34.0893074 28.6612739,37.3341215 C28.6612739,40.5893695 30.7018576,41.7683526 32.1954812,41.7683526 C33.9836225,41.7683526 34.6988785,40.7041377 34.688361,39.9842272 C34.688361,39.8798915 34.6778408,39.7755572 34.6357682,39.702523 C34.530584,39.4416852 34.48851,39.1808487 34.4990275,38.9513124 C34.5200652,38.2522682 34.9513223,37.761894 35.4351721,37.761894 C35.6876159,37.761894 36.5290937,37.7305939 36.5290937,39.2225827 C36.5290937,40.6624037 34.48851,42.1126585 32.2585928,42.1126585 C30.0181567,42.1126585 26.7784658,40.89194 26.7784658,37.3341215 C26.7784658,30.0932814 35.6455419,27.3701416 40.8732251,27.6205456 C45.9220937,27.8500819 49.1617847,30.0619811 49.8875595,32.6494865 C50.0032625,33.0250911 50.0453365,33.4111309 50.0453365,33.7971695 C50.0348163,39.243449 41.4201853,40.1824633 41.4201853,40.1824633 C39.9160442,47.7363079 33.9310297,50.6159498 29.8077869,50.5742158 L29.8077842,50.5742145 Z M70.9981432,44.1158878 C71.8922129,42.0813583 72.7652469,40.1094292 73.648799,38.095766 C73.6593188,38.054032 73.6593188,38.0331644 73.6593188,38.012298 C73.7119104,37.8349282 73.6593188,37.6471259 73.5751713,37.5740917 C73.3963564,37.4906237 73.0913212,37.6575597 72.8704329,37.7723279 C72.3971014,38.1061999 71.9763621,38.5444062 71.6502889,39.1078145 C71.3031802,39.660789 70.9981449,40.2346312 70.7562182,40.8293397 L69.262595,44.1263216 L67.2851217,44.1263216 C67.4954913,43.6881153 67.8531193,42.8221351 68.0845268,42.3734949 C68.0845268,42.3421948 68.0319341,42.3213284 68.0319341,42.3421948 C67.9162306,42.4465304 67.7584537,42.5717311 67.6217129,42.6865006 C66.6224584,43.5107454 65.4549061,44.3767242 64.5818732,44.1993557 C64.2452814,44.1680556 63.9612823,43.8759176 63.8876534,43.5733457 C63.8455794,43.3855434 63.8350619,43.208175 63.8455794,43.0308051 C63.8560998,42.8534353 63.8876534,42.6865006 63.9297275,42.5299971 C63.9297275,42.4882631 63.8876534,42.4882631 63.8455794,42.5299971 C62.9830652,43.3438094 62.2152165,44.0219859 61.1318123,44.2828238 C60.5112231,44.4184582 59.9432255,44.0219859 59.7433745,43.5733457 C59.596115,43.3125093 59.5119669,42.9786373 59.5224856,42.582165 C59.5224856,42.1961264 59.6066337,41.7579202 59.8380395,41.2884123 C60.1010024,40.68327 60.3955185,40.0572613 60.7636657,39.535587 C60.5427785,39.6399213 60.1010024,39.6920892 59.795966,39.6399213 C59.5435235,39.6086212 59.2700419,39.410385 59.1438203,39.2330165 C58.9755258,39.0452128 58.9439693,38.7113422 58.9439693,38.4818045 C58.9439693,38.4818045 58.9544891,38.4713694 58.9439693,38.4713694 C58.9229326,38.4609341 58.838785,38.4609341 58.796711,38.4818045 C58.1866393,38.9721787 57.9341956,39.535587 57.639679,40.1720295 L55.914648,44.0428536 L53.9266557,44.0428536 L54.6629493,42.4047965 C54.683987,42.3839288 54.683987,42.3526287 54.683987,42.3421948 C54.6734668,42.3317596 54.6524305,42.3317596 54.641913,42.3526299 C53.6005828,43.3020768 52.3383667,44.3558592 51.328593,44.1576231 C51.0445941,44.1054552 50.7290387,43.8237511 50.6764472,43.5316131 C50.5922993,43.1768748 50.6238545,42.8012701 50.6764472,42.4882645 L50.5922993,42.4882645 C50.2872628,42.7908363 49.9927464,43.0725404 49.6666736,43.3229444 C49.2143788,43.6881166 48.7094913,43.9698208 48.130976,44.1367554 C48.0573456,44.1576231 47.9942353,44.1784894 47.9206062,44.1889233 C47.910086,44.1993584 47.8785323,44.1993584 47.8574946,44.1993584 C47.2894968,44.3558606 46.763573,43.9906885 46.5321669,43.4898818 C46.5216467,43.4481478 46.5111305,43.4064138 46.4900929,43.3542459 C46.321797,42.8534379 46.3428347,42.3213312 46.4375001,41.8205232 C46.4900929,41.6327209 46.5426857,41.4344847 46.6163148,41.246681 C47.3841635,39.2225854 48.7936392,37.7723305 50.7185212,36.6872479 C51.9491822,35.9777713 53.8425078,35.7586674 55.1783544,36.4577116 L55.1783544,36.4681468 C54.2632474,38.5444116 53.5900654,40.0468329 52.7275498,42.0083282 C52.6959947,42.10223 52.6539207,42.2378659 52.6539207,42.3630679 C52.6434005,42.477836 52.6644409,42.5926042 52.7696238,42.644772 C52.9168819,42.7282387 53.0956967,42.7282387 53.2113997,42.644772 C54.2842836,42.1335302 55.2519848,40.8502114 55.9987959,39.3999565 L57.3346424,36.4368466 L59.2174503,36.4368466 L58.7125629,37.5427969 C58.6915267,37.584531 58.6915267,37.6158311 58.6915267,37.6262649 C58.6915267,37.6367001 58.6915267,37.6367001 58.7125629,37.6262649 C59.2910798,37.1671909 59.9327062,36.4994483 60.6795176,36.0925421 C60.9950732,35.93604 61.6787737,35.93604 61.6051449,36.4368466 C61.5630708,36.8646205 61.226479,37.208925 61.0476642,37.6262649 C60.9424805,37.8871014 60.826777,38.2105396 60.8688511,38.3983419 C60.9529991,38.5965781 61.1738863,38.7009137 61.4578854,38.4713774 C61.7524032,38.3044414 61.9943277,38.1375054 62.2467719,37.9184016 C62.7201028,37.459329 63.3196558,37.0211226 63.9928388,36.6872506 C65.3286857,36.0508081 67.1588995,35.643902 68.4842288,36.4994483 C67.5586015,38.5965781 66.8643829,40.1616011 65.9808302,42.1335302 C65.9387573,42.2169982 65.9177195,42.2900324 65.8966833,42.3317663 C65.8651268,42.51957 65.9597935,42.5926042 66.0334229,42.644772 C66.1596445,42.7282387 66.3805334,42.7491063 66.6750494,42.603038 C67.4218619,42.2900324 68.7156347,40.8189112 69.2205209,39.6920946 C69.7148897,38.6591798 70.1671844,37.6158311 70.6825893,36.4368466 L72.6285078,36.4368466 L72.0815475,37.584531 C72.0815475,37.584531 72.134139,37.6158311 72.1551769,37.6158311 C72.7021367,37.1254569 74.027466,36.0403743 75.0372397,36.2594781 C75.5842,36.3846801 75.8471623,37.0419889 75.8050883,37.5219293 L75.8050883,37.5323645 C76.1101235,37.3132606 76.4361967,37.0837243 76.7727879,36.8541879 C76.7833083,36.8333203 76.8043433,36.8333203 76.814862,36.8228878 C76.8358981,36.8124526 76.8779722,36.7915863 76.9095276,36.77072 C76.9726389,36.7394198 77.0252316,36.7081183 77.0988611,36.6663843 C77.1093814,36.6663843 77.1093814,36.6663843 77.1198972,36.6559491 C77.1935261,36.6037813 77.2987121,36.5516135 77.3828602,36.5098794 C77.4038963,36.4994443 77.4354511,36.4994443 77.4670077,36.4785793 C77.6458214,36.4159789 77.8351549,36.3429448 78.0350059,36.2907769 C78.1507088,36.2594768 78.2453738,36.2594768 78.3190044,36.2386091 C79.4339623,36.1029746 79.8652197,36.9585196 79.4970743,37.7723319 C79.0973705,38.7009124 78.3926338,40.3285357 77.8351549,41.601422 C77.65634,42.0083269 77.4880438,42.3630665 77.3513048,42.665637 C77.3407844,42.6865047 77.3407844,42.707371 77.3407844,42.707371 C77.277673,42.8534393 77.277673,43.0725432 77.3513048,43.1351435 C77.3723409,43.166445 77.4249336,43.1873113 77.4670077,43.1873113 C77.614266,43.1977465 77.7825616,43.1142772 77.8667097,43.0621093 C78.5293729,42.498701 78.8975195,42.1335289 79.4234437,41.3823182 C79.5181104,40.5372057 79.8652197,39.7233934 80.3595885,38.9826166 C80.6120322,38.5861443 80.9170675,38.2314059 81.2536587,37.8871001 C82.2844702,36.7289833 83.9148331,35.831703 85.492605,36.3638111 C86.0500851,36.5411809 86.4287492,37.1045893 86.5549713,37.6575638 C86.6391189,37.9601343 86.7127483,38.0957701 86.7127483,38.429642 C87.122969,38.7426464 87.5857823,38.6487445 88.0170397,38.3774742 C88.0275601,38.3774742 88.0380759,38.3566066 88.0485946,38.3566066 C88.0906686,38.3357403 88.1327426,38.3044401 88.1853353,38.2835724 C88.1853353,38.2731372 88.1853353,38.2731372 88.1958557,38.2627061 C88.2379297,38.2209721 88.2800021,38.2001044 88.3220761,38.1583704 C88.343114,38.1479352 88.3536327,38.1270702 88.3746688,38.1166364 C88.6481493,37.8766662 88.8795568,37.5845296 89.0268145,37.3341256 C89.0478524,37.2819578 89.0688886,37.2193574 89.100444,37.1567558 C89.1951107,36.9376533 89.2897775,36.7185494 89.3528877,36.5411809 C89.363408,36.5203133 89.3739239,36.4785793 89.3739239,36.457713 C89.8472564,36.4890131 90.7834007,36.457713 91.3198423,36.457713 L88.9111116,42.0187607 C88.742816,42.3526327 88.7112606,42.540435 88.7112606,42.790839 C88.7112606,42.9682088 88.900593,42.999509 89.1109626,42.9890752 C89.1319988,42.9786399 89.142518,42.9786399 89.1635553,42.9786399 C89.3844425,42.936906 89.6789603,42.7595375 89.9629594,42.4986996 C90.2995512,42.1856953 90.6571791,41.7579229 90.972733,41.288415 C91.1620654,41.0067109 91.330361,40.7145742 91.4776193,40.43287 C91.730063,39.8590279 91.9930254,39.3164859 92.2559866,38.7635114 C92.6030976,38.0436009 92.9502063,37.3341243 93.2867981,36.5203119 L95.2432341,36.5203119 C94.4753855,38.3879067 93.5813159,40.3702683 92.9396877,41.8205232 C92.8870961,41.9352913 92.8239848,42.0709272 92.7608746,42.2169955 C92.7503542,42.2482956 92.7398367,42.2587295 92.7398367,42.2795971 C92.7293163,42.3108973 92.7293163,42.3421975 92.7188005,42.3630652 C92.7082802,42.4256655 92.6977626,42.4778333 92.6872451,42.5404337 C92.6767253,42.6239016 92.6977655,42.7282359 92.7188005,42.8325717 C92.7713932,42.9577737 92.9396877,42.9786399 93.0764285,42.9473398 C93.1290212,42.9369046 93.1710952,42.9264735 93.2026501,42.9056058 C94.065166,42.4256655 95.5167157,40.7771745 96.0321206,39.7755598 C96.3371559,39.0765157 96.6001183,38.492241 96.8630795,37.9079664 C97.0629305,37.4593263 97.2733002,37.0106861 97.5047077,36.5203119 L99.5347726,36.5203119 L99.050923,37.6888626 C99.7872163,37.0837203 100.607658,36.4472777 101.575358,36.3012095 C102.017134,36.2177414 102.574613,36.2594754 102.827057,36.7081143 C103.047945,37.1045879 103.005871,37.5010602 102.879649,37.9079664 C102.827057,38.0227345 102.763946,38.1583691 102.721872,38.2731372 C102.648242,38.4192069 102.574613,38.5861429 102.511503,38.7322112 C102.006615,39.8798942 101.459655,41.0693125 100.965286,42.1543951 C100.860102,42.4569657 100.818028,42.7282359 101.038915,42.8638718 C101.080989,42.895172 101.123063,42.9056058 101.196692,42.8847395 C101.680542,42.811704 102.848094,41.9770253 103.458164,40.6102385 C103.857868,39.7442597 104.162903,39.0973834 104.478457,38.3983392 C104.667791,38.0018669 104.857123,37.5740944 105.056974,37.0732864 L104.015645,37.0732864 L104.32068,36.4681441 L105.362009,36.4681441 L106.855634,33.2337638 L108.843625,33.2337638 L107.413113,36.4681441 L108.927773,36.4681441 L108.643774,37.0732864 L107.118595,37.0732864 C106.771486,37.8349309 106.445413,38.5339751 106.129857,39.2225854 C105.667045,40.1928999 105.235788,41.1319129 104.80453,42.1439613 C104.783494,42.1752615 104.762456,42.2274293 104.751937,42.2587295 C104.46794,42.8638718 104.226013,43.7402845 104.373273,44.3036928 C104.478457,44.6375648 104.899197,44.710599 105.267343,44.585397 C105.646008,44.4497624 105.982599,44.2515263 106.298154,44.0115562 C106.929263,43.5316144 107.42363,42.8638718 107.865407,42.164829 C107.875928,42.1439613 107.886444,42.1335275 107.907481,42.1335275 C108.044221,42.081361 108.496516,42.1439627 108.46496,42.2169955 C108.075776,42.9890738 107.455187,43.7820184 106.729412,44.3558606 C105.993118,44.9297028 105.172676,45.3261751 104.352235,45.2948749 C103.868385,45.2948749 103.331944,45.0131708 103.047945,44.585397 C102.911204,44.3767269 102.827057,44.1889246 102.753427,43.9280881 C102.637724,43.5107482 102.66928,43.020374 102.753427,42.5717338 C102.374762,42.8743056 101.985578,43.18731 101.596394,43.4690141 C101.091508,43.8550526 100.534029,44.1680583 99.9029192,44.2932603 C99.4085521,44.3767269 98.7879618,44.1889246 98.6722583,43.646384 C98.6196656,43.3438121 98.6196656,43.020374 98.6932945,42.7282359 C98.7248499,42.6134678 98.7458878,42.5299998 98.7774426,42.4360993 C98.8931455,42.1752615 99.0193676,41.914425 99.1350706,41.664021 C99.4926985,40.9023765 99.8292903,40.140732 100.165882,39.3582199 C100.376252,38.8887134 100.576103,38.4192069 100.786471,37.9183989 C100.796992,37.9079637 100.796992,37.8766649 100.796992,37.8349309 C100.796992,37.7201627 100.7444,37.5845283 100.702326,37.5532268 C100.597141,37.4384586 100.260549,37.4384586 99.9660322,37.6679962 C99.5558116,37.9810006 99.1981836,38.3148712 98.8826297,38.6904772 C98.1778913,39.5355897 97.7045598,40.4641702 97.2943392,41.4240508 C96.8735999,42.3526313 96.4318238,43.2812118 95.9795291,44.1889246 L94.0125744,44.1889246 C94.1913876,43.7194181 94.4648691,43.1247096 94.696275,42.5821677 C94.738349,42.4778333 94.7909423,42.3734976 94.8330158,42.2691633 C94.8330158,42.2378632 94.8014592,42.2378632 94.8014592,42.2691633 C94.538498,42.5299998 94.2650181,42.8012715 93.981019,43.0412417 C93.8022048,43.1977438 93.6128724,43.3542459 93.4340576,43.5003143 C92.9291713,43.8550526 92.4137653,44.1784908 91.908879,44.2932603 C91.4986583,44.4080284 91.0779184,44.2619588 90.8675505,43.8759203 C90.6466616,43.5107482 90.5625135,42.9473398 90.7834024,42.4569657 C90.7834024,42.4360993 90.7518459,42.4360993 90.7202905,42.4569657 C90.0891826,43.0934081 89.5001471,43.6568164 88.7428172,44.0219886 C88.5955589,44.1054566 88.4377819,44.1784908 88.2800038,44.2202248 C88.2168936,44.2410925 88.1432641,44.2619588 88.0696353,44.2723926 C87.1650459,44.4393286 86.4182334,43.8654865 86.6811958,42.7073697 C86.7232698,42.5299998 86.7653438,42.3317637 86.8600106,42.1335275 C87.0493424,41.6848873 87.6068213,40.4433025 88.2274122,38.9617475 C87.7225248,39.1808514 87.0914164,39.1808514 86.7653438,39.0660832 C86.744306,39.0660832 86.7337885,39.0660832 86.7232698,39.0765184 C86.7127494,39.0869536 86.7127494,39.0869536 86.7127494,39.1078199 C86.4287509,40.4015712 85.8397166,41.6431574 84.9877198,42.5926042 C84.4723149,43.1768788 83.8412054,43.6463867 83.1469856,43.9906912 C82.22136,44.4393313 81.1800309,44.5436657 80.2438867,43.9280908 C79.8021107,43.6150852 79.5391483,42.9056085 79.5075929,42.269166 C78.8449297,42.9473425 78.1296726,43.7298547 77.2671584,44.0950255 C76.8674547,44.251529 76.4467165,44.3245632 75.9839031,44.2723953 C75.7524967,44.2202275 75.5736825,44.0219913 75.447462,43.8133213 C75.205537,43.4064165 75.258128,42.9890765 75.3738314,42.5926042 C75.4159055,42.4465359 75.4684982,42.3004662 75.5316084,42.1648317 C75.8156069,41.5388217 76.099606,40.9336794 76.3730876,40.328537 C76.7517517,39.4729921 77.1304176,38.6070119 77.5406382,37.6158311 C77.6563412,37.3758609 77.3302686,37.208925 77.0988622,37.3236931 C76.6255302,37.5740971 76.2363468,37.8453674 75.899755,38.2522736 C75.7735346,38.3879094 75.6788678,38.5339778 75.5736825,38.7009137 C75.3212399,38.9930518 75.1213889,39.2956222 74.9951667,39.6607944 C74.343021,41.1736495 73.6488018,42.5717365 73.0597675,44.0219913 L70.9981461,44.1158932 L70.9981432,44.1158878 Z" id="path39"></path>
                        <path d="M102.569578,92.114112 C102.233318,91.1615934 100.776193,88.7963517 100.307467,88.0471795 C99.8387424,87.2873066 99.0745171,85.6391295 98.2287727,84.5795869 C97.4543569,83.6377719 98.0861173,83.3809123 97.2811316,82.5675268 C96.7920278,82.0859157 95.2941443,80.6624901 94.9578853,80.362821 C94.6420051,80.0524511 93.3988631,78.9072873 92.6855859,78.2544383 C92.0028769,77.6229949 90.3215798,76.3815103 90.3827173,75.5895287 C90.4132871,74.7868446 90.0464583,73.2456926 89.4758365,72.7212725 C89.0682484,72.3573884 87.8658668,70.2918163 86.4902594,69.1038436 C85.7871716,68.4723997 84.3198568,66.8563295 83.1786121,65.4222014 C82.0985061,64.0843948 81.2935209,62.8536126 81.0489682,63.0141497 C80.7025193,63.2710087 82.3023001,65.6576549 82.4653338,65.9359184 C82.6385591,66.2248844 84.4930815,69.6068587 84.6764957,70.5165673 C84.849721,71.4155728 88.304022,77.5801849 89.0580585,79.5066255 C89.4860254,80.6089775 91.8500321,82.1180226 92.8384313,83.8732254 C93.7453132,85.4999969 94.0000548,85.1682208 94.3770736,85.1789239 C95.2228168,85.2110309 97.1486667,87.4157361 97.5460648,88.0150726 C97.9128926,88.6251121 101.020746,91.9214669 101.815542,92.7134485 C102.17218,93.0666301 104.617703,97.2940974 104.943774,96.9837252 C105.280032,96.6947592 104.006323,94.6291877 103.812719,94.1796847 C103.608925,93.7301804 102.916027,93.0666301 102.569578,92.114112" id="path41"></path>
                        <path d="M106.844937,88.0337937 C106.636689,87.670092 104.992628,85.4359234 104.411728,84.6981291 C103.392409,83.430368 104.324044,82.9627514 103.797944,82.1833897 C103.578737,81.8404714 102.274448,80.3337074 100.729031,78.8165514 C99.9398823,78.0683639 99.06305,77.3409616 98.3177416,76.6966896 C97.1011366,75.6575416 96.180463,74.8885719 96.0379771,75.0132696 C95.8297295,75.2107073 96.5311965,76.0524176 96.8490471,76.4057279 C97.1449785,76.7798216 97.6272366,77.4344839 98.2629401,78.1618879 C99.3041787,79.3569079 98.3396632,80.240184 99.3370592,81.1754177 C99.5124263,81.3416811 102.241567,84.2720777 102.899192,84.8228257 C103.907549,85.664536 107.44776,89.7068218 107.699849,89.9458258 C108.116344,90.3095275 108.850692,91.1200635 108.971256,90.9849738 C109.102781,90.8498852 108.752048,90.4030515 108.5438,90.0705235 C108.357473,89.748388 107.075106,88.4078875 106.844937,88.0337937" id="path43"></path>
                        <polygon id="polygon45" points="5.33333333 70.673054 3.04444444 68 3.23333333 71.4706586 0 72.6778442 3.36666667 73.5401198 3.57777778 77 5.54444444 74.0574848 9 74.9736524 6.74444442 72.300599 8.66666664 69.390419"></polygon>
                        <polygon id="polygon47" points="128.455741 85.6514216 129.758373 89 130.619617 85.529048 134 85.3510508 131.157895 83.4487022 132.029904 80 129.30622 82.2583436 126.399522 80.2892462 127.659091 83.6155748 125 85.8627938"></polygon>
                        <polygon id="polygon49" points="124.459036 96.5259346 125.131325 100 126.638554 96.8516284 130 97.3293124 127.527711 94.9843186 129.03494 91.835947 125.912048 93.4644148 123.407229 91 124.036145 94.4306392 121 96.069964"></polygon>
                        <path d="M85.8625378,93.4212067 C85.4528433,91.748901 86.997079,92.9268782 86.0096089,90.2553942 C85.5578931,89.0143102 84.6859771,87.7942622 84.2027468,87.2999336 C83.7090109,86.8161216 83.2152749,84.6810371 82.8370938,83.7449656 C82.4484087,82.8088959 82.6480038,82.7563073 81.8076029,80.5265645 C81.1983122,78.9068462 82.9316391,79.4537645 81.9441672,76.9190091 C81.313867,75.2887725 78.1098374,69.3778531 77.7421618,68.7678291 C77.5530718,68.4417817 76.9332761,67.4215691 76.1769155,66.2015211 C75.4520694,65.04458 74.8532837,63.8140137 74.5276283,63.2881314 C73.8658119,62.2153297 72.626221,59.8278229 71.9539001,58.839164 C71.2605691,57.850504 70.4096632,55.6733501 70.0524927,56.0414681 C69.7163317,56.3569974 71.0819835,59.6279874 71.6702648,61.7210011 C72.2585448,63.7824611 71.8173346,64.6343908 71.4706697,65.2233788 C71.1240037,65.8123686 71.1240037,66.1910028 71.4706697,67.2427685 C71.7858201,68.1683217 72.9413708,73.6480194 73.2775318,74.8049605 C73.6241967,75.9303508 73.9708628,75.9934559 74.1599528,76.4246794 C74.8532837,78.1390571 75.8092394,78.2126805 76.3029753,78.3599285 C77.7001417,78.7911519 77.8051926,80.6738114 78.6981192,82.3671542 C79.53852,83.9658371 80.3158912,85.3752022 81.0512423,87.0895805 C81.7865923,88.824993 85.5368836,98.1751867 86.1671838,99.6055879 C86.3877883,100.131471 88.1841465,100.131471 87.9845509,99.6055879 C87.5118256,98.574857 86.4928392,95.9875147 85.8625378,93.4212067" id="path51"></path>
                        <polygon id="polygon53" points="9.36550062 97.8586958 10.8528347 101 11.5367913 97.5217394 15 97.0978262 11.9710495 95.4239132 12.6224367 92 10.1037394 94.423913 7.00965018 92.7826088 8.48612784 95.9456522 6 98.2826084"></polygon>
                        <path d="M65.9884938,37.0816327 C66,37.0408164 66,37.0408164 66,37.0204088 C65.9884938,37 65.9309744,37 65.8734525,37 C65.0681469,37 64.1708075,37.6428575 63.5265632,38.2653062 C63.4230244,38.346939 63.3309894,38.4387761 63.2619625,38.5306133 C62.4911713,39.3775513 61.2371957,40.9693872 61.0301176,42.1326531 C60.9035701,42.7448973 61.1911782,43 61.6053357,43 C62.4106394,43 63.5495725,41.6938775 64.1938156,40.5612248 C64.8265563,39.336735 65.1716863,38.6326536 65.9884969,37.0816327" id="path55"></path>
                        <path d="M40.9335952,75.0097009 C40.6841587,74.7984483 37.5454198,78.0834249 35.4875701,80.3755153 C34.7600487,81.15715 34.3027483,81.9070958 34.011739,82.2662247 C34.011739,82.2662247 33.0971396,83.8083682 32.629447,84.4421266 C32.1305739,85.0864464 30.9145729,86.9243442 30.3949141,87.7165403 C30.2078359,87.991168 29.7297499,89.1319317 28.7943647,90.3466336 C28.3370643,90.9275787 27.8589782,91.7092134 26.9547723,92.9239153 C25.7387701,94.5188721 24.8137771,95.8392 25.0320344,95.9976393 C25.1463592,96.0821404 26.9443788,93.8851137 28.846331,91.4979608 C29.6466057,90.5050746 30.5092388,89.4699364 31.2263679,88.508738 C31.5797358,88.0334189 32.4007975,87.2412223 32.6710198,86.82928 C33.1387123,86.1110216 33.6583712,85.5828903 33.8558415,85.403325 C34.9263385,84.5160648 35.5187506,84.4421266 35.8617249,83.9562457 C36.0176225,83.7133052 38.1274371,80.4388905 38.886139,79.0974371 C39.6240552,77.8404844 41.3597164,75.3899547 40.9335952,75.0097009" id="path57"></path>
                        <polygon id="polygon59" points="4.86363636 84.4734894 2 86.3267568 5.38038277 86.5487052 6.20933012 90 7.5334928 86.6374848 11 86.8927248 8.35167464 84.6399504 9.64354064 81.3329226 6.71531102 83.263872 4.02392344 81"></polygon>
                        <path d="M54.5943632,68.0825807 C53.7335625,68.9388902 51.9704751,72.0133464 51.2963537,72.3538074 C49.8029146,73.0966292 49.1287932,74.8711474 48.6828357,75.5727024 C48.3613314,76.0988683 47.9568583,76.9345414 47.230881,77.9868731 C46.5982441,78.9050835 45.8722681,80.2669241 45.6233614,80.7518211 C45.3537131,81.2264012 45.2603727,81.6906662 45.7478147,81.6906662 C46.2352554,81.6906662 45.8515252,82.4747552 45.2603727,83.3620151 C44.9181256,83.8778636 44.0884379,86.3333027 43.8395311,86.9935883 C43.5283984,87.829263 43.5595114,88.8815948 43.4661724,89.2323714 C43.341719,89.5625134 41.7549409,92.9774306 41.3297249,93.7305698 C41.0808195,94.2257846 41.1430455,94.4114901 41.0497051,94.6694149 C40.9045103,95.0098742 41.101561,95.1027272 41.3297249,94.8757545 C41.6304875,94.5559283 43.341719,91.9457336 43.8706455,91.6465421 C44.378829,91.3163985 44.835158,90.8418184 44.9181256,89.7172678 C45.0010946,88.5927189 45.7167004,88.2935263 46.2663698,87.6332408 C46.8264093,86.9832709 47.5731281,86.1063283 47.9776012,85.1881191 C48.3405899,84.2699087 48.8176605,84.9817794 49.6888327,83.5683536 C50.5600049,82.1652463 52.4994002,78.6781108 52.9349877,77.9971905 C53.3705738,77.3265876 53.0698112,76.3361584 53.0075851,75.5520677 C52.9764721,75.1187548 53.0386981,74.076741 53.2876049,72.9625089 C53.5261401,71.9720803 53.9928393,70.9610164 54.241746,70.3213639 C54.4284254,69.919002 55.0299494,68.6500144 54.9988363,68.1444832 C54.9988363,68.0516302 54.7914141,67.9071932 54.5943632,68.0825807" id="path61"></path>
                        <path d="M52.9954818,37.0306133 C52.9954818,37 52.9263832,37 52.8688001,37 C51.9474768,37 50.9225041,37.836735 50.2775783,38.5306133 C49.6787172,39.163265 48.7919433,40.2653058 48.3312824,41.2653062 C48.1930837,41.5612239 48.0894343,41.8673473 48.0318512,42.1326531 C47.9512356,42.489796 48.0318512,42.7244898 48.1815668,42.846939 C48.2736992,42.9489792 48.4349304,43 48.584646,43 C49.4023213,43 50.5309419,41.6938775 51.1758677,40.5612248 C51.820795,39.3265305 52.177808,38.6326536 52.9724494,37.0714296 C52.9954818,37.0510208 53.0069988,37.0510208 52.9954818,37.0306133" id="path63"></path>
                        <path d="M80.3350035,44.935865 C80.4336972,44.9965812 80.5323897,45.0067008 80.6310817,44.9965812 C81.3515412,44.9055075 82.1706937,43.3775004 82.9108909,41.940567 C83.7399131,40.3113679 84.4110251,38.2773983 83.700436,38.0446556 C83.5030497,37.9637015 83.2859252,37.9940602 83.0688,38.1256097 C83.0194543,38.1559672 82.9799772,38.1762063 82.9306303,38.2166834 C82.9108909,38.2166834 82.9108909,38.2268043 82.9010223,38.2369212 C82.6444194,38.4393065 82.3976874,38.7530034 82.1213469,39.1071772 C81.7463137,39.6232593 81.3811497,40.2810105 81.0554623,40.928642 C80.6804292,41.6369898 80.3547423,42.4364112 80.1672258,43.1346394 C79.9303623,44.0048941 79.9106229,44.7435993 80.3350035,44.935865" id="path65"></path>
                    </g>
                    <g id="Sony-Logo" transform="translate(0.000000, 36.000000)">
                        <g id="g70">
                            <g id="g40">
                                <g id="g28" transform="translate(0.000000, 0.587234)">
                                    <path d="M14.6351111,0.704680851 L16.4363556,0.704680851 L16.4363556,5.52 L14.7476889,5.52 C14.7476889,4.69787234 13.5093333,2.23148936 8.6684889,2.11404255 C3.60248889,1.87914894 3.15217778,4.46297872 4.84084444,5.05021277 C7.0924,5.75489362 11.3703556,5.63744681 14.0722222,6.45957447 C17.5621333,7.63404255 18.5753333,11.6272341 15.5357333,13.7412766 C12.7212889,15.6204255 7.88044441,15.3855319 4.39053333,14.2110638 C3.71506667,13.9761702 2.70186667,13.3889362 2.81444444,14.2110638 L2.81444444,14.6808511 L0.675466667,14.6808511 L0.675466667,9.39574469 L2.58928889,9.39574469 C2.58928889,9.74808508 2.36413333,10.9225532 4.50311111,12.0970213 C6.97982222,13.506383 11.3703556,13.506383 13.1716,12.5668085 C14.1848,11.9795745 14.4099556,10.1004255 12.4961333,9.74808508 C10.4697333,9.51319146 7.20497778,9.27829785 4.84084444,8.69106385 C3.15217778,8.33872338 1.80124444,7.75148938 1.0132,6.69446808 C0.450311111,5.87234042 -0.562888889,2.70127659 2.81444444,1.05702128 C7.0924,-0.939574469 12.9464444,0.469787234 14.0722222,1.4093617 C14.4099556,1.64425532 14.8602667,1.52680851 14.6351111,0.704680851 Z" id="path26"></path>
                                </g>
                                <path d="M30.2834222,0.469787234 C35.0116889,0.469787234 40.0776889,2.81872341 39.9651111,8.33872338 C39.8525333,13.7412766 34.8991111,15.9727659 30.2834222,15.9727659 C25.6677333,15.9727659 20.264,13.8587234 20.1514222,8.33872338 C20.0388444,2.81872341 25.5551556,0.469787234 30.2834222,0.469787234 Z M35.7997333,8.22127662 C35.7997333,4.58042553 33.3230222,2.58382978 30.1708444,2.58382978 C27.0186667,2.58382978 24.5419556,4.58042553 24.5419556,8.22127662 C24.5419556,11.8621277 27.0186667,13.9761702 30.1708444,13.8587234 C33.2104444,13.7412766 35.7997333,11.7446808 35.7997333,8.22127662 Z" id="path30"></path>
                                <g id="g34" transform="translate(64.169333, 1.174468)">
                                    <path d="M17.4495556,2.46638298 C17.1118222,2.81872341 12.3835556,8.69106385 12.3835556,8.69106385 L12.3835556,11.8621277 C12.3835556,12.2144681 12.3835556,12.2144681 12.7212889,12.2144681 C13.0590222,12.2144681 14.6351111,12.2144681 14.6351111,12.2144681 L14.6351111,13.9761702 L5.74146667,13.9761702 L5.74146667,12.2144681 C5.74146667,12.2144681 7.54271111,12.2144681 7.88044441,12.2144681 C8.21817779,12.2144681 8.33075559,12.0970213 8.33075559,11.8621277 L8.33075559,8.69106385 C8.33075559,8.69106385 3.15217778,2.70127659 3.0396,2.58382978 C2.81444444,2.34893617 2.36413333,1.87914894 1.46351111,1.87914894 L0,1.87914894 L0,0.117446808 L9.00622221,0.117446808 L9.00622221,1.87914894 L8.1056,1.87914894 C7.88044441,1.87914894 7.6552889,2.34893617 7.99302221,2.70127659 C8.33075559,3.05361702 11.0326222,6.45957447 11.0326222,6.45957447 L14.0722222,2.70127659 C14.2973778,2.46638298 14.1848,1.87914894 13.8470667,1.87914894 C13.1716,1.87914894 12.7212889,1.87914894 12.7212889,1.87914894 L12.7212889,0.117446808 L20.1514222,0.117446808 L20.1514222,1.87914894 L18.4627556,1.87914894 C17.8998667,1.87914894 17.5621333,2.34893617 17.4495556,2.46638298 Z" id="path32"></path>
                                </g>
                                <g id="g38" transform="translate(41.653778, 0.587234)">
                                    <path d="M5.51631111,11.8621277 C5.51631111,12.8017022 5.96662222,12.6842553 6.41693333,12.6842553 L8.21817779,12.6842553 L8.21817779,14.4459575 L0.337733333,14.4459575 L0.337733333,12.6842553 L2.0264,12.6842553 C2.70186667,12.6842553 2.81444444,12.2144681 2.81444444,11.8621277 L2.81444444,3.52340425 C2.81444444,2.93617022 2.81444444,2.46638298 1.91382222,2.46638298 L0.225155556,2.46638298 L0.225155556,0.587234042 L6.86724444,0.587234042 L15.7608889,9.16085108 C15.7608889,9.16085108 15.7608889,4.34553192 15.7608889,3.28851064 C15.7608889,2.34893617 15.3105778,2.34893617 14.8602667,2.23148936 L13.1716,2.23148936 L13.1716,0.469787234 L20.7143111,0.469787234 L20.7143111,2.23148936 L18.9130667,2.23148936 C18.4627556,2.23148936 18.3501778,2.70127659 18.2376,3.05361702 L18.2376,14.3285106 L15.7608889,14.3285106 L5.29115556,4.81531915 C5.51631111,4.93276595 5.51631111,10.9225532 5.51631111,11.8621277 Z" id="path36"></path>
                                </g>
                            </g>
                            <path d="M0.450311111,28.6570213 L0.450311111,27.6 L1.35093333,27.6 C1.68866667,27.6 1.80124444,27.4825532 1.80124444,27.1302128 L1.80124444,21.8451064 C1.80124444,21.4927659 1.68866667,21.3753192 1.35093333,21.3753192 L0.450311111,21.3753192 L0.450311111,20.2008511 L7.43013333,20.2008511 C9.79426669,20.2008511 10.5823111,20.7880851 10.5823111,22.5497872 C10.5823111,24.3114894 9.5691111,25.0161702 6.86724444,25.0161702 L3.94022222,25.0161702 L3.94022222,27.1302128 C3.94022222,27.4825532 4.0528,27.6 4.39053333,27.6 L5.29115556,27.6 L5.29115556,28.6570213 L0.450311111,28.6570213 Z M3.94022222,23.8417022 L6.52951111,23.8417022 C7.6552889,23.8417022 8.21817779,23.4893617 8.21817779,22.5497872 C8.21817779,21.6102128 7.6552889,21.2578723 6.64208889,21.2578723 L3.82764444,21.2578723 L3.94022222,23.8417022 Z" id="path42"></path>
                            <g id="g46" transform="translate(11.257778, 19.965958)">
                                <path d="M3.82764444,7.16425532 C3.82764444,7.51659575 3.94022222,7.63404255 4.27795556,7.63404255 L5.17857778,7.63404255 L5.17857778,8.69106385 L0.337733333,8.69106385 L0.337733333,7.63404255 L1.23835556,7.63404255 C1.57608889,7.63404255 1.68866667,7.51659575 1.68866667,7.16425532 L1.68866667,1.76170213 C1.68866667,1.4093617 1.57608889,1.29191489 1.23835556,1.29191489 L0.337733333,1.29191489 L0.337733333,0.234893617 L5.17857778,0.234893617 L5.17857778,1.29191489 L4.27795556,1.29191489 C3.94022222,1.29191489 3.82764444,1.52680851 3.82764444,1.87914894 L3.82764444,7.16425532 Z" id="path44"></path>
                            </g>
                            <g id="g50" transform="translate(16.886667, 19.378723)">
                                <path d="M10.2445778,6.69446808 C10.0194222,7.986383 8.6684889,9.74808508 5.96662222,9.74808508 C3.48991111,9.74808508 0.450311111,8.69106385 0.337733333,5.16765958 C0.337733333,1.76170213 3.26475556,0.352340425 5.62888889,0.352340425 C7.0924,0.352340425 8.33075559,0.939574469 8.6684889,1.29191489 C8.89364441,1.52680851 9.1188,1.52680851 9.00622221,0.822127662 L10.0194222,0.822127662 L10.0194222,3.75829787 L9.1188,3.75829787 C9.00622221,2.23148936 7.31755556,1.29191489 5.51631111,1.52680851 C3.60248889,1.76170213 2.58928889,3.28851064 2.58928889,5.16765958 C2.58928889,7.28170213 4.27795556,8.69106385 5.96662222,8.69106385 C7.0924,8.69106385 8.78106669,8.33872338 9.1188,6.69446808 L10.2445778,6.69446808 Z" id="path48"></path>
                            </g>
                            <g id="g54" transform="translate(28.144444, 19.965958)">
                                <path d="M0.337733333,3.40595745 L0.337733333,0.117446808 L10.0194222,0.117446808 L10.0194222,3.40595745 L9.00622221,3.40595745 C9.00622221,1.05702128 8.78106669,1.29191489 8.1056,1.29191489 L6.19177778,1.29191489 L6.19177778,7.16425532 C6.19177778,7.51659575 6.30435556,7.75148938 6.64208889,7.75148938 L7.54271111,7.75148938 L7.54271111,8.80851062 L2.70186667,8.80851062 L2.70186667,7.75148938 L3.60248889,7.75148938 C3.94022222,7.75148938 4.0528,7.51659575 4.0528,7.16425532 L4.0528,1.29191489 L2.13897778,1.29191489 C1.35093333,1.4093617 1.23835556,1.17446808 1.23835556,3.40595745 L0.337733333,3.40595745 Z" id="path52"></path>
                            </g>
                            <g id="g58" transform="translate(39.402222, 19.965958)">
                                <path d="M5.40373333,9.16085108 C3.48991111,9.16085108 1.35093333,8.69106385 1.35093333,6.10723405 L1.35093333,1.87914894 C1.35093333,1.52680851 1.23835556,1.29191489 0.900622221,1.29191489 L0,1.29191489 L0,0.234893617 L4.84084444,0.234893617 L4.84084444,1.29191489 L3.94022222,1.29191489 C3.60248889,1.29191489 3.48991111,1.52680851 3.48991111,1.87914894 L3.48991111,6.22468085 C3.48991111,6.45957447 3.37733333,8.22127662 5.40373333,8.22127662 C7.6552889,8.22127662 7.88044441,7.16425532 7.88044441,6.22468085 L7.88044441,1.87914894 C7.88044441,1.52680851 7.76786669,1.29191489 7.43013333,1.29191489 L6.52951111,1.29191489 L6.52951111,0.234893617 L10.5823111,0.234893617 L10.5823111,1.29191489 L9.6816889,1.29191489 C9.45653331,1.29191489 9.23137779,1.52680851 9.23137779,2.23148936 L9.23137779,6.10723405 C9.23137779,8.573617 7.31755556,9.16085108 5.40373333,9.16085108 Z" id="path56"></path>
                            </g>
                            <path d="M58.9907556,24.546383 C59.7788,24.7812766 60.3416889,24.8987234 60.4542667,25.9557447 L60.4542667,27.1302128 C60.4542667,27.3651064 60.4542667,27.7174468 60.9045778,27.7174468 C61.3548889,27.7174468 61.2423111,27.2476595 61.2423111,26.7778723 L61.2423111,26.3080851 L62.1429333,26.3080851 L62.1429333,26.8953192 C62.1429333,28.4221277 61.8052,28.8919149 60.5668444,28.8919149 C59.4410667,28.8919149 58.4278667,28.5395745 58.4278667,26.8953192 L58.4278667,25.9557447 C58.4278667,25.3685106 57.9775556,25.0161702 56.9643556,25.0161702 L54.6002222,25.0161702 L54.6002222,27.1302128 C54.6002222,27.4825532 54.7128,27.6 55.0505333,27.6 L55.9511556,27.6 L55.9511556,28.7744681 L51.1103111,28.7744681 L51.1103111,27.6 L52.0109333,27.6 C52.3486667,27.6 52.4612444,27.4825532 52.4612444,27.1302128 L52.4612444,21.8451064 C52.4612444,21.4927659 52.3486667,21.2578723 52.0109333,21.2578723 L51.1103111,21.2578723 L51.1103111,20.2008511 L57.8649778,20.2008511 C60.2291111,20.2008511 61.0171556,21.0229787 61.0171556,22.6672341 C61.0171556,23.9591489 60.0039556,24.4289362 58.9907556,24.546383 Z M54.6002222,23.8417022 L57.1895111,23.8417022 C58.2027111,23.8417022 58.7656,23.3719149 58.7656,22.5497872 C58.7656,21.7276595 58.0901333,21.2578723 57.3020889,21.2578723 L54.6002222,21.2578723 L54.6002222,23.8417022 Z" id="path60"></path>
                            <g id="g64" transform="translate(63.043556, 19.965958)">
                                <path d="M3.60248889,7.63404255 L7.99302221,7.63404255 C8.78106669,7.51659575 9.00622221,7.16425532 9.00622221,5.52 L9.90684441,5.52 L9.90684441,8.80851062 L0.112577778,8.80851062 L0.112577778,7.63404255 L1.0132,7.63404255 C1.35093333,7.63404255 1.46351111,7.51659575 1.46351111,7.16425532 L1.46351111,1.87914894 C1.46351111,1.52680851 1.35093333,1.29191489 1.0132,1.29191489 L0.112577778,1.29191489 L0.112577778,0.117446808 L9.90684441,0.117446808 L9.90684441,3.40595745 L9.00622221,3.40595745 C9.00622221,1.76170213 8.89364441,1.29191489 7.99302221,1.17446808 L3.60248889,1.17446808 L3.60248889,3.75829787 L5.62888889,3.75829787 C5.85404444,3.75829787 6.0792,3.64085106 6.0792,3.17106383 L6.0792,2.23148936 L6.97982222,2.23148936 L6.97982222,6.22468085 L6.0792,6.22468085 L6.0792,5.28510638 C6.0792,4.81531915 5.85404444,4.69787234 5.62888889,4.69787234 L3.60248889,4.69787234 L3.60248889,7.63404255 Z" id="path62"></path>
                            </g>
                            <g id="g68" transform="translate(74.301333, 19.378723)">
                                <path d="M8.21817779,0.822127662 L9.1188,0.822127662 L9.1188,3.75829787 L8.21817779,3.75829787 C8.21817779,3.28851064 7.54271111,1.64425532 4.95342222,1.52680851 C2.25155556,1.4093617 1.91382222,2.93617022 2.92702222,3.40595745 C4.0528,3.87574468 6.30435556,3.75829787 7.76786669,4.34553192 C9.6816889,5.05021277 10.132,7.51659575 8.5559111,8.80851062 C7.0924,9.98297869 4.50311111,9.86553192 2.70186667,9.04340423 C2.36413333,8.92595746 1.80124444,8.573617 1.91382222,9.04340423 L1.91382222,9.27829785 L0.788044441,9.27829785 L0.788044441,6.10723405 L1.80124444,6.10723405 C1.80124444,6.34212766 1.68866667,7.04680851 2.81444444,7.75148938 C4.39053333,8.80851062 5.96662222,8.92595746 7.31755556,8.10382977 C7.88044441,7.75148938 8.21817779,6.57702128 6.97982222,6.34212766 C5.96662222,6.22468085 4.27795556,6.10723405 2.92702222,5.75489362 C2.0264,5.52 1.35093333,5.16765958 0.900622221,4.58042553 C0.562888889,3.99319149 1.55431223e-14,2.23148936 1.91382222,1.17446808 C4.16537778,6.69464484e-14 6.64208889,0.704680851 7.76786669,1.29191489 C8.1056,1.52680851 8.33075559,1.52680851 8.21817779,0.822127662 Z" id="path66"></path>
                            </g>
                        </g>
                    </g>
                </g>
            </g>
        </g>
    </g>
</svg>