<?xml version="1.0" encoding="UTF-8"?>
<svg width="239px" height="178px" viewBox="0 0 239 178" version="1.1" xmlns="http://www.w3.org/2000/svg" xmlns:xlink="http://www.w3.org/1999/xlink">
    <!-- Generator: Sketch 52.6 (67491) - http://www.bohemiancoding.com/sketch -->
    <title>Paramount-Pictures-Logo</title>
    <desc>Created with Sketch.</desc>
    <g id="Page-1" stroke="none" stroke-width="1" fill="none" fill-rule="evenodd">
        <g id="Home" transform="translate(-91.000000, -4992.000000)" fill="#404040">
            <g id="Paramount-Pictures-Logo" transform="translate(91.000000, 4992.000000)">
                <polygon id="polygon5" points="73.3980583 14.3652695 68.2281553 17.0419162 64.2050971 13 65.1334951 18.6047904 60 21.2994012 65.8070388 22.2335329 66.717233 28 69.2839806 22.8263473 75 23.7245509 70.8313107 19.6646707"></polygon>
                <polygon id="polygon7" points="87.6113208 8.96226415 84.5295597 4 84.3886792 9.98113208 79 11.6981132 84.3358491 13.8301887 84.1421384 20 87.5408805 15.1698113 92.8062893 17.245283 89.6012579 12.1509434 93 7.30188679"></polygon>
                <polygon id="polygon9" points="53.6906475 26 49.1942446 29.6764706 44.5179856 26.4044118 46.4784173 31.8823529 42 35.5404412 47.8273381 35.375 49.8057554 41 51.2985612 35.2830882 57 35.0808824 52.1978417 31.7720588"></polygon>
                <polygon id="polygon11" points="110.222357 5.30797101 108.035237 0 106.759417 5.61594203 101 6.17753623 106.012151 9.23913043 104.699878 15 109.037667 11.1050725 113.99514 14.1304348 111.680437 8.73188406 116 4.76449275"></polygon>
                <polygon id="polygon13" points="24.2166463 62.7816229 23.4822521 57 20.5813953 62.0119332 15 60.8305489 18.8555692 65.0190931 15.9547124 70.0310263 21.4075887 67.6682578 25.3182375 72 24.6756426 66.2899761 30 63.9451074"></polygon>
                <polygon id="polygon15" points="15.2183771 83.3631841 13.428401 78 11.6026253 83.3283582 6 83.2064677 10.5107399 86.4975124 8.6849642 91.8084577 13.428401 88.5870647 18.0465394 92 16.3102625 86.6542289 21 83.4328358"></polygon>
                <polygon id="polygon17" points="37.9202454 40 34.0920245 44.3697979 28.809816 42.1403092 31.809816 46.9738407 28 51.3079667 33.797546 50.0416171 36.8527607 55 37.2760736 49.3103448 43 48.0083234 37.5337423 45.7788347"></polygon>
                <polygon id="polygon19" points="224 60.9200477 218.395604 62.0119332 215.538462 57 214.769231 62.7816229 209 63.9093079 214.29304 66.2899761 213.56044 72 217.553114 67.721957 222.937729 70.0668258 220.080586 65.0190931"></polygon>
                <polygon id="polygon21" points="227.442584 84.49066 232 81.2826899 226.383971 81.3349938 224.589713 76 222.777512 81.4047323 217 81.4221669 221.665072 84.6650062 219.888756 90 224.535885 86.6002491 229.272727 89.860523"></polygon>
                <polygon id="polygon23" points="207.176108 46.9845972 210.261084 42.221564 204.903941 44.3720379 201.116995 40 201.504926 45.8116114 196 47.9976303 201.689655 49.3127962 202.096059 55 205.21798 50.0592417 211 51.3566351"></polygon>
                <polygon id="polygon25" points="10.2475728 103.114458 7.38956311 98 6.625 103.746988 1 104.722892 6.15169903 107.23494 5.36893204 113 9.48300971 108.753012 14.743932 111.337349 11.9769417 106.240964 16 102.048193"></polygon>
                <polygon id="polygon27" points="234.012315 119 230.133005 123.485646 224.628079 121.278708 227.786946 126.141148 224 130.555024 229.78202 129.101675 232.996305 134 233.402709 128.204545 239 126.858852 233.605911 124.759569"></polygon>
                <polygon id="polygon29" points="131.229369 5.62273277 130.046117 0 127.752427 5.27811366 122 4.71584039 126.350728 8.68802902 123.984223 14.0749698 128.953883 11.1185006 133.268204 15 131.993932 9.2503023 137 6.20314389"></polygon>
                <polygon id="polygon31" points="152.573232 9.98113208 152.502525 4 149.338384 8.9245283 144 7.18867925 147.411616 12.1320755 144.123737 17.2075472 149.409091 15.1320755 152.785354 20 152.643939 13.8490566 158 11.754717"></polygon>
                <polygon id="polygon33" points="174.872727 13 170.8 17.005988 165.672727 14.3293413 168.2 19.6107784 164 23.6886228 169.709091 22.8083832 172.236364 28 173.236364 22.2335329 179 21.3173653 173.854545 18.6047904"></polygon>
                <polygon id="polygon35" points="193.571942 25.49511 188.841727 28.7041565 184.381295 25 185.874101 30.8129584 181 34.0586797 186.719424 34.3154034 188.176259 40 190.244604 34.4437653 196 34.608802 191.521583 30.9046455"></polygon>
                <polygon id="polygon37" points="229.472727 108.802171 233.545455 113 232.818182 107.227986 238 104.803378 232.381818 103.772014 231.636364 98 228.763636 103.156815 223 102.034982 226.981818 106.250905 224.218182 111.299156"></polygon>
                <path d="M128.030163,88.1428399 C128.419159,88.5685012 131.679328,91.4741026 132.216516,92.0478203 C132.809273,92.6955661 136.328775,95.5086317 138.236714,95.5086317 C140.126132,95.5086317 141.515407,97.5999256 142.534211,98.6363199 C144.775578,100.727611 154.130039,110.610358 157.186448,112.72016 C158.538677,113.664016 159.835336,113.497455 160.85414,114.274749 C161.928514,115.052044 162.410129,115.588746 163.021412,115.773818 C163.632693,115.958887 165.596203,115.403677 167.93019,118.364799 C169.004564,119.10508 169.300941,119.253137 169.300941,119.253137 C169.300941,119.253137 172.449968,122.14023 173.579913,124.213017 C174.598717,125.98969 198.216421,157.6552 206.681747,169 C214.517267,154.620047 219,138.111788 219,120.548628 C219,65.0275754 174.432005,20 119.472218,20 C64.5124319,20.01851 19.9814822,65.0460807 20.0000058,120.585641 C20.0000058,135.742889 23.9455517,152.75084 31.0401237,166.723637 C43.8585187,154.712583 77.4604899,116.347535 81.3134175,111.887343 C87.1669036,105.095268 89.7046481,109.42591 92.8536757,105.631971 C94.5578549,103.559185 95.5396099,102.763385 96.2620341,102.337723 C97.484598,101.615949 98.8738759,99.8762887 99.5407272,99.3951068 C100.226105,98.858402 101.800619,96.7856181 103.004659,95.7307162 C104.190174,94.6943242 106.598253,93.1212275 109.006332,91.0299336 C111.432935,88.9201344 115.545196,84.0712955 120.009404,84.0712955 C125.325702,84.0527855 127.585594,87.6986709 128.030163,88.1428399 Z M51.3606112,90.1971185 C43.1175702,90.141598 41.9505769,84.4229287 41.9876255,82.0170169 C42.0061522,81.5728479 42.0617204,81.25823 42.0987666,81.0731584 C42.4692409,79.8702024 43.0990459,78.8153029 44.3216098,78.8153029 C45.5626979,78.8153029 46.5814992,79.8331896 46.5814992,81.0731584 C46.5814992,81.8504529 46.192503,82.535214 45.5626979,82.9238601 C44.6179892,83.5345931 44.4883238,84.2378595 44.4883238,84.570985 C44.4883238,84.6635208 44.5068505,84.737549 44.5068505,84.737549 C44.5068505,88.7165576 49.3044868,89.25326 51.0457146,89.3087829 L51.3606159,89.3087829 C53.1759386,89.3087829 54.7504524,88.9386421 56.1212036,88.2538809 C65.7350005,83.5160855 65.8461416,64.0281964 77.0714985,56.8474714 C77.4419704,56.6068816 77.7568741,56.6994151 77.8494933,56.8659814 C77.9050638,56.9770249 77.8865395,57.1065736 77.7753984,57.2731351 C73.7557569,62.3255509 72.2368136,70.5056549 72.2368136,70.5056549 C75.7192693,70.5056549 78.5163446,68.6364455 80.3316672,66.249039 C81.739467,64.3983372 82.4989375,62.2515228 82.4989375,60.4378363 C82.4989375,53.3311419 76.1823603,50.3700176 70.8290138,50.3700176 C55.8248266,50.3700176 49.3415354,60.9560334 49.3415354,66.7117156 C49.3415354,72.4859054 52.9351298,74.5771969 55.5654934,74.5771969 C58.714521,74.5771969 59.9741311,72.6894823 59.9556092,71.4124982 C59.9556092,71.2274266 59.9370825,71.0423574 59.8629901,70.9128087 C59.6777541,70.450132 59.6036593,69.9874578 59.6221812,69.5803041 C59.6592298,68.3403329 60.4187003,67.4705025 61.2707899,67.4705025 C61.715359,67.4705025 63.1972536,67.414982 63.1972536,70.0614859 C63.1972536,72.6154541 59.6036593,75.1879299 55.6766369,75.1879299 C51.7310902,75.1879299 46.0257938,73.0226078 46.0257938,66.7117156 C46.0257938,53.8678443 61.6412641,49.037513 70.8475381,49.481682 C79.7389084,49.8888357 85.4442049,53.8123237 86.7223393,58.4020653 C86.9260995,59.0683164 87.0001944,59.7530775 87.0001944,60.4378363 C86.9816677,70.0984988 71.8107688,71.7641314 71.8107688,71.7641314 C69.1618832,85.1632128 58.6219019,90.2711491 51.3606159,90.1971209 L51.3606112,90.1971185 Z M123.899385,78.7412771 C125.473897,75.1324094 127.011364,71.6345827 128.567354,68.0627278 C128.58588,67.9886997 128.58588,67.9516844 128.58588,67.9146715 C128.678497,67.6000512 128.58588,67.2669257 128.437691,67.137377 C128.122787,66.9893206 127.585601,67.2854333 127.196603,67.4890102 C126.363037,68.0812355 125.622089,68.85853 125.047854,69.8579091 C124.436574,70.8387805 123.899388,71.8566672 123.47334,72.9115668 L120.842977,78.7597847 L117.360524,78.7597847 C117.730998,77.9824902 118.360803,76.4464063 118.768326,75.6506041 C118.768326,75.5950836 118.675707,75.5580707 118.675707,75.5950836 C118.471946,75.7801552 118.194091,76.0022373 117.953282,76.2058166 C116.193533,77.6678699 114.137401,79.2039513 112.599936,78.8893334 C112.007177,78.8338129 111.507037,78.3156157 111.377372,77.7789109 C111.303277,77.4457854 111.284755,77.1311675 111.303277,76.8165472 C111.321804,76.5019269 111.377372,76.2058166 111.451467,75.9282092 C111.451467,75.854181 111.377372,75.854181 111.303277,75.9282092 C109.784336,77.3717572 108.432107,78.5747131 106.524165,79.0373898 C105.431269,79.2779795 104.43099,78.5747131 104.07904,77.7789109 C103.819707,77.3162367 103.671517,76.7240114 103.690041,76.020745 C103.690041,75.3359862 103.838231,74.5586917 104.245751,73.7258742 C104.708845,72.652467 105.227506,71.5420469 105.875836,70.616696 C105.48684,70.8017652 104.708845,70.894301 104.171657,70.8017652 C103.72709,70.7462447 103.245472,70.3946115 103.023188,70.0799936 C102.726811,69.7468656 102.671238,69.1546427 102.671238,68.7474866 C102.671238,68.7474866 102.689764,68.7289766 102.671238,68.7289766 C102.634191,68.7104665 102.486002,68.7104665 102.411907,68.7474866 C101.337533,69.6173169 100.892964,70.616696 100.374302,71.7456237 L97.3364155,78.6117284 L93.8354379,78.6117284 L95.1320966,75.7061271 C95.1691452,75.6691118 95.1691452,75.6135913 95.1691452,75.5950836 C95.1506185,75.5765736 95.1135723,75.5765736 95.0950504,75.6135936 C93.2612034,77.2977314 91.0383626,79.1669408 89.2600886,78.8153077 C88.7599489,78.7227718 88.2042363,78.2230823 88.1116195,77.7048852 C87.9634298,77.0756469 88.0190004,76.4093958 88.1116195,75.8541834 L87.9634298,75.8541834 C87.4262416,76.3908882 86.90758,76.8905777 86.3333455,77.3347467 C85.5368264,77.9824926 84.6476882,78.4821821 83.628887,78.7782924 C83.4992192,78.8153077 83.3880781,78.8523205 83.2584127,78.8708282 C83.239886,78.8893382 83.1843179,78.8893382 83.1472692,78.8893382 C82.1469899,79.1669432 81.2208055,78.5191974 80.813285,77.6308618 C80.7947583,77.5568336 80.7762387,77.4828054 80.7391901,77.3902696 C80.4428107,76.5019316 80.4798593,75.5580755 80.646571,74.6697375 C80.7391901,74.336612 80.8318093,73.9849788 80.9614747,73.6518508 C82.3137039,70.0614907 84.7958779,67.4890149 88.1857144,65.564285 C90.3529846,64.3058086 93.6872482,63.9171601 96.0397568,65.1571313 L96.0397568,65.1756413 C94.4281967,68.8585396 93.2426815,71.5235488 91.7237382,75.0028678 C91.6681677,75.1694318 91.5940728,75.410024 91.5940728,75.6321085 C91.5755461,75.8356853 91.6125995,76.0392622 91.7978331,76.131798 C92.0571638,76.2798519 92.3720676,76.2798519 92.5758278,76.131798 C94.4652429,75.2249523 96.1694245,72.9485892 97.4846052,70.3761134 L99.8371137,65.1201208 L103.152855,65.1201208 L102.263717,67.081866 C102.226671,67.1558942 102.226671,67.2114147 102.226671,67.2299223 C102.226671,67.2484324 102.226671,67.2484324 102.263717,67.2299223 C103.282521,66.4156125 104.412465,65.2311642 105.727646,64.5093902 C106.283359,64.2317852 107.487398,64.2317852 107.357733,65.1201208 C107.283638,65.8789101 106.690879,66.4896407 106.375975,67.2299223 C106.19074,67.6925966 105.986979,68.2663143 106.061074,68.5994398 C106.209264,68.951073 106.59826,69.1361446 107.0984,68.7289909 C107.617064,68.4328782 108.043108,68.1367656 108.487678,67.7481171 C109.321243,66.9338097 110.377093,66.1565151 111.56261,65.5642898 C113.915119,64.435362 117.138239,63.713588 119.472226,65.2311642 C117.842139,68.951073 116.619577,71.7271257 115.063586,75.2249523 C114.989493,75.3730087 114.952444,75.5025574 114.915398,75.5765855 C114.859825,75.9097135 115.026539,76.0392622 115.156205,76.131798 C115.378489,76.2798519 115.767488,76.3168672 116.286149,76.0577698 C117.601332,75.5025574 119.879746,72.8930687 120.768882,70.8943106 C121.639496,69.0621165 122.436015,67.2114147 123.343675,65.1201208 L126.770558,65.1201208 L125.807327,67.1558942 C125.807327,67.1558942 125.899944,67.2114147 125.936993,67.2114147 C126.900223,66.3415843 129.23421,64.4168544 131.012484,64.8055029 C131.975715,65.0275874 132.438808,66.193528 132.364713,67.0448507 L132.364713,67.0633608 C132.901899,66.6747123 133.476134,66.2675586 134.068892,65.8604048 C134.087419,65.8233896 134.124463,65.8233896 134.142987,65.8048843 C134.180033,65.7863743 134.254128,65.7493614 134.309699,65.7123485 C134.420842,65.656828 134.513461,65.6013051 134.643127,65.5272769 C134.661654,65.5272769 134.661654,65.5272769 134.680173,65.5087669 C134.809838,65.4162311 134.995077,65.3236953 135.143267,65.2496671 C135.180313,65.2311571 135.235883,65.2311571 135.291456,65.1941466 C135.606358,65.0831055 135.939786,64.9535568 136.291736,64.861021 C136.495496,64.8055005 136.662207,64.8055005 136.791875,64.7684852 C138.755385,64.5278955 139.514856,66.0454693 138.866529,67.4890173 C138.162626,69.1361422 136.921541,72.0232359 135.939786,74.2810938 C135.624882,75.0028655 135.328502,75.6321061 135.087696,76.1688085 C135.069169,76.2058238 135.069169,76.2428366 135.069169,76.2428366 C134.958026,76.501934 134.958026,76.8905825 135.087696,77.0016236 C135.124742,77.0571465 135.217361,77.0941594 135.291456,77.0941594 C135.550787,77.1126694 135.847166,76.9646107 135.995356,76.8720749 C137.162347,75.8726958 137.810676,75.22495 138.736861,73.8924454 C138.903575,72.3933768 139.514856,70.9498287 140.38547,69.6358318 C140.830039,68.9325654 141.367225,68.3033272 141.959983,67.6925942 C143.775306,65.6383156 146.646476,64.0467112 149.42503,64.9905697 C150.406787,65.30519 151.073638,66.3045691 151.295923,67.2854405 C151.444112,67.8221429 151.573778,68.062735 151.573778,68.6549603 C152.296202,69.2101704 153.111245,69.0436064 153.870716,68.5624245 C153.889243,68.5624245 153.907762,68.5254093 153.926286,68.5254093 C154.000381,68.4883964 154.074476,68.4328759 154.167095,68.3958606 C154.167095,68.3773505 154.167095,68.3773505 154.185622,68.3588477 C154.259717,68.2848195 154.333809,68.2478042 154.407904,68.1737761 C154.444953,68.155266 154.463477,68.1182555 154.500523,68.0997479 C154.982139,67.6740865 155.389662,67.1558918 155.648992,66.7117228 C155.686041,66.619187 155.723087,66.5081459 155.778658,66.3971025 C155.945372,66.0084564 156.112086,65.6198079 156.223227,65.30519 C156.241754,65.2681747 156.260273,65.1941466 156.260273,65.1571337 C157.093841,65.2126542 158.742449,65.1571337 159.687156,65.1571337 L155.445232,75.0213731 C155.148853,75.6135984 155.093282,75.946724 155.093282,76.390893 C155.093282,76.7055133 155.426708,76.7610338 155.797182,76.7425262 C155.834228,76.7240161 155.852753,76.7240161 155.889801,76.7240161 C156.278797,76.649988 156.797461,76.3353701 157.297601,75.8726934 C157.89036,75.3174834 158.520165,74.5586965 159.075875,73.725879 C159.409301,73.2261895 159.70568,72.7079947 159.965011,72.2083052 C160.40958,71.1904185 160.872673,70.2280523 161.335764,69.2471809 C161.947048,67.9701968 162.558328,66.7117204 163.151087,65.2681723 L166.596492,65.2681723 C165.244263,68.5809298 163.669751,72.0972617 162.539804,74.6697375 C162.447187,74.8733144 162.336044,75.1139065 162.224903,75.3730039 C162.206376,75.4285244 162.187854,75.4470321 162.187854,75.4840473 C162.169327,75.5395679 162.169327,75.5950884 162.150808,75.6321037 C162.132281,75.7431447 162.113759,75.8356805 162.095237,75.9467216 C162.076711,76.0947779 162.113764,76.2798471 162.150808,76.4649188 C162.243427,76.6870033 162.539804,76.7240161 162.780613,76.6684956 C162.873232,76.6499856 162.947327,76.6314827 163.002897,76.5944674 C164.521841,75.7431447 167.07811,72.8190357 167.98577,71.0423621 C168.522956,69.802391 168.986049,68.765999 169.44914,67.7296071 C169.80109,66.9338049 170.171564,66.1380027 170.579087,65.2681723 L174.154157,65.2681723 L173.302068,67.3409586 C174.598726,66.2675514 176.043575,65.1386236 177.747754,64.8795263 C178.525749,64.7314699 179.507504,64.8054981 179.952073,65.6012979 C180.341071,66.3045667 180.266976,67.007833 180.044692,67.7296071 C179.952073,67.9331839 179.840932,68.1737737 179.766837,68.3773505 C179.637169,68.6364503 179.507504,68.932563 179.396363,69.1916604 C178.507224,71.2274314 177.543994,73.3372329 176.67338,75.2619628 C176.488144,75.7986653 176.414049,76.2798471 176.803045,76.5204393 C176.87714,76.5759598 176.951235,76.5944674 177.0809,76.5574546 C177.93299,76.4279035 179.989121,74.9473425 181.063493,72.5229231 C181.767395,70.9868416 182.304581,69.8394062 182.860291,68.599435 C183.19372,67.8961687 183.527145,67.1373817 183.879095,66.2490437 L182.045251,66.2490437 L182.582436,65.1756365 L184.416281,65.1756365 L187.046647,59.438462 L190.547622,59.438462 L188.028402,65.1756365 L190.695812,65.1756365 L190.195672,66.2490437 L187.509738,66.2490437 C186.898457,67.600056 186.324223,68.8400272 185.76851,70.0614907 C184.953469,71.7826438 184.193999,73.448274 183.434526,75.2434552 C183.39748,75.2989757 183.360431,75.3915115 183.341907,75.4470321 C182.84177,76.5204393 182.415722,78.0750284 182.675056,79.0744074 C182.860291,79.6666328 183.60124,79.7961815 184.249569,79.574097 C184.916421,79.3335072 185.509179,78.981874 186.06489,78.5562127 C187.176312,77.7048875 188.046924,76.5204393 188.824921,75.2804705 C188.843448,75.2434552 188.861967,75.2249476 188.899016,75.2249476 C189.139822,75.1324141 189.936342,75.2434576 189.880771,75.3730039 C189.195393,76.7425238 188.102497,78.1490565 186.824362,79.1669432 C185.527704,80.1848299 184.082855,80.8880963 182.638007,80.8325758 C181.785917,80.8325758 180.841211,80.3328863 180.341071,79.574097 C180.100262,79.2039561 179.952073,78.8708306 179.822407,78.4081563 C179.618647,77.6678747 179.674218,76.7980443 179.822407,76.0022421 C179.155554,76.5389469 178.470178,77.094157 177.7848,77.5938465 C176.895664,78.2786052 175.913909,78.8338177 174.802486,79.0559022 C173.931875,79.2039561 172.838977,78.8708306 172.635216,77.9084668 C172.542597,77.371762 172.542597,76.7980443 172.672262,76.2798471 C172.727833,76.0762703 172.764882,75.9282139 172.820452,75.7616524 C173.024212,75.2989757 173.246497,74.8363015 173.450257,74.3921325 C174.080062,73.0411202 174.672821,71.690108 175.26558,70.3020805 C175.636054,69.4692654 175.988004,68.6364503 176.358476,67.7481123 C176.377003,67.7296023 176.377003,67.6740842 176.377003,67.600056 C176.377003,67.3964791 176.284386,67.1558894 176.210291,67.1003665 C176.025053,66.8967896 175.432294,66.8967896 174.913632,67.3039457 C174.191208,67.8591558 173.561403,68.4513787 173.005693,69.1176322 C171.764605,70.6167008 170.931039,72.2638257 170.208615,73.9664711 C169.467667,75.613596 168.689672,77.2607209 167.893153,78.8708306 L164.429224,78.8708306 C164.744125,78.0380155 165.225743,76.9831159 165.633263,76.0207498 C165.707358,75.8356805 165.799978,75.6506089 165.874072,75.4655397 C165.874072,75.4100192 165.818499,75.4100192 165.818499,75.4655397 C165.355408,75.9282139 164.873793,76.4093982 164.373653,76.8350596 C164.05875,77.1126646 163.725324,77.3902696 163.41042,77.649367 C162.521284,78.2786052 161.613622,78.8523229 160.724486,79.0559022 C160.002062,79.259479 159.261113,79.0003793 158.890642,78.3156205 C158.501643,77.6678747 158.353453,76.6684956 158.742452,75.7986653 C158.742452,75.7616524 158.686879,75.7616524 158.631308,75.7986653 C157.519888,76.927593 156.48256,77.926972 155.148855,78.5747179 C154.889524,78.7227742 154.611669,78.8523229 154.333812,78.9263511 C154.222671,78.9633664 154.093005,79.0003793 153.96334,79.0188869 C152.370302,79.3149996 151.055119,78.2971129 151.518212,76.2428343 C151.592307,75.9282139 151.666402,75.5765808 151.833116,75.2249476 C152.166541,74.4291454 153.148296,72.2268104 154.241195,69.5988141 C153.352057,69.9874626 152.240636,69.9874626 151.666402,69.7838857 C151.629353,69.7838857 151.610831,69.7838857 151.592307,69.8023957 C151.57378,69.8209058 151.57378,69.8209058 151.57378,69.8579187 C151.073641,72.152787 150.036315,74.3551244 148.535896,76.0392622 C147.628236,77.0756541 146.516813,77.9084716 145.294249,78.5192022 C143.664165,79.3150044 141.83032,79.5000736 140.181712,78.4081611 C139.403717,77.8529487 138.940624,76.5944722 138.885053,75.4655445 C137.718062,76.6685004 136.45845,78.0565279 134.939509,78.7042714 C134.235606,78.9818788 133.49466,79.1114275 132.679617,79.0188917 C132.272096,78.9263559 131.957193,78.5747227 131.734911,78.2045819 C131.308866,77.4828102 131.401482,76.7425286 131.605243,76.0392622 C131.679338,75.7801648 131.771957,75.521065 131.883098,75.2804753 C132.383237,74.1700528 132.883377,73.0966456 133.364995,72.0232383 C134.031846,70.5056645 134.6987,68.9695807 135.421124,67.2114147 C135.624884,66.7857533 135.05065,66.4896407 134.643129,66.6932175 C133.809562,67.1373865 133.124186,67.6185684 132.531427,68.3403424 C132.309145,68.5809346 132.142431,68.840032 131.957193,69.1361446 C131.512626,69.6543418 131.160676,70.1910442 130.938391,70.8387901 C129.789922,73.5223069 128.567359,76.0022469 127.530033,78.5747227 L123.89939,78.7412867 L123.899385,78.7412771 Z" id="path39" fill-rule="nonzero"></path>
                <path d="M180.645494,162.521547 C180.043028,160.868647 177.432346,156.764257 176.592546,155.464223 C175.752747,154.14562 174.38351,151.285548 172.868218,149.44693 C171.480723,147.812604 172.612627,147.366877 171.170361,145.955414 C170.29405,145.119677 167.610342,142.649615 167.007878,142.129601 C166.441926,141.591018 164.21463,139.603822 162.936675,138.470937 C161.713488,137.375197 158.701164,135.220856 158.810702,133.846535 C158.865473,132.453642 158.208238,129.77929 157.185874,128.869267 C156.455612,128.237821 154.301345,124.653446 151.836715,122.591964 C150.577016,121.496223 147.948077,118.691866 145.903347,116.203232 C143.968157,113.881744 142.525892,111.745975 142.087735,112.024554 C141.467014,112.47028 144.333288,116.611813 144.62539,117.094682 C144.935752,117.596123 148.258438,123.464843 148.587055,125.043455 C148.897417,126.603494 155.086373,137.300909 156.437355,140.64385 C157.204129,142.556755 161.439641,145.175392 163.210523,148.221185 C164.835353,151.044112 165.291765,150.468383 165.967257,150.486956 C167.482547,150.542671 170.933028,154.368483 171.645033,155.408508 C172.302266,156.467106 177.870503,162.187251 179.294512,163.561572 C179.93349,164.174446 184.315052,171.510345 184.899261,170.971758 C185.501725,170.470317 183.219662,166.885943 182.872788,166.105923 C182.507657,165.325901 181.266215,164.174446 180.645494,162.521547" id="path41"></path>
                <path d="M187.35297,153.809139 C187.000551,153.172661 184.218294,149.262866 183.235231,147.971726 C181.510231,145.753144 183.086844,144.934815 182.19652,143.570932 C181.825555,142.970825 179.618296,140.333988 177.002975,137.678965 C175.667493,136.369637 174.183623,135.096683 172.922332,133.969207 C170.863462,132.150698 169.305399,130.805001 169.064269,131.023222 C168.71185,131.368738 169.898948,132.841731 170.436849,133.460024 C170.937656,134.114688 171.753785,135.260347 172.829591,136.533304 C174.591687,138.624589 172.95943,140.170322 174.647331,141.806981 C174.944106,142.097942 179.562651,147.226136 180.675555,148.189945 C182.382006,149.662938 188.373132,156.736938 188.799744,157.155195 C189.504582,157.791673 190.747325,159.210111 190.951356,158.973704 C191.173937,158.737299 190.580388,157.95534 190.227969,157.373416 C189.912646,156.809679 187.742487,154.463803 187.35297,153.809139" id="path43"></path>
                <polygon id="polygon45" points="8.88888889 125.45509 5.07407407 121 5.38888889 126.784431 0 128.796407 5.61111111 130.233533 5.96296296 136 9.24074074 131.095808 15 132.622754 11.2407407 128.167665 14.4444444 123.317365"></polygon>
                <polygon id="polygon47" points="226.759569 150.419036 228.930622 156 230.366029 150.21508 236 149.918418 231.263158 146.747837 232.716507 141 228.177033 144.763906 223.332536 141.482077 225.431818 147.025958 221 150.771323"></polygon>
                <polygon id="polygon49" points="218.76506 170.209891 219.885542 176 222.39759 170.752714 228 171.548854 223.879518 167.640531 226.391566 162.393245 221.186747 165.107358 217.012048 161 218.060241 166.717732 213 169.44994"></polygon>
                <path d="M150.318815,164.487112 C149.61323,161.560577 152.272747,163.622037 150.572104,158.94694 C149.794149,156.775043 148.292516,154.639959 147.460286,153.774884 C146.609963,152.928213 145.75964,149.191815 145.108328,147.55369 C144.438926,145.915568 144.782673,145.823538 143.335316,141.921488 C142.285982,139.086981 145.271156,140.044088 143.57051,135.608266 C142.484993,132.755352 136.966942,122.411243 136.333723,121.343701 C136.008068,120.773118 134.940642,118.987746 133.638021,116.852662 C132.389675,114.828015 131.358433,112.674524 130.797582,111.75423 C129.657787,109.876827 127.522936,105.69869 126.36505,103.968537 C125.17098,102.238382 123.705531,98.4283626 123.090404,99.0725691 C122.51146,99.6247454 124.863416,105.348978 125.876567,109.011752 C126.889716,112.619307 126.129854,114.110184 125.53282,115.140913 C124.935784,116.171645 124.935784,116.834255 125.53282,118.674845 C126.075579,120.294563 128.065694,129.884034 128.644638,131.908681 C129.241672,133.878114 129.838708,133.988548 130.164363,134.743189 C131.358433,137.74335 133.004801,137.872191 133.855124,138.129875 C136.261355,138.884516 136.442276,142.17917 137.980094,145.14252 C139.427451,147.940215 140.766257,150.406604 142.032695,153.406766 C143.299131,156.443738 149.757966,172.806577 150.843483,175.309779 C151.223413,176.230074 154.317141,176.230074 153.973393,175.309779 C153.159255,173.506 151.404334,168.978151 150.318815,164.487112" id="path51"></path>
                <polygon id="polygon53" points="17.6091677 172.764493 20.0880579 178 21.2279855 172.202899 27 171.496377 21.9517491 168.706522 23.0373945 163 18.8395657 167.039855 13.6827503 164.304348 16.1435464 169.576087 12 173.471014"></polygon>
                <path d="M115.98159,65.14966 C116,65.07483 116,65.07483 116,65.0374162 C115.98159,65 115.889559,65 115.797524,65 C114.509035,65 113.073292,66.1785721 112.042501,67.319728 C111.876839,67.4693881 111.729583,67.6377562 111.61914,67.8061243 C110.385874,69.3588441 108.379513,72.2772098 108.048188,74.409864 C107.845712,75.5323118 108.305885,76 108.968537,76 C110.257023,76 112.079316,73.605442 113.110105,71.5289121 C114.12249,69.2840141 114.674698,67.9931982 115.981595,65.14966" id="path55"></path>
                <path d="M71.8837917,133.017092 C71.4472777,132.644885 65.9544847,138.432701 62.3532476,142.471146 C61.0800853,143.848312 60.2798096,145.169645 59.7705433,145.802396 C59.7705433,145.802396 58.1699943,148.519506 57.3515323,149.636128 C56.4785043,150.771358 54.3505026,154.009559 53.4410996,155.405333 C53.1137129,155.889201 52.2770623,157.899118 50.6401383,160.039307 C49.8398626,161.062877 49.0032119,162.440043 47.4208516,164.580232 C45.2928476,167.390394 43.6741099,169.716686 44.0560602,169.995841 C44.2561286,170.144724 47.4026629,166.273772 50.7310793,162.067836 C52.1315599,160.318465 53.6411679,158.49465 54.8961439,156.80111 C55.5145376,155.963643 56.9513956,154.567868 57.4242846,153.842065 C58.2427466,152.576562 59.1521496,151.646045 59.4977226,151.329668 C61.3710923,149.7664 62.4078136,149.636128 63.0080186,148.780052 C63.2808393,148.352014 66.973015,142.582807 68.3007433,140.219294 C69.5920967,138.004663 72.6295037,133.687063 71.8837917,133.017092" id="path57"></path>
                <polygon id="polygon59" points="8.77272727 148.789149 4 151.877928 9.63397129 152.247842 11.0155502 158 13.222488 152.395808 19 152.821208 14.5861244 149.066584 16.7392344 143.554871 11.8588517 146.77312 7.37320574 143"></polygon>
                <path d="M96.2756486,120.14681 C94.7385044,121.669138 91.5901341,127.134838 90.3863458,127.740102 C87.7194904,129.060674 86.5157022,132.215373 85.7193494,133.462582 C85.1452347,134.397988 84.4229613,135.883629 83.1265733,137.754441 C81.9968644,139.386815 80.7004788,141.807865 80.2560025,142.669904 C79.7744877,143.513602 79.6078084,144.338962 80.4782406,144.338962 C81.3486704,144.338962 80.6634379,145.732898 79.6078084,147.310249 C78.9966529,148.227313 77.5150676,152.592538 77.0705913,153.766379 C76.5149971,155.252023 76.570556,157.122835 76.4038792,157.746438 C76.1816411,158.333357 73.3481088,164.404321 72.5887945,165.743235 C72.1443205,166.623617 72.2554384,166.95376 72.0887592,167.412293 C71.8294826,168.017554 72.181359,168.182626 72.5887945,167.779119 C73.1258706,167.210539 76.1816411,162.570193 77.1261526,162.038297 C78.0336233,161.451375 78.8484965,160.607677 78.9966529,158.608476 C79.1448117,156.609278 80.4226793,156.07738 81.4042317,154.903539 C82.4043023,153.748037 83.7377288,152.189028 84.4600022,150.556656 C85.1081962,148.924282 85.960108,150.18983 87.5157727,147.677073 C89.0714374,145.18266 92.5346432,138.983308 93.312478,137.772783 C94.0903103,136.5806 93.5532342,134.819837 93.4421163,133.425898 C93.3865574,132.655564 93.4976752,130.803095 93.9421516,128.822238 C94.3681074,127.061476 95.2014987,125.264029 95.645975,124.126869 C95.9793311,123.411559 97.053481,121.155581 96.997922,120.256859 C96.997922,120.091787 96.6275251,119.83501 96.2756486,120.14681" id="path61"></path>
                <path d="M92.9927709,65.0561243 C92.9927709,65 92.8822131,65 92.7900801,65 C91.3159629,65 89.6760066,66.5340141 88.6441253,67.8061243 C87.6859476,68.9659859 86.2671093,70.9863939 85.5300519,72.819728 C85.308934,73.3622438 85.1430949,73.9234701 85.0509619,74.409864 C84.921977,75.064626 85.0509619,75.494898 85.2905069,75.7193881 C85.4379188,75.9064619 85.6958886,76 85.9354336,76 C87.2437141,76 89.049507,73.605442 90.0813883,71.5289121 C91.113272,69.265306 91.6844928,67.9931982 92.9559191,65.1309543 C92.9927709,65.0935381 93.011198,65.0935381 92.9927709,65.0561243" id="path63"></path>
                <path d="M142.586256,78.8808921 C142.75897,78.9936509 142.931682,79.0124444 143.104393,78.9936509 C144.365197,78.824514 145.798714,75.9867865 147.094059,73.3181959 C148.544848,70.2925404 149.719294,66.5151683 148.475763,66.0829318 C148.130337,65.9325885 147.750369,65.988969 147.3704,66.2332751 C147.284045,66.2896533 147.21496,66.3272403 147.128603,66.402412 C147.094059,66.402412 147.094059,66.421208 147.076789,66.4399966 C146.627734,66.815855 146.195953,67.3984348 145.712357,68.0561863 C145.056049,69.0146245 144.417012,70.2361623 143.847059,71.4389066 C143.190751,72.7544096 142.620799,74.2390494 142.292645,75.5357589 C141.878134,77.1519462 141.84359,78.5238273 142.586256,78.8808921" id="path65"></path>
            </g>
        </g>
    </g>
</svg>