<?xml version="1.0" encoding="UTF-8"?>
<svg width="85px" height="30px" viewBox="0 0 85 30" version="1.1" xmlns="http://www.w3.org/2000/svg" xmlns:xlink="http://www.w3.org/1999/xlink">
    <!-- Generator: Sketch 53.2 (72643) - https://sketchapp.com -->
    <title>Sony-Logo</title>
    <desc>Created with Sketch.</desc>
    <g id="Page-1" stroke="none" stroke-width="1" fill="none" fill-rule="evenodd">
        <g id="Home" transform="translate(-120.000000, -766.000000)" fill="#FFFFFF" fill-rule="nonzero">
            <g id="Client-Logos" transform="translate(120.000000, 721.000000)">
                <g id="Sony-Logo" transform="translate(0.000000, 45.000000)">
                    <g id="g70">
                        <g id="g40">
                            <g id="g28" transform="translate(0.000000, 0.587234)">
                                <path d="M14.6351111,0.704680851 L16.4363556,0.704680851 L16.4363556,5.52 L14.7476889,5.52 C14.7476889,4.69787234 13.5093333,2.23148936 8.6684889,2.11404255 C3.60248889,1.87914894 3.15217778,4.46297872 4.84084444,5.05021277 C7.0924,5.75489362 11.3703556,5.63744681 14.0722222,6.45957447 C17.5621333,7.63404255 18.5753333,11.6272341 15.5357333,13.7412766 C12.7212889,15.6204255 7.88044441,15.3855319 4.39053333,14.2110638 C3.71506667,13.9761702 2.70186667,13.3889362 2.81444444,14.2110638 L2.81444444,14.6808511 L0.675466667,14.6808511 L0.675466667,9.39574469 L2.58928889,9.39574469 C2.58928889,9.74808508 2.36413333,10.9225532 4.50311111,12.0970213 C6.97982222,13.506383 11.3703556,13.506383 13.1716,12.5668085 C14.1848,11.9795745 14.4099556,10.1004255 12.4961333,9.74808508 C10.4697333,9.51319146 7.20497778,9.27829785 4.84084444,8.69106385 C3.15217778,8.33872338 1.80124444,7.75148938 1.0132,6.69446808 C0.450311111,5.87234042 -0.562888889,2.70127659 2.81444444,1.05702128 C7.0924,-0.939574469 12.9464444,0.469787234 14.0722222,1.4093617 C14.4099556,1.64425532 14.8602667,1.52680851 14.6351111,0.704680851 Z" id="path26"></path>
                            </g>
                            <path d="M30.2834222,0.469787234 C35.0116889,0.469787234 40.0776889,2.81872341 39.9651111,8.33872338 C39.8525333,13.7412766 34.8991111,15.9727659 30.2834222,15.9727659 C25.6677333,15.9727659 20.264,13.8587234 20.1514222,8.33872338 C20.0388444,2.81872341 25.5551556,0.469787234 30.2834222,0.469787234 Z M35.7997333,8.22127662 C35.7997333,4.58042553 33.3230222,2.58382978 30.1708444,2.58382978 C27.0186667,2.58382978 24.5419556,4.58042553 24.5419556,8.22127662 C24.5419556,11.8621277 27.0186667,13.9761702 30.1708444,13.8587234 C33.2104444,13.7412766 35.7997333,11.7446808 35.7997333,8.22127662 Z" id="path30"></path>
                            <g id="g34" transform="translate(64.169333, 1.174468)">
                                <path d="M17.4495556,2.46638298 C17.1118222,2.81872341 12.3835556,8.69106385 12.3835556,8.69106385 L12.3835556,11.8621277 C12.3835556,12.2144681 12.3835556,12.2144681 12.7212889,12.2144681 C13.0590222,12.2144681 14.6351111,12.2144681 14.6351111,12.2144681 L14.6351111,13.9761702 L5.74146667,13.9761702 L5.74146667,12.2144681 C5.74146667,12.2144681 7.54271111,12.2144681 7.88044441,12.2144681 C8.21817779,12.2144681 8.33075559,12.0970213 8.33075559,11.8621277 L8.33075559,8.69106385 C8.33075559,8.69106385 3.15217778,2.70127659 3.0396,2.58382978 C2.81444444,2.34893617 2.36413333,1.87914894 1.46351111,1.87914894 L0,1.87914894 L0,0.117446808 L9.00622221,0.117446808 L9.00622221,1.87914894 L8.1056,1.87914894 C7.88044441,1.87914894 7.6552889,2.34893617 7.99302221,2.70127659 C8.33075559,3.05361702 11.0326222,6.45957447 11.0326222,6.45957447 L14.0722222,2.70127659 C14.2973778,2.46638298 14.1848,1.87914894 13.8470667,1.87914894 C13.1716,1.87914894 12.7212889,1.87914894 12.7212889,1.87914894 L12.7212889,0.117446808 L20.1514222,0.117446808 L20.1514222,1.87914894 L18.4627556,1.87914894 C17.8998667,1.87914894 17.5621333,2.34893617 17.4495556,2.46638298 Z" id="path32"></path>
                            </g>
                            <g id="g38" transform="translate(41.653778, 0.587234)">
                                <path d="M5.51631111,11.8621277 C5.51631111,12.8017022 5.96662222,12.6842553 6.41693333,12.6842553 L8.21817779,12.6842553 L8.21817779,14.4459575 L0.337733333,14.4459575 L0.337733333,12.6842553 L2.0264,12.6842553 C2.70186667,12.6842553 2.81444444,12.2144681 2.81444444,11.8621277 L2.81444444,3.52340425 C2.81444444,2.93617022 2.81444444,2.46638298 1.91382222,2.46638298 L0.225155556,2.46638298 L0.225155556,0.587234042 L6.86724444,0.587234042 L15.7608889,9.16085108 C15.7608889,9.16085108 15.7608889,4.34553192 15.7608889,3.28851064 C15.7608889,2.34893617 15.3105778,2.34893617 14.8602667,2.23148936 L13.1716,2.23148936 L13.1716,0.469787234 L20.7143111,0.469787234 L20.7143111,2.23148936 L18.9130667,2.23148936 C18.4627556,2.23148936 18.3501778,2.70127659 18.2376,3.05361702 L18.2376,14.3285106 L15.7608889,14.3285106 L5.29115556,4.81531915 C5.51631111,4.93276595 5.51631111,10.9225532 5.51631111,11.8621277 Z" id="path36"></path>
                            </g>
                        </g>
                        <path d="M0.450311111,28.6570213 L0.450311111,27.6 L1.35093333,27.6 C1.68866667,27.6 1.80124444,27.4825532 1.80124444,27.1302128 L1.80124444,21.8451064 C1.80124444,21.4927659 1.68866667,21.3753192 1.35093333,21.3753192 L0.450311111,21.3753192 L0.450311111,20.2008511 L7.43013333,20.2008511 C9.79426669,20.2008511 10.5823111,20.7880851 10.5823111,22.5497872 C10.5823111,24.3114894 9.5691111,25.0161702 6.86724444,25.0161702 L3.94022222,25.0161702 L3.94022222,27.1302128 C3.94022222,27.4825532 4.0528,27.6 4.39053333,27.6 L5.29115556,27.6 L5.29115556,28.6570213 L0.450311111,28.6570213 Z M3.94022222,23.8417022 L6.52951111,23.8417022 C7.6552889,23.8417022 8.21817779,23.4893617 8.21817779,22.5497872 C8.21817779,21.6102128 7.6552889,21.2578723 6.64208889,21.2578723 L3.82764444,21.2578723 L3.94022222,23.8417022 Z" id="path42"></path>
                        <g id="g46" transform="translate(11.257778, 19.965958)">
                            <path d="M3.82764444,7.16425532 C3.82764444,7.51659575 3.94022222,7.63404255 4.27795556,7.63404255 L5.17857778,7.63404255 L5.17857778,8.69106385 L0.337733333,8.69106385 L0.337733333,7.63404255 L1.23835556,7.63404255 C1.57608889,7.63404255 1.68866667,7.51659575 1.68866667,7.16425532 L1.68866667,1.76170213 C1.68866667,1.4093617 1.57608889,1.29191489 1.23835556,1.29191489 L0.337733333,1.29191489 L0.337733333,0.234893617 L5.17857778,0.234893617 L5.17857778,1.29191489 L4.27795556,1.29191489 C3.94022222,1.29191489 3.82764444,1.52680851 3.82764444,1.87914894 L3.82764444,7.16425532 Z" id="path44"></path>
                        </g>
                        <g id="g50" transform="translate(16.886667, 19.378723)">
                            <path d="M10.2445778,6.69446808 C10.0194222,7.986383 8.6684889,9.74808508 5.96662222,9.74808508 C3.48991111,9.74808508 0.450311111,8.69106385 0.337733333,5.16765958 C0.337733333,1.76170213 3.26475556,0.352340425 5.62888889,0.352340425 C7.0924,0.352340425 8.33075559,0.939574469 8.6684889,1.29191489 C8.89364441,1.52680851 9.1188,1.52680851 9.00622221,0.822127662 L10.0194222,0.822127662 L10.0194222,3.75829787 L9.1188,3.75829787 C9.00622221,2.23148936 7.31755556,1.29191489 5.51631111,1.52680851 C3.60248889,1.76170213 2.58928889,3.28851064 2.58928889,5.16765958 C2.58928889,7.28170213 4.27795556,8.69106385 5.96662222,8.69106385 C7.0924,8.69106385 8.78106669,8.33872338 9.1188,6.69446808 L10.2445778,6.69446808 Z" id="path48"></path>
                        </g>
                        <g id="g54" transform="translate(28.144444, 19.965958)">
                            <path d="M0.337733333,3.40595745 L0.337733333,0.117446808 L10.0194222,0.117446808 L10.0194222,3.40595745 L9.00622221,3.40595745 C9.00622221,1.05702128 8.78106669,1.29191489 8.1056,1.29191489 L6.19177778,1.29191489 L6.19177778,7.16425532 C6.19177778,7.51659575 6.30435556,7.75148938 6.64208889,7.75148938 L7.54271111,7.75148938 L7.54271111,8.80851062 L2.70186667,8.80851062 L2.70186667,7.75148938 L3.60248889,7.75148938 C3.94022222,7.75148938 4.0528,7.51659575 4.0528,7.16425532 L4.0528,1.29191489 L2.13897778,1.29191489 C1.35093333,1.4093617 1.23835556,1.17446808 1.23835556,3.40595745 L0.337733333,3.40595745 Z" id="path52"></path>
                        </g>
                        <g id="g58" transform="translate(39.402222, 19.965958)">
                            <path d="M5.40373333,9.16085108 C3.48991111,9.16085108 1.35093333,8.69106385 1.35093333,6.10723405 L1.35093333,1.87914894 C1.35093333,1.52680851 1.23835556,1.29191489 0.900622221,1.29191489 L0,1.29191489 L0,0.234893617 L4.84084444,0.234893617 L4.84084444,1.29191489 L3.94022222,1.29191489 C3.60248889,1.29191489 3.48991111,1.52680851 3.48991111,1.87914894 L3.48991111,6.22468085 C3.48991111,6.45957447 3.37733333,8.22127662 5.40373333,8.22127662 C7.6552889,8.22127662 7.88044441,7.16425532 7.88044441,6.22468085 L7.88044441,1.87914894 C7.88044441,1.52680851 7.76786669,1.29191489 7.43013333,1.29191489 L6.52951111,1.29191489 L6.52951111,0.234893617 L10.5823111,0.234893617 L10.5823111,1.29191489 L9.6816889,1.29191489 C9.45653331,1.29191489 9.23137779,1.52680851 9.23137779,2.23148936 L9.23137779,6.10723405 C9.23137779,8.573617 7.31755556,9.16085108 5.40373333,9.16085108 Z" id="path56"></path>
                        </g>
                        <path d="M58.9907556,24.546383 C59.7788,24.7812766 60.3416889,24.8987234 60.4542667,25.9557447 L60.4542667,27.1302128 C60.4542667,27.3651064 60.4542667,27.7174468 60.9045778,27.7174468 C61.3548889,27.7174468 61.2423111,27.2476595 61.2423111,26.7778723 L61.2423111,26.3080851 L62.1429333,26.3080851 L62.1429333,26.8953192 C62.1429333,28.4221277 61.8052,28.8919149 60.5668444,28.8919149 C59.4410667,28.8919149 58.4278667,28.5395745 58.4278667,26.8953192 L58.4278667,25.9557447 C58.4278667,25.3685106 57.9775556,25.0161702 56.9643556,25.0161702 L54.6002222,25.0161702 L54.6002222,27.1302128 C54.6002222,27.4825532 54.7128,27.6 55.0505333,27.6 L55.9511556,27.6 L55.9511556,28.7744681 L51.1103111,28.7744681 L51.1103111,27.6 L52.0109333,27.6 C52.3486667,27.6 52.4612444,27.4825532 52.4612444,27.1302128 L52.4612444,21.8451064 C52.4612444,21.4927659 52.3486667,21.2578723 52.0109333,21.2578723 L51.1103111,21.2578723 L51.1103111,20.2008511 L57.8649778,20.2008511 C60.2291111,20.2008511 61.0171556,21.0229787 61.0171556,22.6672341 C61.0171556,23.9591489 60.0039556,24.4289362 58.9907556,24.546383 Z M54.6002222,23.8417022 L57.1895111,23.8417022 C58.2027111,23.8417022 58.7656,23.3719149 58.7656,22.5497872 C58.7656,21.7276595 58.0901333,21.2578723 57.3020889,21.2578723 L54.6002222,21.2578723 L54.6002222,23.8417022 Z" id="path60"></path>
                        <g id="g64" transform="translate(63.043556, 19.965958)">
                            <path d="M3.60248889,7.63404255 L7.99302221,7.63404255 C8.78106669,7.51659575 9.00622221,7.16425532 9.00622221,5.52 L9.90684441,5.52 L9.90684441,8.80851062 L0.112577778,8.80851062 L0.112577778,7.63404255 L1.0132,7.63404255 C1.35093333,7.63404255 1.46351111,7.51659575 1.46351111,7.16425532 L1.46351111,1.87914894 C1.46351111,1.52680851 1.35093333,1.29191489 1.0132,1.29191489 L0.112577778,1.29191489 L0.112577778,0.117446808 L9.90684441,0.117446808 L9.90684441,3.40595745 L9.00622221,3.40595745 C9.00622221,1.76170213 8.89364441,1.29191489 7.99302221,1.17446808 L3.60248889,1.17446808 L3.60248889,3.75829787 L5.62888889,3.75829787 C5.85404444,3.75829787 6.0792,3.64085106 6.0792,3.17106383 L6.0792,2.23148936 L6.97982222,2.23148936 L6.97982222,6.22468085 L6.0792,6.22468085 L6.0792,5.28510638 C6.0792,4.81531915 5.85404444,4.69787234 5.62888889,4.69787234 L3.60248889,4.69787234 L3.60248889,7.63404255 Z" id="path62"></path>
                        </g>
                        <g id="g68" transform="translate(74.301333, 19.378723)">
                            <path d="M8.21817779,0.822127662 L9.1188,0.822127662 L9.1188,3.75829787 L8.21817779,3.75829787 C8.21817779,3.28851064 7.54271111,1.64425532 4.95342222,1.52680851 C2.25155556,1.4093617 1.91382222,2.93617022 2.92702222,3.40595745 C4.0528,3.87574468 6.30435556,3.75829787 7.76786669,4.34553192 C9.6816889,5.05021277 10.132,7.51659575 8.5559111,8.80851062 C7.0924,9.98297869 4.50311111,9.86553192 2.70186667,9.04340423 C2.36413333,8.92595746 1.80124444,8.573617 1.91382222,9.04340423 L1.91382222,9.27829785 L0.788044441,9.27829785 L0.788044441,6.10723405 L1.80124444,6.10723405 C1.80124444,6.34212766 1.68866667,7.04680851 2.81444444,7.75148938 C4.39053333,8.80851062 5.96662222,8.92595746 7.31755556,8.10382977 C7.88044441,7.75148938 8.21817779,6.57702128 6.97982222,6.34212766 C5.96662222,6.22468085 4.27795556,6.10723405 2.92702222,5.75489362 C2.0264,5.52 1.35093333,5.16765958 0.900622221,4.58042553 C0.562888889,3.99319149 1.55431223e-14,2.23148936 1.91382222,1.17446808 C4.16537778,6.69464484e-14 6.64208889,0.704680851 7.76786669,1.29191489 C8.1056,1.52680851 8.33075559,1.52680851 8.21817779,0.822127662 Z" id="path66"></path>
                        </g>
                    </g>
                </g>
            </g>
        </g>
    </g>
</svg>