<?xml version="1.0" encoding="UTF-8"?>
<svg width="143px" height="110px" viewBox="0 0 143 110" version="1.1" xmlns="http://www.w3.org/2000/svg" xmlns:xlink="http://www.w3.org/1999/xlink">
    <!-- Generator: Sketch 53.2 (72643) - https://sketchapp.com -->
    <title>The-Distance-Logo</title>
    <desc>Created with Sketch.</desc>
    <g id="Page-1" stroke="none" stroke-width="1" fill="none" fill-rule="evenodd">
        <g id="Home" transform="translate(-397.000000, -721.000000)" fill-rule="nonzero">
            <g id="Client-Logos" transform="translate(120.000000, 721.000000)">
                <g id="The-Distance-Logo" transform="translate(277.000000, 0.000000)">
                    <path d="M11.5704974,96.9902913 L6.30196968,96.9902913 L6.30196968,109.883495 L5.2685277,109.883495 L5.2685277,96.9902913 L0,96.9902913 L0,96.0970874 L11.5704974,96.0970874 L11.5704974,96.9902913 Z M24.9444523,96.0970874 L24.9444523,109.883495 L23.9110103,109.883495 L23.9110103,103.281553 L14.8329318,103.281553 L14.8329318,109.883495 L13.7994899,109.883495 L13.7994899,96.0970874 L14.8329318,96.0970874 L14.8329318,102.38835 L23.9110103,102.38835 L23.9110103,96.0970874 L24.9444523,96.0970874 Z M38.2778801,108.990291 L38.2778801,109.883495 L28.6932124,109.883495 L28.6932124,96.0970874 L38.095508,96.0970874 L38.095508,96.9902913 L29.7266544,96.9902913 L29.7266544,102.407767 L37.0418025,102.407767 L37.0418025,103.262136 L29.7266544,103.262136 L29.7266544,108.990291 L38.2778801,108.990291 Z M46.3022531,109.883495 L46.3022531,96.0970874 L51.0844552,96.0970874 C52.2192207,96.0970874 53.2155028,96.2783155 54.0733314,96.6407767 C54.9311601,97.0032379 55.6437551,97.4951426 56.2111379,98.1165049 C56.7785206,98.7378671 57.2040513,99.4660152 57.4877427,100.300971 C57.771434,101.135927 57.9132776,102.025885 57.9132776,102.970874 C57.9132776,104.019423 57.7545479,104.967633 57.4370837,105.815534 C57.1196196,106.663434 56.6636939,107.388346 56.0692929,107.990291 C55.4748919,108.592236 54.7555425,109.058251 53.9112229,109.38835 C53.0669033,109.718448 52.1246569,109.883495 51.0844552,109.883495 L46.3022531,109.883495 Z M56.8798356,102.970874 C56.8798356,102.103556 56.751501,101.304211 56.4948278,100.572816 C56.2381547,99.8414205 55.8632824,99.2103586 55.3701998,98.6796117 C54.8771172,98.1488647 54.2725934,97.7346292 53.5566105,97.4368932 C52.8406275,97.1391572 52.016584,96.9902913 51.0844552,96.9902913 L47.3356951,96.9902913 L47.3356951,108.990291 L51.0844552,108.990291 C52.0300931,108.990291 52.8642683,108.838189 53.5870058,108.533981 C54.3097433,108.229772 54.9142671,107.805828 55.4005952,107.262136 C55.8869232,106.718444 56.2550411,106.08091 56.5049596,105.349515 C56.7548782,104.61812 56.8798356,103.825247 56.8798356,102.970874 Z M60.7501771,109.883495 L60.7501771,96.0970874 L61.7836191,96.0970874 L61.7836191,109.883495 L60.7501771,109.883495 Z M73.9214964,98.3883495 C72.9893678,97.3915807 71.6722486,96.8932039 69.9701006,96.8932039 C68.5651527,96.8932039 67.5418527,97.1488647 66.90017,97.6601942 C66.2584874,98.1715237 65.9376506,98.8608374 65.9376506,99.7281553 C65.9376506,100.168287 66.0187042,100.533979 66.1808134,100.825243 C66.3429226,101.116506 66.5962146,101.365695 66.9406972,101.572816 C67.2851797,101.779936 67.720842,101.954692 68.2476973,102.097087 C68.7745526,102.239483 69.4094716,102.388349 70.1524727,102.543689 C70.9224921,102.69903 71.6215782,102.870549 72.249752,103.058252 C72.8779258,103.245956 73.4115276,103.482199 73.8505739,103.76699 C74.2896202,104.051782 74.627343,104.401292 74.8637523,104.815534 C75.1001617,105.229775 75.2183647,105.741097 75.2183647,106.349515 C75.2183647,106.957932 75.0934076,107.488671 74.8434887,107.941748 C74.5935699,108.394824 74.2423383,108.773461 73.7897832,109.07767 C73.3372281,109.381879 72.7968715,109.61165 72.1686977,109.76699 C71.540524,109.922331 70.8414378,110 70.0714184,110 C67.8289057,110 65.9309041,109.313923 64.3773558,107.941748 L64.9244722,107.145631 C65.5323824,107.754049 66.2753721,108.236244 67.1534646,108.592233 C68.0315572,108.948222 69.0177072,109.126214 70.1119456,109.126214 C71.3682931,109.126214 72.3510661,108.906151 73.0602947,108.466019 C73.7695234,108.025888 74.1241321,107.359228 74.1241321,106.466019 C74.1241321,106.012943 74.0295696,105.627833 73.8404421,105.31068 C73.6513146,104.993526 73.3710049,104.718448 72.999504,104.485437 C72.6280032,104.252426 72.1585685,104.051781 71.5911861,103.883495 C71.0238036,103.715209 70.3618669,103.553399 69.6053564,103.398058 C68.835337,103.242718 68.1565144,103.077671 67.5688678,102.902913 C66.9812212,102.728155 66.4881458,102.508092 66.0896273,102.242718 C65.6911088,101.977345 65.3905355,101.65696 65.1878985,101.281553 C64.9852616,100.906147 64.883945,100.43366 64.883945,99.8640777 C64.883945,99.2427154 65.0089022,98.6925589 65.258821,98.2135922 C65.5087398,97.7346256 65.8565938,97.3300989 66.3023948,97 C66.7481958,96.6699011 67.2817976,96.420713 67.9032167,96.2524272 C68.5246357,96.0841414 69.2135901,96 69.9701006,96 C70.9022292,96 71.7330272,96.1326845 72.4625195,96.3980583 C73.1920117,96.663432 73.8539484,97.0679587 74.4483492,97.6116505 L73.9214964,98.3883495 Z M87.8628312,96.9902913 L82.5943035,96.9902913 L82.5943035,109.883495 L81.5608616,109.883495 L81.5608616,96.9902913 L76.2923339,96.9902913 L76.2923339,96.0970874 L87.8628312,96.0970874 L87.8628312,96.9902913 Z M94.6105994,96.0970874 L95.5021964,96.0970874 L101.581267,109.883495 L100.487034,109.883495 L98.4809409,105.339806 L91.6115913,105.339806 L89.6054981,109.883495 L88.4910018,109.883495 L94.6105994,96.0970874 Z M98.197251,104.524272 L95.0563979,97.3009709 L91.8547541,104.524272 L98.197251,104.524272 Z M104.803174,97.961165 L104.803174,109.883495 L103.769732,109.883495 L103.769732,96.0970874 L104.560011,96.0970874 L114.651268,108.23301 L114.651268,96.0970874 L115.68471,96.0970874 L115.68471,109.883495 L114.732323,109.883495 L104.803174,97.961165 Z M118.440555,102.893204 C118.440555,102.064721 118.592531,101.239486 118.896486,100.417476 C119.200441,99.5954654 119.642858,98.8608447 120.223749,98.2135922 C120.804641,97.5663398 121.517236,97.0388368 122.361556,96.631068 C123.205875,96.2232992 124.168385,96.0194175 125.249114,96.0194175 C126.53248,96.0194175 127.626702,96.3009678 128.531812,96.8640777 C129.436923,97.4271875 130.112368,98.1488629 130.558169,99.0291262 L129.707099,99.4951456 C129.450426,99.016179 129.149853,98.6148883 128.805371,98.2912621 C128.460888,97.9676359 128.089393,97.7055024 127.690874,97.5048544 C127.292356,97.3042063 126.876956,97.1585765 126.444665,97.0679612 C126.012373,96.9773459 125.586843,96.9320388 125.16806,96.9320388 C124.24944,96.9320388 123.438906,97.1100303 122.736432,97.4660194 C122.033958,97.8220085 121.439566,98.284787 120.953238,98.8543689 C120.46691,99.4239508 120.098792,100.067958 119.848873,100.786408 C119.598955,101.504858 119.473997,102.226533 119.473997,102.951456 C119.473997,103.766995 119.622595,104.543686 119.919796,105.281553 C120.216997,106.019421 120.622264,106.6699 121.13561,107.23301 C121.648957,107.79612 122.256857,108.245953 122.959331,108.582524 C123.661805,108.919095 124.418304,109.087379 125.228851,109.087379 C125.661142,109.087379 126.106936,109.0356 126.566246,108.932039 C127.025556,108.828478 127.464595,108.666667 127.883378,108.446602 C128.302161,108.226536 128.693919,107.944985 129.058665,107.601942 C129.423411,107.258898 129.727362,106.854371 129.970526,106.38835 L130.862123,106.796117 C130.618959,107.313919 130.287991,107.773461 129.869208,108.174757 C129.450425,108.576054 128.984368,108.91262 128.471022,109.184466 C127.957675,109.456312 127.413942,109.660194 126.839804,109.796117 C126.265667,109.932039 125.70167,110 125.147797,110 C124.161631,110 123.259911,109.792882 122.44261,109.378641 C121.625309,108.964399 120.919468,108.423951 120.325067,107.757282 C119.730667,107.090612 119.267986,106.333337 118.937013,105.485437 C118.60604,104.637536 118.440555,103.773467 118.440555,102.893204 Z M143,108.990291 L143,109.883495 L133.415332,109.883495 L133.415332,96.0970874 L142.817628,96.0970874 L142.817628,96.9902913 L134.448774,96.9902913 L134.448774,102.407767 L141.763922,102.407767 L141.763922,103.262136 L134.448774,103.262136 L134.448774,108.990291 L143,108.990291 Z" id="THE-DISTANCE" fill="#FFFFFF"></path>
                    <g id="Group-4" transform="translate(34.000000, 0.000000)">
                        <polygon id="Triangle" fill="#151515" points="41 0 82 81 0 81"></polygon>
                        <polygon id="Triangle" fill="#535353" points="45.4496124 8.79069767 82 81 8.89922481 81"></polygon>
                        <polygon id="Triangle" fill="#AEAEAE" points="38.7751938 21.9767442 68.6511628 81 8.89922481 81"></polygon>
                        <polygon id="Triangle" fill="#E8E8E8" points="49.5529203 43.6510016 68.6511628 81 9.08967972 81"></polygon>
                    </g>
                </g>
            </g>
        </g>
    </g>
</svg>