<?xml version="1.0" encoding="UTF-8"?>
<svg width="135px" height="50px" viewBox="0 0 135 50" version="1.1" xmlns="http://www.w3.org/2000/svg" xmlns:xlink="http://www.w3.org/1999/xlink">
    <!-- Generator: Sketch 53.2 (72643) - https://sketchapp.com -->
    <title>WQA-Logo</title>
    <desc>Created with Sketch.</desc>
    <g id="Page-1" stroke="none" stroke-width="1" fill="none" fill-rule="evenodd">
        <g id="Home" transform="translate(-569.000000, -762.000000)" fill="#FFFFFF" fill-rule="nonzero">
            <g id="Client-Logos" transform="translate(120.000000, 721.000000)">
                <g id="WQA-Logo" transform="translate(449.000000, 41.000000)">
                    <path d="M10.7999999,38.4196892 L0,0.699481841 L7.00961536,0.699481841 C7.49423321,2.5129624 8.31634038,5.58287992 9.47596152,9.9093264 C10.6355827,14.2357729 11.6307651,17.9965298 12.4615385,21.1917099 C13.2923118,24.38689 14.0798039,27.4870317 14.8240385,30.4922281 C15.637504,27.435218 16.5288413,24.304852 17.4980769,21.1010363 C18.4673125,17.8972206 19.6398969,14.149417 21.0158654,9.85751294 C22.3918338,5.56560894 23.356728,2.5129624 23.9105769,0.699481841 L30.1932692,0.699481841 L36.9432692,21.7875648 L39.539423,30.6217617 C40.2490419,27.5992941 41.0062459,24.4732459 41.8110577,21.2435233 C42.6158694,18.0138008 43.5591292,14.2573617 44.6408653,9.97409329 C45.7226015,5.69082488 46.5057667,2.59931861 46.9903846,0.699481841 L53.7923076,0.699481841 L43.251923,38.4196892 L35.6971153,38.4196892 L26.8701923,9.79274613 L18.2509615,38.4196892 L10.7999999,38.4196892 Z M75.7557694,33.3937825 C79.6154036,33.3937825 82.5490281,32.1804958 84.5567306,29.7538861 C86.5644331,27.3272764 87.5682689,23.8687617 87.5682689,19.3782384 C87.5682689,15.025885 86.5644331,11.6450898 84.5567306,9.23575128 C82.5490281,6.82641285 79.6500189,5.62176167 75.8596154,5.62176167 C72.0345965,5.62176167 69.0966448,6.82641285 67.045673,9.23575128 C64.9947012,11.6450898 63.9692307,15.025885 63.9692307,19.3782384 C63.9692307,23.8860329 64.964413,27.3488653 66.9548076,29.7668394 C68.9452021,32.1848135 71.8788264,33.3937825 75.7557694,33.3937825 Z M86.8413464,50 L85.4653841,48.5233163 C84.56538,47.5388553 83.4014494,46.1226346 81.9735574,44.2746115 C80.5456661,42.4265885 79.312505,40.6390415 78.274038,38.9119172 C77.5817272,38.9810022 76.7942349,39.0155441 75.9115387,39.0155441 C70.0095858,39.0155441 65.35819,37.2409505 61.9572115,33.6917099 C58.5562329,30.1424694 56.8557691,25.3713599 56.8557691,19.3782384 C56.8557691,13.540558 58.5648867,8.85148578 61.983173,5.3108808 C65.4014593,1.77027589 70.0701626,0 75.989423,0 C81.7182977,0 86.274502,1.76595813 89.6581732,5.29792744 C93.0418436,8.82989675 94.733654,13.5232868 94.733654,19.3782384 C94.733654,23.8342192 93.7990475,27.6424713 91.9298077,30.8031089 C90.0605672,33.9637465 87.4038632,36.2262454 83.959615,37.5906737 C85.6038541,40.2677164 87.7672943,43.1087934 90.4499995,46.1139898 L86.8413464,50 Z M111.089423,23.0829016 L121.214423,23.0829016 C119.224028,17.1934075 117.553853,12.2970834 116.203846,8.39378237 C115.07884,11.6580475 113.37405,16.5543715 111.089423,23.0829016 Z M97.7971149,38.4196892 L112.984615,0.699481841 L119.682692,0.699481841 L135,38.4196892 L127.549039,38.4196892 L123.888461,29.222798 L108.623077,29.222798 L105.040384,38.4196892 L97.7971149,38.4196892 Z" id="WQA"></path>
                </g>
            </g>
        </g>
    </g>
</svg>