<?xml version="1.0" encoding="UTF-8"?>
<svg width="1440px" height="4173px" viewBox="0 0 1440 4173" version="1.1" xmlns="http://www.w3.org/2000/svg" xmlns:xlink="http://www.w3.org/1999/xlink">
    <!-- Generator: Sketch 53.2 (72643) - https://sketchapp.com -->
    <title>background-top</title>
    <desc>Created with Sketch.</desc>
    <defs>
        <radialGradient cx="46.9750653%" cy="55.2188783%" fx="46.9750653%" fy="55.2188783%" r="159.489901%" id="radialGradient-1">
            <stop stop-color="#004468" offset="0%"></stop>
            <stop stop-color="#002132" offset="100%"></stop>
        </radialGradient>
        <radialGradient cx="46.9750653%" cy="55.2188783%" fx="46.9750653%" fy="55.2188783%" r="159.489901%" id="radialGradient-2">
            <stop stop-color="#F77F00" offset="0%"></stop>
            <stop stop-color="#D62828" offset="100%"></stop>
        </radialGradient>
    </defs>
    <g id="Page-1" stroke="none" stroke-width="1" fill="none" fill-rule="evenodd">
        <g id="Home">
            <g id="background-top" transform="translate(-643.000000, -993.000000)">
                <g>
                    <g id="Group-4" opacity="0.4" transform="translate(343.000000, 1189.000000)" fill="url(#radialGradient-1)">
                        <polygon id="Polygon-Copy-19" points="471 199 581.851252 263 581.851252 391 471 455 360.148748 391 360.148748 263"></polygon>
                        <polygon id="Polygon-Copy-21" points="585 397 695.851252 461 695.851252 589 585 653 474.148748 589 474.148748 461"></polygon>
                        <polygon id="Polygon-Copy-25" points="357 0 467.851252 64 467.851252 192 357 256 246.148748 192 246.148748 64"></polygon>
                        <polygon id="Polygon-Copy-20" points="242 199 352.851252 263 352.851252 391 242 455 131.148748 391 131.148748 263"></polygon>
                        <polygon id="Polygon-Copy-22" points="356 396 466.851252 460 466.851252 588 356 652 245.148748 588 245.148748 460"></polygon>
                        <polygon id="Polygon-Copy-19" points="929 199 1039.85125 263 1039.85125 391 929 455 818.148748 391 818.148748 263"></polygon>
                        <polygon id="Polygon-Copy-23" points="1043 398 1153.85125 462 1153.85125 590 1043 654 932.148748 590 932.148748 462"></polygon>
                        <polygon id="Polygon-Copy-27" points="815 0 925.851252 64 925.851252 192 815 256 704.148748 192 704.148748 64"></polygon>
                        <polygon id="Polygon-Copy-27" points="1044 0 1154.85125 64 1154.85125 192 1044 256 933.148748 192 933.148748 64"></polygon>
                        <polygon id="Polygon-Copy-20" points="700 199 810.851252 263 810.851252 391 700 455 589.148748 391 589.148748 263"></polygon>
                        <polygon id="Polygon-Copy-28" points="586 0 696.851252 64 696.851252 192 586 256 475.148748 192 475.148748 64"></polygon>
                    </g>
                    <g id="Group-4-Copy" opacity="0.4" transform="translate(457.000000, 1783.000000)" fill="url(#radialGradient-1)">
                        <polygon id="Polygon-Copy-19" points="470 199 580.851252 263 580.851252 391 470 455 359.148748 391 359.148748 263"></polygon>
                        <polygon id="Polygon-Copy-21" points="584 398 694.851252 462 694.851252 590 584 654 473.148748 590 473.148748 462"></polygon>
                        <polygon id="Polygon-Copy-25" points="356 0 466.851252 64 466.851252 192 356 256 245.148748 192 245.148748 64"></polygon>
                        <polygon id="Polygon-Copy-20" points="241 199 351.851252 263 351.851252 391 241 455 130.148748 391 130.148748 263"></polygon>
                        <polygon id="Polygon-Copy-22" points="355 402 465.851252 466 465.851252 594 355 658 244.148748 594 244.148748 466"></polygon>
                        <polygon id="Polygon-Copy-23" points="1041 397 1151.85125 461 1151.85125 589 1041 653 930.148748 589 930.148748 461"></polygon>
                        <polygon id="Polygon-Copy-20" points="700 199 810.851252 263 810.851252 391 700 455 589.148748 391 589.148748 263"></polygon>
                        <polygon id="Polygon-Copy-24" points="814 398 924.851252 462 924.851252 590 814 654 703.148748 590 703.148748 462"></polygon>
                        <polygon id="Polygon-Copy-26" points="128 0 238.851252 64 238.851252 192 128 256 17.1487483 192 17.1487483 64"></polygon>
                        <polygon id="Polygon-Copy-28" points="585 1 695.851252 65 695.851252 193 585 257 474.148748 193 474.148748 65"></polygon>
                    </g>
                    <g id="Group-4-Copy-4" opacity="0.3" transform="translate(343.000000, 3168.000000)" fill="url(#radialGradient-1)">
                        <polygon id="Polygon-Copy-19" points="471 199 581.851252 263 581.851252 391 471 455 360.148748 391 360.148748 263"></polygon>
                        <polygon id="Polygon-Copy-21" points="585 398 695.851252 462 695.851252 590 585 654 474.148748 590 474.148748 462"></polygon>
                        <polygon id="Polygon-Copy-25" points="357 0 467.851252 64 467.851252 192 357 256 246.148748 192 246.148748 64"></polygon>
                        <polygon id="Polygon-Copy-20" points="242 199 352.851252 263 352.851252 391 242 455 131.148748 391 131.148748 263"></polygon>
                        <polygon id="Polygon-Copy-22" points="356 398 466.851252 462 466.851252 590 356 654 245.148748 590 245.148748 462"></polygon>
                        <polygon id="Polygon-Copy-19" points="929 199 1039.85125 263 1039.85125 391 929 455 818.148748 391 818.148748 263"></polygon>
                        <polygon id="Polygon-Copy-27" points="815 0 925.851252 64 925.851252 192 815 256 704.148748 192 704.148748 64"></polygon>
                        <polygon id="Polygon-Copy-20" points="700 199 810.851252 263 810.851252 391 700 455 589.148748 391 589.148748 263"></polygon>
                        <polygon id="Polygon-Copy-24" points="814 398 924.851252 462 924.851252 590 814 654 703.148748 590 703.148748 462"></polygon>
                        <polygon id="Polygon-Copy-28" points="586 0 696.851252 64 696.851252 192 586 256 475.148748 192 475.148748 64"></polygon>
                    </g>
                    <g id="Group" transform="translate(1260.000000, 793.000000)" fill="url(#radialGradient-2)">
                        <polygon id="Polygon" points="241 198 351.851252 262 351.851252 390 241 454 130.148748 390 130.148748 262"></polygon>
                        <polygon id="Polygon-Copy-19" points="128 0 238.851252 64 238.851252 192 128 256 17.1487483 192 17.1487483 64"></polygon>
                        <polygon id="Polygon-Copy" points="356 395 466.851252 459 466.851252 587 356 651 245.148748 587 245.148748 459"></polygon>
                        <polygon id="Polygon-Copy-9" points="469 593 579.851252 657 579.851252 785 469 849 358.148748 785 358.148748 657"></polygon>
                        <polygon id="Polygon-Copy-18" points="241 593 351.851252 657 351.851252 785 241 849 130.148748 785 130.148748 657"></polygon>
                        <polygon id="Polygon-Copy-11" points="354 791 464.851252 855 464.851252 983 354 1047 243.148748 983 243.148748 855"></polygon>
                        <polygon id="Polygon-Copy-17" points="467 989 577.851252 1053 577.851252 1181 467 1245 356.148748 1181 356.148748 1053"></polygon>
                        <polygon id="Polygon-Copy-12" points="582 791 692.851252 855 692.851252 983 582 1047 471.148748 983 471.148748 855"></polygon>
                        <polygon id="Polygon-Copy-13" points="809 792 919.851252 856 919.851252 984 809 1048 698.148748 984 698.148748 856"></polygon>
                        <polygon id="Polygon-Copy-15" points="695 989 805.851252 1053 805.851252 1181 695 1245 584.148748 1181 584.148748 1053"></polygon>
                        <polygon id="Polygon-Copy-16" points="923 990 1033.85125 1054 1033.85125 1182 923 1246 812.148748 1182 812.148748 1054"></polygon>
                        <polygon id="Polygon-Copy-14" points="924 595 1034.85125 659 1034.85125 787 924 851 813.148748 787 813.148748 659"></polygon>
                        <polygon id="Polygon-Copy-10" points="696 593 806.851252 657 806.851252 785 696 849 585.148748 785 585.148748 657"></polygon>
                        <polygon id="Polygon-Copy" points="584 395 694.851252 459 694.851252 587 584 651 473.148748 587 473.148748 459"></polygon>
                        <polygon id="Polygon-Copy-2" points="470 197 580.851252 261 580.851252 389 470 453 359.148748 389 359.148748 261"></polygon>
                        <polygon id="Polygon-Copy-4" points="698 198 808.851252 262 808.851252 390 698 454 587.148748 390 587.148748 262"></polygon>
                        <polygon id="Polygon-Copy-6" points="812 396 922.851252 460 922.851252 588 812 652 701.148748 588 701.148748 460"></polygon>
                        <polygon id="Polygon-Copy-7" points="926 199 1036.85125 263 1036.85125 391 926 455 815.148748 391 815.148748 263"></polygon>
                        <polygon id="Polygon-Copy-8" points="812 2 922.851252 66 922.851252 194 812 258 701.148748 194 701.148748 66"></polygon>
                        <polygon id="Polygon-Copy-5" points="585 1 695.851252 65 695.851252 193 585 257 474.148748 193 474.148748 65"></polygon>
                        <polygon id="Polygon-Copy-3" points="355 1 465.851252 65 465.851252 193 355 257 244.148748 193 244.148748 65"></polygon>
                    </g>
                    <g id="Group-Copy" transform="translate(347.000000, 0.000000)" fill="url(#radialGradient-2)">
                        <polygon id="Polygon-Copy-11" points="354 791 464.851252 855 464.851252 983 354 1047 243.148748 983 243.148748 855"></polygon>
                        <polygon id="Polygon-Copy-17" points="467 990 577.851252 1054 577.851252 1182 467 1246 356.148748 1182 356.148748 1054"></polygon>
                        <polygon id="Polygon-Copy-12" points="583 793 693.851252 857 693.851252 985 583 1049 472.148748 985 472.148748 857"></polygon>
                        <polygon id="Polygon-Copy-13" points="812 793 922.851252 857 922.851252 985 812 1049 701.148748 985 701.148748 857"></polygon>
                        <polygon id="Polygon-Copy-15" points="697 990 807.851252 1054 807.851252 1182 697 1246 586.148748 1182 586.148748 1054"></polygon>
                        <polygon id="Polygon-Copy-16" points="926 990 1036.85125 1054 1036.85125 1182 926 1246 815.148748 1182 815.148748 1054"></polygon>
                    </g>
                    <g id="Group-Copy-2" transform="translate(0.000000, 2179.000000)" fill="url(#radialGradient-2)">
                        <polygon id="Polygon-Copy-12" points="582 794 692.851252 858 692.851252 986 582 1050 471.148748 986 471.148748 858"></polygon>
                        <polygon id="Polygon-Copy-14" points="925 596 1035.85125 660 1035.85125 788 925 852 814.148748 788 814.148748 660"></polygon>
                        <polygon id="Polygon-Copy-10" points="696 595 806.851252 659 806.851252 787 696 851 585.148748 787 585.148748 659"></polygon>
                        <polygon id="Polygon-Copy" points="583 396 693.851252 460 693.851252 588 583 652 472.148748 588 472.148748 460"></polygon>
                        <polygon id="Polygon-Copy-4" points="698 199 808.851252 263 808.851252 391 698 455 587.148748 391 587.148748 263"></polygon>
                        <polygon id="Polygon-Copy-6" points="811 398 921.851252 462 921.851252 590 811 654 700.148748 590 700.148748 462"></polygon>
                        <polygon id="Polygon-Copy-7" points="926 200 1036.85125 264 1036.85125 392 926 456 815.148748 392 815.148748 264"></polygon>
                        <polygon id="Polygon-Copy-8" points="812 2 922.851252 66 922.851252 194 812 258 701.148748 194 701.148748 66"></polygon>
                        <polygon id="Polygon-Copy-5" points="584 2 694.851252 66 694.851252 194 584 258 473.148748 194 473.148748 66"></polygon>
                    </g>
                </g>
                <g id="Footer" transform="translate(278.000000, 4258.000000)">
                    <g id="polygons" opacity="0.3" transform="translate(0.000000, 397.000000)" fill="url(#radialGradient-1)">
                        <polygon id="Polygon-Copy-19" points="471 199 581.851252 263 581.851252 391 471 455 360.148748 391 360.148748 263"></polygon>
                        <polygon id="Polygon-Copy-21" points="585 398 695.851252 462 695.851252 590 585 654 474.148748 590 474.148748 462"></polygon>
                        <polygon id="Polygon-Copy-25" points="357 0 467.851252 64 467.851252 192 357 256 246.148748 192 246.148748 64"></polygon>
                        <polygon id="Polygon-Copy-20" points="242 199 352.851252 263 352.851252 391 242 455 131.148748 391 131.148748 263"></polygon>
                        <polygon id="Polygon-Copy-22" points="356 398 466.851252 462 466.851252 590 356 654 245.148748 590 245.148748 462"></polygon>
                        <polygon id="Polygon-Copy-19" points="929 199 1039.85125 263 1039.85125 391 929 455 818.148748 391 818.148748 263"></polygon>
                        <polygon id="Polygon-Copy-23" points="1043 398 1153.85125 462 1153.85125 590 1043 654 932.148748 590 932.148748 462"></polygon>
                        <polygon id="Polygon-Copy-27" points="815 0 925.851252 64 925.851252 192 815 256 704.148748 192 704.148748 64"></polygon>
                        <polygon id="Polygon-Copy-20" points="700 199 810.851252 263 810.851252 391 700 455 589.148748 391 589.148748 263"></polygon>
                        <polygon id="Polygon-Copy-24" points="814 398 924.851252 462 924.851252 590 814 654 703.148748 590 703.148748 462"></polygon>
                        <polygon id="Polygon-Copy-28" points="586 0 696.851252 64 696.851252 192 586 256 475.148748 192 475.148748 64"></polygon>
                    </g>
                    <g id="Group-Copy-4" fill="url(#radialGradient-2)">
                        <polygon id="Polygon" points="241 199 351.851252 263 351.851252 391 241 455 130.148748 391 130.148748 263"></polygon>
                        <polygon id="Polygon-Copy-2" points="470 198 580.851252 262 580.851252 390 470 454 359.148748 390 359.148748 262"></polygon>
                        <polygon id="Polygon-Copy-3" points="355 1 465.851252 65 465.851252 193 355 257 244.148748 193 244.148748 65"></polygon>
                    </g>
                    <g id="Group-Copy-5" transform="translate(1439.000000, 624.000000)" fill="url(#radialGradient-2)">
                        <polygon id="Polygon" points="242 199 352.851252 263 352.851252 391 242 455 131.148748 391 131.148748 263"></polygon>
                        <polygon id="Polygon-Copy-19" points="128 0 238.851252 64 238.851252 192 128 256 17.1487483 192 17.1487483 64"></polygon>
                        <polygon id="Polygon-Copy-2" points="471 198 581.851252 262 581.851252 390 471 454 360.148748 390 360.148748 262"></polygon>
                        <polygon id="Polygon-Copy-3" points="356 1 466.851252 65 466.851252 193 356 257 245.148748 193 245.148748 65"></polygon>
                    </g>
                </g>
                <g id="Group-Copy-3" transform="translate(1611.000000, 3496.000000)" fill="url(#radialGradient-2)">
                    <polygon id="Polygon" points="242 199 352.851252 263 352.851252 391 242 455 131.148748 391 131.148748 263"></polygon>
                    <polygon id="Polygon-Copy-19" points="128 0 238.851252 64 238.851252 192 128 256 17.1487483 192 17.1487483 64"></polygon>
                    <polygon id="Polygon-Copy-2" points="471 198 581.851252 262 581.851252 390 471 454 360.148748 390 360.148748 262"></polygon>
                    <polygon id="Polygon-Copy-3" points="356 1 466.851252 65 466.851252 193 356 257 245.148748 193 245.148748 65"></polygon>
                </g>
            </g>
        </g>
    </g>
</svg>