<?xml version="1.0" encoding="UTF-8"?>
<svg width="1392px" height="463px" viewBox="0 0 1392 463" version="1.1" xmlns="http://www.w3.org/2000/svg" xmlns:xlink="http://www.w3.org/1999/xlink">
    <!-- Generator: Sketch 53.2 (72643) - https://sketchapp.com -->
    <title>background-page</title>
    <desc>Created with Sketch.</desc>
    <defs>
        <radialGradient cx="46.9750653%" cy="55.2188783%" fx="46.9750653%" fy="55.2188783%" r="159.489901%" id="radialGradient-1">
            <stop stop-color="#F77F00" offset="0%"></stop>
            <stop stop-color="#D62828" offset="100%"></stop>
        </radialGradient>
        <radialGradient cx="46.9750653%" cy="55.2188783%" fx="46.9750653%" fy="55.2188783%" r="159.489901%" id="radialGradient-2">
            <stop stop-color="#004468" offset="0%"></stop>
            <stop stop-color="#002132" offset="100%"></stop>
        </radialGradient>
    </defs>
    <g id="Page-1" stroke="none" stroke-width="1" fill="none" fill-rule="evenodd">
        <g id="Guidelines" transform="translate(-48.000000, 0.000000)">
            <g id="background-page" transform="translate(-84.000000, -784.000000)">
                <g id="Group-Copy" transform="translate(917.000000, 0.000000)" fill="url(#radialGradient-1)">
                    <polygon id="Polygon-Copy-9" points="469 594 579.851252 658 579.851252 786 469 850 358.148748 786 358.148748 658"></polygon>
                    <polygon id="Polygon-Copy-18" points="240 593 350.851252 657 350.851252 785 240 849 129.148748 785 129.148748 657"></polygon>
                    <polygon id="Polygon-Copy-11" points="354 791 464.851252 855 464.851252 983 354 1047 243.148748 983 243.148748 855"></polygon>
                    <polygon id="Polygon-Copy-17" points="468 991 578.851252 1055 578.851252 1183 468 1247 357.148748 1183 357.148748 1055"></polygon>
                    <polygon id="Polygon-Copy-12" points="583 792 693.851252 856 693.851252 984 583 1048 472.148748 984 472.148748 856"></polygon>
                    <polygon id="Polygon-Copy-15" points="697 991 807.851252 1055 807.851252 1183 697 1247 586.148748 1183 586.148748 1055"></polygon>
                    <polygon id="Polygon-Copy-10" points="696 595 806.851252 659 806.851252 787 696 851 585.148748 787 585.148748 659"></polygon>
                </g>
                <g id="Group-4-Copy-3" opacity="0.400228591" transform="translate(0.000000, 392.000000)" fill="url(#radialGradient-2)">
                    <polygon id="Polygon-Copy-19" points="471 199 581.851252 263 581.851252 391 471 455 360.148748 391 360.148748 263"></polygon>
                    <polygon id="Polygon-Copy-21" points="585 398 695.851252 462 695.851252 590 585 654 474.148748 590 474.148748 462"></polygon>
                    <polygon id="Polygon-Copy-20" points="242 199 352.851252 263 352.851252 391 242 455 131.148748 391 131.148748 263"></polygon>
                    <polygon id="Polygon-Copy-22" points="356 398 466.851252 462 466.851252 590 356 654 245.148748 590 245.148748 462"></polygon>
                    <polygon id="Polygon-Copy-19" points="929 199 1039.85125 263 1039.85125 391 929 455 818.148748 391 818.148748 263"></polygon>
                    <polygon id="Polygon-Copy-23" points="1043 398 1153.85125 462 1153.85125 590 1043 654 932.148748 590 932.148748 462"></polygon>
                    <polygon id="Polygon-Copy-20" points="700 199 810.851252 263 810.851252 391 700 455 589.148748 391 589.148748 263"></polygon>
                    <polygon id="Polygon-Copy-24" points="814 398 924.851252 462 924.851252 590 814 654 703.148748 590 703.148748 462"></polygon>
                </g>
            </g>
        </g>
    </g>
</svg>