<?xml version="1.0" encoding="UTF-8"?>
<svg width="105px" height="13px" viewBox="0 0 105 13" version="1.1" xmlns="http://www.w3.org/2000/svg" xmlns:xlink="http://www.w3.org/1999/xlink">
    <!-- Generator: Sketch 52.6 (67491) - http://www.bohemiancoding.com/sketch -->
    <title>Logo</title>
    <desc>Created with Sketch.</desc>
    <g id="Page-1" stroke="none" stroke-width="1" fill="none" fill-rule="evenodd">
        <g id="Home" transform="translate(-80.000000, -59.000000)" fill="#151515">
            <g id="Logo" transform="translate(80.000000, 55.000000)">
                <path d="M6.816,12.336 C6.816,12.7520021 6.77066712,13.189331 6.68,13.648 C6.58933288,14.106669 6.42133456,14.5333314 6.176,14.928 C5.93066544,15.3226686 5.58400224,15.6479987 5.136,15.904 C4.68799776,16.1600013 4.11200352,16.288 3.408,16.288 C2.49066208,16.288 1.75733608,16.058669 1.208,15.6 C0.65866392,15.141331 0.28266768,14.5386704 0.08,13.792 L1.936,13.264 C2.03200048,13.6373352 2.20799872,13.9333322 2.464,14.152 C2.72000128,14.3706678 3.02399824,14.48 3.376,14.48 C3.66400144,14.48 3.9013324,14.4266672 4.088,14.32 C4.2746676,14.2133328 4.41866616,14.0613343 4.52,13.864 C4.62133384,13.6666657 4.69333312,13.4320014 4.736,13.16 C4.77866688,12.8879986 4.8,12.5920016 4.8,12.272 L4.8,4.672 L6.816,4.672 L6.816,12.336 Z M14.576,4.672 L16.32,4.672 L21.2,16 L18.896,16 L17.84,13.408 L12.928,13.408 L11.904,16 L9.648,16 L14.576,4.672 Z M17.136,11.68 L15.392,7.072 L13.616,11.68 L17.136,11.68 Z M26.096,11.088 L21.84,4.672 L24.304,4.672 L27.152,9.44 L30.032,4.672 L32.368,4.672 L28.112,11.088 L28.112,16 L26.096,16 L26.096,11.088 Z M51.104,14.176 C50.911999,14.4640014 50.6800014,14.7359987 50.408,14.992 C50.1359986,15.2480013 49.8213351,15.471999 49.464,15.664 C49.1066649,15.856001 48.7120022,16.0079994 48.28,16.12 C47.8479978,16.2320006 47.3760026,16.288 46.864,16.288 C46.0106624,16.288 45.221337,16.1386682 44.496,15.84 C43.770663,15.5413318 43.1466693,15.1280026 42.624,14.6 C42.1013307,14.0719974 41.6933348,13.445337 41.4,12.72 C41.1066652,11.994663 40.96,11.2000043 40.96,10.336 C40.96,9.47199568 41.1093318,8.67733696 41.408,7.952 C41.7066682,7.22666304 42.1199974,6.60000264 42.648,6.072 C43.1760026,5.54399736 43.7999964,5.13066816 44.52,4.832 C45.2400036,4.53333184 46.0213291,4.384 46.864,4.384 C47.2800021,4.384 47.687998,4.42666624 48.088,4.512 C48.488002,4.59733376 48.8639982,4.71733256 49.216,4.872 C49.5680018,5.02666744 49.8879986,5.21333224 50.176,5.432 C50.4640014,5.65066776 50.703999,5.89866528 50.896,6.176 L49.936,6.88 C49.8186661,6.69866576 49.6613343,6.51733424 49.464,6.336 C49.2666657,6.15466576 49.034668,5.99466736 48.768,5.856 C48.501332,5.71733264 48.2106682,5.60533376 47.896,5.52 C47.5813318,5.43466624 47.2426685,5.392 46.88,5.392 C46.1439963,5.392 45.4853362,5.525332 44.904,5.792 C44.3226638,6.058668 43.8293354,6.4186644 43.424,6.872 C43.0186646,7.3253356 42.7093344,7.85066368 42.496,8.448 C42.2826656,9.04533632 42.176,9.67466336 42.176,10.336 C42.176,10.9973366 42.2853322,11.6266637 42.504,12.224 C42.7226678,12.8213363 43.0346646,13.3466644 43.44,13.8 C43.8453354,14.2533356 44.3386638,14.613332 44.92,14.88 C45.5013362,15.146668 46.154663,15.28 46.88,15.28 C47.5306699,15.28 48.1493304,15.146668 48.736,14.88 C49.3226696,14.613332 49.8133314,14.1866696 50.208,13.6 L51.104,14.176 Z M66.096,10.336 C66.096,11.2000043 65.9466682,11.994663 65.648,12.72 C65.3493318,13.445337 64.9360026,14.0719974 64.408,14.6 C63.8799974,15.1280026 63.2560036,15.5413318 62.536,15.84 C61.8159964,16.1386682 61.0346709,16.288 60.192,16.288 C59.3493291,16.288 58.5680036,16.1386682 57.848,15.84 C57.1279964,15.5413318 56.5040026,15.1280026 55.976,14.6 C55.4479974,14.0719974 55.0346682,13.445337 54.736,12.72 C54.4373318,11.994663 54.288,11.2000043 54.288,10.336 C54.288,9.47199568 54.4373318,8.67733696 54.736,7.952 C55.0346682,7.22666304 55.4479974,6.60000264 55.976,6.072 C56.5040026,5.54399736 57.1279964,5.13066816 57.848,4.832 C58.5680036,4.53333184 59.3493291,4.384 60.192,4.384 C61.0346709,4.384 61.8159964,4.53333184 62.536,4.832 C63.2560036,5.13066816 63.8799974,5.54399736 64.408,6.072 C64.9360026,6.60000264 65.3493318,7.22666304 65.648,7.952 C65.9466682,8.67733696 66.096,9.47199568 66.096,10.336 Z M64.88,10.336 C64.88,9.67466336 64.7733344,9.04533632 64.56,8.448 C64.3466656,7.85066368 64.0373354,7.3253356 63.632,6.872 C63.2266646,6.4186644 62.7333362,6.058668 62.152,5.792 C61.5706638,5.525332 60.917337,5.392 60.192,5.392 C59.466663,5.392 58.8133362,5.525332 58.232,5.792 C57.6506638,6.058668 57.1573354,6.4186644 56.752,6.872 C56.3466646,7.3253356 56.0373344,7.85066368 55.824,8.448 C55.6106656,9.04533632 55.504,9.67466336 55.504,10.336 C55.504,10.9973366 55.6106656,11.6266637 55.824,12.224 C56.0373344,12.8213363 56.3466646,13.3439978 56.752,13.792 C57.1573354,14.2400022 57.6506638,14.597332 58.232,14.864 C58.8133362,15.130668 59.466663,15.264 60.192,15.264 C60.917337,15.264 61.5706638,15.130668 62.152,14.864 C62.7333362,14.597332 63.2266646,14.2400022 63.632,13.792 C64.0373354,13.3439978 64.3466656,12.8213363 64.56,12.224 C64.7733344,11.6266637 64.88,10.9973366 64.88,10.336 Z M70.496,4.672 L71.648,4.672 L71.648,9.584 L77.824,9.584 L77.824,4.672 L78.976,4.672 L78.976,16 L77.824,16 L77.824,10.64 L71.648,10.64 L71.648,16 L70.496,16 L70.496,4.672 Z M85.136,14.976 L91.2,14.976 L91.2,16 L83.984,16 L83.984,4.672 L91.008,4.672 L91.008,5.696 L85.136,5.696 L85.136,9.6 L90.624,9.6 L90.624,10.608 L85.136,10.608 L85.136,14.976 Z M103.488,14.32 L103.52,14.32 L103.52,4.672 L104.672,4.672 L104.672,16 L103.232,16 L96.64,6.256 L96.608,6.256 L96.608,16 L95.456,16 L95.456,4.672 L96.896,4.672 L103.488,14.32 Z" id="JAY-COHEN"></path>
            </g>
        </g>
    </g>
</svg>