<?xml version="1.0" encoding="UTF-8"?>
<svg width="112px" height="181px" viewBox="0 0 112 181" version="1.1" xmlns="http://www.w3.org/2000/svg" xmlns:xlink="http://www.w3.org/1999/xlink">
    <!-- Generator: Sketch 52.6 (67491) - http://www.bohemiancoding.com/sketch -->
    <title>Sony-logo</title>
    <desc>Created with Sketch.</desc>
    <g id="Page-1" stroke="none" stroke-width="1" fill="none" fill-rule="evenodd">
        <g id="Home" transform="translate(-488.000000, -4992.000000)" fill="#404040">
            <g id="Sony-logo" transform="translate(488.000000, 4992.000000)">
                <path d="M53.8499996,69.6934429 C53.8499996,79.6885243 51.1499989,93.8606559 51,104.004919 C51,104.750819 51,108.629509 51,114 L59.5499988,109.972131 C58.7999997,101.767214 56.099999,85.5065575 56.099999,68.5 C56.099999,48.6590166 60,29.563934 60,24.7901644 C60,24.4918037 60,23.8950822 60,23 L51.5999979,26.8786896 C51.5999979,35.2327879 51.5999979,41.3491797 51.5999979,42.0950827 C51.7499991,51.4934425 53.8499996,59.4000009 53.8499996,69.6934429 Z" id="path4"></path>
                <path d="M42.428571,74.6934418 C42.428571,82.7491815 40,94.2360662 40,96.9213105 L40,119 L47.5714295,115.270492 C47.5714295,109.75082 47.5714295,105.722951 47.5714295,104.977048 C47.7142856,94.2360662 44.7142859,86.9262295 44.7142859,73.5000011 C44.7142859,61.5655742 47.7142856,52.763936 48,42.9180342 C48,42.3213128 48,36.2049189 48,28 L40,31.8786895 L40,55.8967226 C40.1428582,59.4770491 42.428571,66.7868858 42.428571,74.6934418 Z" id="path6"></path>
                <path d="M30.0060596,73.7105274 C30.0060596,76.7039469 32.2900411,76.7039469 32.2900411,79.6973687 C32.2900411,83.1398027 29.8633096,84.7861835 30.0060596,86.5822366 C30.0060596,87.6299353 30.0060596,105.291117 30.0060596,124 L37.7145021,120.258224 L37.7145021,97.8075649 C37.7145021,94.6644732 35.1450205,86.7319088 35.1450205,78.2006578 C35.1450205,69.9687513 38,59.9407894 38,56.4983554 L38,33 L30.0060596,36.8914483 C30.0060596,55.8996711 30.0060596,72.9621708 30.0060596,73.7105274 Z" id="path8"></path>
                <path d="M28,124.144974 C28,104.86985 28,87.3739687 28,86.9291592 C27.7037036,84.2602952 25.7777783,85.1499165 25.7777783,82.3327835 C25.7777783,78.9225695 28,77.1433269 28,75.0675438 C28,74.3261938 28,57.1268528 28,38 L20,41.7067544 L20,128 L28,124.144974 Z" id="path10"></path>
                <polygon id="polygon12" points="18 43 10 46.4214876 10 133 18 129.429752"></polygon>
                <polygon id="polygon14" points="9 133.572848 9 47 1 50.2781457 1 137"></polygon>
                <path d="M64.230769,65.7425756 C64.230769,84.6039613 61.6153848,101.386138 61,110 L69,106.435645 C67.9230778,95.2970313 66.2307707,79.2574274 66.2307707,65 C66.2307707,50.445545 67.9230778,31.8811891 69,20 L61,23.5643574 C61,24.3069308 61,24.9009903 61,25.0495063 C61.1538473,29.8019806 64.230769,45.8415845 64.230769,65.7425756 Z" id="path16"></path>
                <path d="M73.9130435,104 L80,101.186356 C78.7826087,88.0066558 77.5652174,72.1613971 77.5652174,59.4259573 C77.7173902,46.3943421 78.7826087,29.6605662 79.847825,15 L73,18.1098167 C73.9130435,28.9201345 75.5869577,44.1730448 75.5869577,60.3144766 C75.5869577,74.8269552 74.5217391,92.0049919 73.9130435,104 Z" id="path18"></path>
                <path d="M84.4390235,99 L90,96.3300015 C88.8292677,81.4966663 87.6585375,64.8833329 87.8048779,54.5000011 C87.8048779,42.0399999 88.9756103,24.6850007 90,10 L84,12.818333 C84.8780471,25.8716655 86.1951221,41.5950009 86.1951221,55.2416669 C86.1951221,67.7016681 85.1707302,84.166667 84.4390235,99 Z" id="path20"></path>
                <path d="M96.0500011,93 L101,90.7889452 C100.1,77.6700171 98.9,62.3400321 98.9,49.2211061 C98.9,34.1859285 99.9499989,21.2144052 100.849999,5 L95,7.65326703 C96.0500011,21.6566153 97.4,36.102178 97.4,49.8107188 C97.4,62.4874369 96.8,78.8492447 96.0500011,93 Z" id="path22"></path>
                <path d="M107.526316,44.6633162 C107.526316,61.7621438 106.894739,72.5226123 105.947368,88 L110.368421,86.0837527 C109.736842,70.1641549 108.789474,61.7621438 108.789474,44.3685088 C108.789474,29.9229482 110.052632,24.6164142 110.842106,6.04355157 C111,3.97989944 111,2.06365213 111,0 L105,2.65326703 C105.157896,4.71691696 105.315789,6.63316647 105.473685,8.54941378 C106.263158,27.2696812 107.526316,27.5644886 107.526316,44.6633162 Z" id="path24"></path>
                <g id="g70" transform="translate(0.000000, 143.000000)">
                    <g id="g40">
                        <g id="g28" transform="translate(0.000000, 0.763404)">
                            <path d="M19.2839111,0.916085106 L21.6573156,0.916085106 L21.6573156,7.176 L19.4322489,7.176 C19.4322489,6.10723404 17.8005333,2.90093617 11.4220089,2.74825532 C4.74680889,2.44289362 4.15345778,5.80187234 6.37852444,6.5652766 C9.34528,7.4813617 14.9821156,7.32868085 18.5422222,8.39744681 C23.1406933,9.92425532 24.4757333,15.1154043 20.4706133,17.8636596 C16.7621689,20.3065532 10.3836444,20.0011915 5.78517333,18.474383 C4.89514667,18.1690213 3.56010667,17.405617 3.70844444,18.474383 L3.70844444,19.0851064 L0.890026667,19.0851064 L0.890026667,12.2144681 L3.41176889,12.2144681 C3.41176889,12.6725106 3.11509333,14.1993191 5.93351111,15.7261277 C9.19694222,17.5582979 14.9821156,17.5582979 17.35552,16.3368511 C18.69056,15.5734468 18.9872356,13.1305532 16.4654933,12.6725106 C13.7954133,12.3671489 9.49361778,12.0617872 6.37852444,11.298383 C4.15345778,10.8403404 2.37340444,10.0769362 1.33504,8.70280851 C0.593351111,7.63404255 -0.741688889,3.51165957 3.70844444,1.37412766 C9.34528,-1.22144681 17.0588444,0.610723404 18.5422222,1.83217021 C18.9872356,2.13753191 19.5805867,1.98485106 19.2839111,0.916085106 Z" id="path26"></path>
                        </g>
                        <path d="M39.9028622,0.610723404 C46.1330489,0.610723404 52.8082489,3.66434043 52.6599111,10.8403404 C52.5115733,17.8636596 45.9847111,20.7645957 39.9028622,20.7645957 C33.8210133,20.7645957 26.7008,18.0163404 26.5524622,10.8403404 C26.4041244,3.66434043 33.6726756,0.610723404 39.9028622,0.610723404 Z M47.1714133,10.6876596 C47.1714133,5.95455319 43.9079822,3.35897872 39.7545244,3.35897872 C35.6010667,3.35897872 32.3376356,5.95455319 32.3376356,10.6876596 C32.3376356,15.420766 35.6010667,18.1690213 39.7545244,18.0163404 C43.7596444,17.8636596 47.1714133,15.2680851 47.1714133,10.6876596 Z" id="path30" fill-rule="nonzero"></path>
                        <g id="g34" transform="translate(84.552533, 1.526809)">
                            <path d="M22.9923556,3.20629787 C22.5473422,3.66434043 16.3171556,11.298383 16.3171556,11.298383 L16.3171556,15.420766 C16.3171556,15.8788085 16.3171556,15.8788085 16.7621689,15.8788085 C17.2071822,15.8788085 19.2839111,15.8788085 19.2839111,15.8788085 L19.2839111,18.1690213 L7.56522667,18.1690213 L7.56522667,15.8788085 C7.56522667,15.8788085 9.93863111,15.8788085 10.3836444,15.8788085 C10.8286578,15.8788085 10.9769956,15.7261277 10.9769956,15.420766 L10.9769956,11.298383 C10.9769956,11.298383 4.15345778,3.51165957 4.00512,3.35897872 C3.70844444,3.05361702 3.11509333,2.44289362 1.92839111,2.44289362 L0,2.44289362 L0,0.152680851 L11.8670222,0.152680851 L11.8670222,2.44289362 L10.68032,2.44289362 C10.3836444,2.44289362 10.0869689,3.05361702 10.5319822,3.51165957 C10.9769956,3.96970213 14.5371022,8.39744681 14.5371022,8.39744681 L18.5422222,3.51165957 C18.8388978,3.20629787 18.69056,2.44289362 18.2455467,2.44289362 C17.35552,2.44289362 16.7621689,2.44289362 16.7621689,2.44289362 L16.7621689,0.152680851 L26.5524622,0.152680851 L26.5524622,2.44289362 L24.3273956,2.44289362 C23.5857067,2.44289362 23.1406933,3.05361702 22.9923556,3.20629787 Z" id="path32"></path>
                        </g>
                        <g id="g38" transform="translate(54.884978, 0.763404)">
                            <path d="M7.26855111,15.420766 C7.26855111,16.6422128 7.86190222,16.4895319 8.45525333,16.4895319 L10.8286578,16.4895319 L10.8286578,18.7797447 L0.445013333,18.7797447 L0.445013333,16.4895319 L2.67008,16.4895319 C3.56010667,16.4895319 3.70844444,15.8788085 3.70844444,15.420766 L3.70844444,4.58042553 C3.70844444,3.81702128 3.70844444,3.20629787 2.52174222,3.20629787 L0.296675556,3.20629787 L0.296675556,0.763404255 L9.04860444,0.763404255 L20.7672889,11.9091064 C20.7672889,11.9091064 20.7672889,5.64919149 20.7672889,4.27506383 C20.7672889,3.05361702 20.1739378,3.05361702 19.5805867,2.90093617 L17.35552,2.90093617 L17.35552,0.610723404 L27.2941511,0.610723404 L27.2941511,2.90093617 L24.9207467,2.90093617 C24.3273956,2.90093617 24.1790578,3.51165957 24.03072,3.96970213 L24.03072,18.6270638 L20.7672889,18.6270638 L6.97187556,6.25991489 C7.26855111,6.41259574 7.26855111,14.1993191 7.26855111,15.420766 Z" id="path36"></path>
                        </g>
                    </g>
                    <path d="M0.593351111,37.2541277 L0.593351111,35.88 L1.78005333,35.88 C2.22506667,35.88 2.37340444,35.7273191 2.37340444,35.2692766 L2.37340444,28.3986383 C2.37340444,27.9405957 2.22506667,27.7879149 1.78005333,27.7879149 L0.593351111,27.7879149 L0.593351111,26.2611064 L9.79029333,26.2611064 C12.9053867,26.2611064 13.9437511,27.0245106 13.9437511,29.3147234 C13.9437511,31.6049362 12.6087111,32.5210213 9.04860444,32.5210213 L5.19182222,32.5210213 L5.19182222,35.2692766 C5.19182222,35.7273191 5.34016,35.88 5.78517333,35.88 L6.97187556,35.88 L6.97187556,37.2541277 L0.593351111,37.2541277 Z M5.19182222,30.9942128 L8.60359111,30.9942128 C10.0869689,30.9942128 10.8286578,30.5361702 10.8286578,29.3147234 C10.8286578,28.0932766 10.0869689,27.635234 8.75192889,27.635234 L5.04348444,27.635234 L5.19182222,30.9942128 Z" id="path42" fill-rule="nonzero"></path>
                    <g id="g46" transform="translate(14.833778, 25.955745)">
                        <path d="M5.04348444,9.31353191 C5.04348444,9.77157447 5.19182222,9.92425532 5.63683556,9.92425532 L6.82353778,9.92425532 L6.82353778,11.298383 L0.445013333,11.298383 L0.445013333,9.92425532 L1.63171556,9.92425532 C2.07672889,9.92425532 2.22506667,9.77157447 2.22506667,9.31353191 L2.22506667,2.29021277 C2.22506667,1.83217021 2.07672889,1.67948936 1.63171556,1.67948936 L0.445013333,1.67948936 L0.445013333,0.305361702 L6.82353778,0.305361702 L6.82353778,1.67948936 L5.63683556,1.67948936 C5.19182222,1.67948936 5.04348444,1.98485106 5.04348444,2.44289362 L5.04348444,9.31353191 Z" id="path44"></path>
                    </g>
                    <g id="g50" transform="translate(22.250667, 25.192340)">
                        <path d="M13.4987378,8.70280851 C13.2020622,10.3822979 11.4220089,12.6725106 7.86190222,12.6725106 C4.59847111,12.6725106 0.593351111,11.298383 0.445013333,6.71795745 C0.445013333,2.29021277 4.30179556,0.458042553 7.41688889,0.458042553 C9.34528,0.458042553 10.9769956,1.22144681 11.4220089,1.67948936 C11.7186844,1.98485106 12.01536,1.98485106 11.8670222,1.06876596 L13.2020622,1.06876596 L13.2020622,4.88578723 L12.01536,4.88578723 C11.8670222,2.90093617 9.64195556,1.67948936 7.26855111,1.98485106 C4.74680889,2.29021277 3.41176889,4.27506383 3.41176889,6.71795745 C3.41176889,9.46621277 5.63683556,11.298383 7.86190222,11.298383 C9.34528,11.298383 11.5703467,10.8403404 12.01536,8.70280851 L13.4987378,8.70280851 Z" id="path48"></path>
                    </g>
                    <g id="g54" transform="translate(37.084444, 25.955745)">
                        <path d="M0.445013333,4.42774468 L0.445013333,0.152680851 L13.2020622,0.152680851 L13.2020622,4.42774468 L11.8670222,4.42774468 C11.8670222,1.37412766 11.5703467,1.67948936 10.68032,1.67948936 L8.15857778,1.67948936 L8.15857778,9.31353191 C8.15857778,9.77157447 8.30691556,10.0769362 8.75192889,10.0769362 L9.93863111,10.0769362 L9.93863111,11.4510638 L3.56010667,11.4510638 L3.56010667,10.0769362 L4.74680889,10.0769362 C5.19182222,10.0769362 5.34016,9.77157447 5.34016,9.31353191 L5.34016,1.67948936 L2.81841778,1.67948936 C1.78005333,1.83217021 1.63171556,1.52680851 1.63171556,4.42774468 L0.445013333,4.42774468 Z" id="path52"></path>
                    </g>
                    <g id="g58" transform="translate(51.918222, 25.955745)">
                        <path d="M7.12021333,11.9091064 C4.59847111,11.9091064 1.78005333,11.298383 1.78005333,7.93940426 L1.78005333,2.44289362 C1.78005333,1.98485106 1.63171556,1.67948936 1.18670222,1.67948936 L0,1.67948936 L0,0.305361702 L6.37852444,0.305361702 L6.37852444,1.67948936 L5.19182222,1.67948936 C4.74680889,1.67948936 4.59847111,1.98485106 4.59847111,2.44289362 L4.59847111,8.09208511 C4.59847111,8.39744681 4.45013333,10.6876596 7.12021333,10.6876596 C10.0869689,10.6876596 10.3836444,9.31353191 10.3836444,8.09208511 L10.3836444,2.44289362 C10.3836444,1.98485106 10.2353067,1.67948936 9.79029333,1.67948936 L8.60359111,1.67948936 L8.60359111,0.305361702 L13.9437511,0.305361702 L13.9437511,1.67948936 L12.7570489,1.67948936 C12.4603733,1.67948936 12.1636978,1.98485106 12.1636978,2.90093617 L12.1636978,7.93940426 C12.1636978,11.1457021 9.64195556,11.9091064 7.12021333,11.9091064 Z" id="path56"></path>
                    </g>
                    <path d="M77.7289956,31.9102979 C78.76736,32.2156596 79.5090489,32.3683404 79.6573867,33.7424681 L79.6573867,35.2692766 C79.6573867,35.5746383 79.6573867,36.0326809 80.2507378,36.0326809 C80.8440889,36.0326809 80.6957511,35.4219574 80.6957511,34.811234 L80.6957511,34.2005106 L81.8824533,34.2005106 L81.8824533,34.9639149 C81.8824533,36.948766 81.43744,37.5594894 79.8057244,37.5594894 C78.3223467,37.5594894 76.9873067,37.1014468 76.9873067,34.9639149 L76.9873067,33.7424681 C76.9873067,32.9790638 76.3939556,32.5210213 75.0589156,32.5210213 L71.9438222,32.5210213 L71.9438222,35.2692766 C71.9438222,35.7273191 72.09216,35.88 72.5371733,35.88 L73.7238756,35.88 L73.7238756,37.4068085 L67.3453511,37.4068085 L67.3453511,35.88 L68.5320533,35.88 C68.9770667,35.88 69.1254044,35.7273191 69.1254044,35.2692766 L69.1254044,28.3986383 C69.1254044,27.9405957 68.9770667,27.635234 68.5320533,27.635234 L67.3453511,27.635234 L67.3453511,26.2611064 L76.2456178,26.2611064 C79.3607111,26.2611064 80.3990756,27.3298723 80.3990756,29.4674043 C80.3990756,31.1468936 79.0640356,31.757617 77.7289956,31.9102979 Z M71.9438222,30.9942128 L75.3555911,30.9942128 C76.6906311,30.9942128 77.43232,30.3834894 77.43232,29.3147234 C77.43232,28.2459574 76.5422933,27.635234 75.5039289,27.635234 L71.9438222,27.635234 L71.9438222,30.9942128 Z" id="path60" fill-rule="nonzero"></path>
                    <g id="g64" transform="translate(83.069156, 25.955745)">
                        <path d="M4.74680889,9.92425532 L10.5319822,9.92425532 C11.5703467,9.77157447 11.8670222,9.31353191 11.8670222,7.176 L13.0537244,7.176 L13.0537244,11.4510638 L0.148337778,11.4510638 L0.148337778,9.92425532 L1.33504,9.92425532 C1.78005333,9.92425532 1.92839111,9.77157447 1.92839111,9.31353191 L1.92839111,2.44289362 C1.92839111,1.98485106 1.78005333,1.67948936 1.33504,1.67948936 L0.148337778,1.67948936 L0.148337778,0.152680851 L13.0537244,0.152680851 L13.0537244,4.42774468 L11.8670222,4.42774468 C11.8670222,2.29021277 11.7186844,1.67948936 10.5319822,1.52680851 L4.74680889,1.52680851 L4.74680889,4.88578723 L7.41688889,4.88578723 C7.71356444,4.88578723 8.01024,4.73310638 8.01024,4.12238298 L8.01024,2.90093617 L9.19694222,2.90093617 L9.19694222,8.09208511 L8.01024,8.09208511 L8.01024,6.8706383 C8.01024,6.25991489 7.71356444,6.10723404 7.41688889,6.10723404 L4.74680889,6.10723404 L4.74680889,9.92425532 Z" id="path62"></path>
                    </g>
                    <g id="g68" transform="translate(97.902933, 25.192340)">
                        <path d="M10.8286578,1.06876596 L12.01536,1.06876596 L12.01536,4.88578723 L10.8286578,4.88578723 C10.8286578,4.27506383 9.93863111,2.13753191 6.52686222,1.98485106 C2.96675556,1.83217021 2.52174222,3.81702128 3.85678222,4.42774468 C5.34016,5.03846809 8.30691556,4.88578723 10.2353067,5.64919149 C12.7570489,6.5652766 13.3504,9.77157447 11.2736711,11.4510638 C9.34528,12.9778723 5.93351111,12.8251915 3.56010667,11.7564255 C3.11509333,11.6037447 2.37340444,11.1457021 2.52174222,11.7564255 L2.52174222,12.0617872 L1.03836444,12.0617872 L1.03836444,7.93940426 L2.37340444,7.93940426 C2.37340444,8.24476596 2.22506667,9.16085106 3.70844444,10.0769362 C5.78517333,11.4510638 7.86190222,11.6037447 9.64195556,10.5349787 C10.3836444,10.0769362 10.8286578,8.55012766 9.19694222,8.24476596 C7.86190222,8.09208511 5.63683556,7.93940426 3.85678222,7.4813617 C2.67008,7.176 1.78005333,6.71795745 1.18670222,5.95455319 C0.741688889,5.19114894 2.10942375e-14,2.90093617 2.52174222,1.52680851 C5.48849778,8.69304628e-14 8.75192889,0.916085106 10.2353067,1.67948936 C10.68032,1.98485106 10.9769956,1.98485106 10.8286578,1.06876596 Z" id="path66"></path>
                    </g>
                </g>
            </g>
        </g>
    </g>
</svg>