<?xml version="1.0" encoding="UTF-8"?>
<svg width="227px" height="176px" viewBox="0 0 227 176" version="1.1" xmlns="http://www.w3.org/2000/svg" xmlns:xlink="http://www.w3.org/1999/xlink">
    <!-- Generator: Sketch 52.6 (67491) - http://www.bohemiancoding.com/sketch -->
    <title>The-Distance-Logo</title>
    <desc>Created with Sketch.</desc>
    <g id="Page-1" stroke="none" stroke-width="1" fill="none" fill-rule="evenodd">
        <g id="Home" transform="translate(-774.000000, -4992.000000)">
            <g id="The-Distance-Logo" transform="translate(774.000000, 4992.000000)">
                <path d="M18.848,153.752 L10.528,153.752 L10.528,175 L8.896,175 L8.896,153.752 L0.576,153.752 L0.576,152.28 L18.848,152.28 L18.848,153.752 Z M39.968,152.28 L39.968,175 L38.336,175 L38.336,164.12 L24,164.12 L24,175 L22.368,175 L22.368,152.28 L24,152.28 L24,162.648 L38.336,162.648 L38.336,152.28 L39.968,152.28 Z M61.024,173.528 L61.024,175 L45.888,175 L45.888,152.28 L60.736,152.28 L60.736,153.752 L47.52,153.752 L47.52,162.68 L59.072,162.68 L59.072,164.088 L47.52,164.088 L47.52,173.528 L61.024,173.528 Z M73.696,175 L73.696,152.28 L81.248,152.28 C83.040009,152.28 84.6133266,152.578664 85.968,153.176 C87.3226734,153.773336 88.4479955,154.583995 89.344,155.608 C90.2400045,156.632005 90.9119978,157.831993 91.36,159.208 C91.8080022,160.584007 92.032,162.050659 92.032,163.608 C92.032,165.336009 91.7813358,166.89866 91.28,168.296 C90.7786642,169.69334 90.0586714,170.887995 89.12,171.88 C88.1813286,172.872005 87.04534,173.639997 85.712,174.184 C84.37866,174.728003 82.8906749,175 81.248,175 L73.696,175 Z M90.4,163.608 C90.4,162.17866 90.1973354,160.861339 89.792,159.656 C89.3866646,158.450661 88.7946706,157.410671 88.016,156.536 C87.2373294,155.661329 86.2826723,154.978669 85.152,154.488 C84.0213277,153.997331 82.7200074,153.752 81.248,153.752 L75.328,153.752 L75.328,173.528 L81.248,173.528 C82.7413408,173.528 84.058661,173.277336 85.2,172.776 C86.341339,172.274664 87.2959962,171.576004 88.064,170.68 C88.8320038,169.783996 89.4133314,168.733339 89.808,167.528 C90.2026686,166.322661 90.4,165.016007 90.4,163.608 Z M96.512,175 L96.512,152.28 L98.144,152.28 L98.144,175 L96.512,175 Z M117.312,156.056 C115.839993,154.413325 113.760013,153.592 111.072,153.592 C108.853322,153.592 107.237338,154.013329 106.224,154.856 C105.210662,155.698671 104.704,156.83466 104.704,158.264 C104.704,158.989337 104.831999,159.591998 105.088,160.072 C105.344001,160.552002 105.743997,160.962665 106.288,161.304 C106.832003,161.645335 107.519996,161.933332 108.352,162.168 C109.184004,162.402668 110.186661,162.647999 111.36,162.904 C112.576006,163.160001 113.679995,163.442665 114.672,163.752 C115.664005,164.061335 116.506663,164.450664 117.2,164.92 C117.893337,165.389336 118.426665,165.96533 118.8,166.648 C119.173335,167.33067 119.36,168.173328 119.36,169.176 C119.36,170.178672 119.162669,171.05333 118.768,171.8 C118.373331,172.54667 117.81867,173.170664 117.104,173.672 C116.38933,174.173336 115.536005,174.551999 114.544,174.808 C113.551995,175.064001 112.448006,175.192 111.232,175.192 C107.690649,175.192 104.693346,174.061345 102.24,171.8 L103.104,170.488 C104.064005,171.490672 105.237326,172.28533 106.624,172.872 C108.010674,173.45867 109.567991,173.752 111.296,173.752 C113.28001,173.752 114.831994,173.389337 115.952,172.664 C117.072006,171.938663 117.632,170.840007 117.632,169.368 C117.632,168.62133 117.482668,167.986669 117.184,167.464 C116.885332,166.941331 116.44267,166.488002 115.856,166.104 C115.26933,165.719998 114.528004,165.389335 113.632,165.112 C112.735996,164.834665 111.690673,164.568001 110.496,164.312 C109.279994,164.055999 108.208005,163.784001 107.28,163.496 C106.351995,163.207999 105.573336,162.845336 104.944,162.408 C104.314664,161.970664 103.840002,161.44267 103.52,160.824 C103.199998,160.20533 103.04,159.426671 103.04,158.488 C103.04,157.463995 103.237331,156.557337 103.632,155.768 C104.026669,154.978663 104.575996,154.312003 105.28,153.768 C105.984004,153.223997 106.826662,152.813335 107.808,152.536 C108.789338,152.258665 109.877327,152.12 111.072,152.12 C112.544007,152.12 113.855994,152.338664 115.008,152.776 C116.160006,153.213336 117.205329,153.879996 118.144,154.776 L117.312,156.056 Z M139.328,153.752 L131.008,153.752 L131.008,175 L129.376,175 L129.376,153.752 L121.056,153.752 L121.056,152.28 L139.328,152.28 L139.328,153.752 Z M149.984,152.28 L151.392,152.28 L160.992,175 L159.264,175 L156.096,167.512 L145.248,167.512 L142.08,175 L140.32,175 L149.984,152.28 Z M155.648,166.168 L150.688,154.264 L145.632,166.168 L155.648,166.168 Z M166.08,155.352 L166.08,175 L164.448,175 L164.448,152.28 L165.696,152.28 L181.632,172.28 L181.632,152.28 L183.264,152.28 L183.264,175 L181.76,175 L166.08,155.352 Z M187.616,163.48 C187.616,162.11466 187.855998,160.754673 188.336,159.4 C188.816002,158.045327 189.514662,156.834672 190.432,155.768 C191.349338,154.701328 192.47466,153.832003 193.808,153.16 C195.14134,152.487997 196.661325,152.152 198.368,152.152 C200.394677,152.152 202.12266,152.615995 203.552,153.544 C204.98134,154.472005 206.047996,155.661326 206.752,157.112 L205.408,157.88 C205.002665,157.090663 204.528003,156.429336 203.984,155.896 C203.439997,155.362664 202.853336,154.930668 202.224,154.6 C201.594664,154.269332 200.93867,154.029334 200.256,153.88 C199.57333,153.730666 198.901337,153.656 198.24,153.656 C196.789326,153.656 195.509339,153.94933 194.4,154.536 C193.290661,155.12267 192.352004,155.885329 191.584,156.824 C190.815996,157.762671 190.234669,158.823994 189.84,160.008 C189.445331,161.192006 189.248,162.381327 189.248,163.576 C189.248,164.920007 189.482664,166.199994 189.952,167.416 C190.421336,168.632006 191.061329,169.703995 191.872,170.632 C192.682671,171.560005 193.642661,172.301331 194.752,172.856 C195.861339,173.410669 197.055994,173.688 198.336,173.688 C199.01867,173.688 199.722663,173.602668 200.448,173.432 C201.173337,173.261332 201.866663,172.994668 202.528,172.632 C203.189337,172.269332 203.807997,171.805336 204.384,171.24 C204.960003,170.674664 205.439998,170.008004 205.824,169.24 L207.232,169.912 C206.847998,170.765338 206.325337,171.522663 205.664,172.184 C205.002663,172.845337 204.266671,173.399998 203.456,173.848 C202.645329,174.296002 201.786671,174.631999 200.88,174.856 C199.973329,175.080001 199.082671,175.192 198.208,175.192 C196.650659,175.192 195.226673,174.85067 193.936,174.168 C192.645327,173.48533 191.530671,172.594672 190.592,171.496 C189.653329,170.397328 188.922669,169.14934 188.4,167.752 C187.877331,166.35466 187.616,164.930674 187.616,163.48 Z M226.4,173.528 L226.4,175 L211.264,175 L211.264,152.28 L226.112,152.28 L226.112,153.752 L212.896,153.752 L212.896,162.68 L224.448,162.68 L224.448,164.088 L212.896,164.088 L212.896,173.528 L226.4,173.528 Z" id="THE-DISTANCE" fill="#404040"></path>
                <g id="Group-4" transform="translate(54.000000, 0.000000)">
                    <polygon id="Triangle" fill="#151515" points="64.5 0 129 129 0 129"></polygon>
                    <polygon id="Triangle" fill="#535353" points="71.5 14 129 129 14 129"></polygon>
                    <polygon id="Triangle" fill="#AEAEAE" points="61 35 108 129 14 129"></polygon>
                    <polygon id="Triangle" fill="#E8E8E8" points="77.9552039 69.5182618 108 129 14.2996181 129"></polygon>
                </g>
            </g>
        </g>
    </g>
</svg>