<?xml version="1.0" encoding="UTF-8"?>
<svg width="189px" height="71px" viewBox="0 0 189 71" version="1.1" xmlns="http://www.w3.org/2000/svg" xmlns:xlink="http://www.w3.org/1999/xlink">
    <!-- Generator: Sketch 52.6 (67491) - http://www.bohemiancoding.com/sketch -->
    <title>WQA-logo</title>
    <desc>Created with Sketch.</desc>
    <g id="Page-1" stroke="none" stroke-width="1" fill="none" fill-rule="evenodd">
        <g id="Home" transform="translate(-1128.000000, -5053.000000)" fill="#404040">
            <g id="WQA-logo" transform="translate(1128.000000, 5020.000000)">
                <path d="M15.4648437,87 L0.43359375,34.390625 L10.1894531,34.390625 C10.8639357,36.9199345 12.00813,41.20163 13.6220703,47.2358398 C15.2360107,53.2700497 16.621088,58.5152772 17.7773438,62.9716797 C18.9335995,67.4280822 20.0296172,71.7519322 21.0654297,75.9433594 C22.1975968,71.6796662 23.4381443,67.3136617 24.7871094,62.8452148 C26.1360745,58.376768 27.7680568,53.1496068 29.6831055,47.1635742 C31.5981541,41.1775417 32.9410769,36.9199345 33.7119141,34.390625 L42.4560547,34.390625 L51.8505859,63.8027344 L55.4638672,76.1240234 C56.4515023,71.9085076 57.5053655,67.5485251 58.6254883,63.0439453 C59.7456111,58.5393655 61.0584235,53.3001601 62.5639648,47.3261719 C64.0695062,41.3521837 65.1595018,37.0403778 65.8339844,34.390625 L75.3007812,34.390625 L60.6308594,87 L50.1162109,87 L37.8310547,47.0732422 L25.8349609,87 L15.4648437,87 Z M105.869141,79.9902344 C111.240912,79.9902344 115.323879,78.2980312 118.118164,74.9135742 C120.912449,71.5291172 122.30957,66.705435 122.30957,60.4423828 C122.30957,54.37204 120.912449,49.6567551 118.118164,46.2963867 C115.323879,42.9360184 111.289089,41.2558594 106.013672,41.2558594 C100.690078,41.2558594 96.6010885,42.9360184 93.746582,46.2963867 C90.8920756,49.6567551 89.4648438,54.37204 89.4648438,60.4423828 C89.4648438,66.7295236 90.849921,71.5592279 93.6201172,74.9316406 C96.3903133,78.3040533 100.47328,79.9902344 105.869141,79.9902344 Z M121.297852,103.151367 L119.382812,101.091797 C118.130202,99.7187431 116.510264,97.7435025 114.522949,95.1660156 C112.535635,92.5885288 110.819343,90.0953896 109.374023,87.6865234 C108.410477,87.7828781 107.314459,87.8310547 106.085938,87.8310547 C97.8717037,87.8310547 91.3979729,85.3559818 86.6645508,80.4057617 C81.9311287,75.4555417 79.5644531,68.8011486 79.5644531,60.4423828 C79.5644531,52.300415 81.9431728,45.7604414 86.7006836,40.8222656 C91.4581944,35.8840899 97.9560135,33.4150391 106.194336,33.4150391 C114.167683,33.4150391 120.508928,35.8780678 125.218262,40.8041992 C129.927595,45.7303306 132.282227,52.2763264 132.282227,60.4423828 C132.282227,66.6572576 130.981458,71.968728 128.379883,76.3769531 C125.778307,80.7851783 122.080753,83.9407457 117.287109,85.84375 C119.575532,89.5774926 122.58657,93.5400181 126.320312,97.7314453 L121.297852,103.151367 Z M155.045898,65.609375 L169.137695,65.609375 C166.367499,57.3951412 164.042978,50.5661079 162.164062,45.1220703 C160.598299,49.6748275 158.225602,56.5038607 155.045898,65.609375 Z M136.545898,87 L157.683594,34.390625 L167.005859,34.390625 L188.324219,87 L177.954102,87 L172.859375,74.1728516 L151.613281,74.1728516 L146.626953,87 L136.545898,87 Z" id="WQA"></path>
            </g>
        </g>
    </g>
</svg>