<?xml version="1.0" encoding="UTF-8"?>
<svg width="1920px" height="1080px" viewBox="0 0 1920 1080" version="1.1" xmlns="http://www.w3.org/2000/svg" xmlns:xlink="http://www.w3.org/1999/xlink">
    <title>Extra Large@1x</title>
    <defs>
        <radialGradient cx="46.9750653%" cy="55.2188783%" fx="46.9750653%" fy="55.2188783%" r="159.495262%" gradientTransform="translate(0.469751,0.552189),scale(0.999822,1.000000),rotate(115.746755),translate(-0.469751,-0.552189)" id="radialGradient-1">
            <stop stop-color="#004468" offset="0%"></stop>
            <stop stop-color="#002132" offset="100%"></stop>
        </radialGradient>
        <radialGradient cx="46.9750653%" cy="55.2188783%" fx="46.9750653%" fy="55.2188783%" r="159.495262%" gradientTransform="translate(0.469751,0.552189),scale(0.999822,1.000000),rotate(115.746755),translate(-0.469751,-0.552189)" id="radialGradient-2">
            <stop stop-color="#F77F00" offset="0%"></stop>
            <stop stop-color="#D62828" offset="100%"></stop>
        </radialGradient>
    </defs>
    <g id="Extra-Large" stroke="none" stroke-width="1" fill="none" fill-rule="evenodd">
        <rect fill="#003049" x="0" y="0" width="1920" height="1080"></rect>
        <g id="background-top" transform="translate(142.000000, -1143.000000)">
            <g id="Group-4" opacity="0.4" transform="translate(362.269663, 1255.574045)" fill="url(#radialGradient-1)">
                <polygon id="Polygon-Copy-19" points="497.460674 210.142334 614.539524 277.725798 614.539524 412.892726 497.460674 480.47619 380.381824 412.892726 380.381824 277.725798"></polygon>
                <polygon id="Polygon-Copy-21" points="617.865169 419.228676 734.944019 486.81214 734.944019 621.979069 617.865169 689.562533 500.786318 621.979069 500.786318 486.81214"></polygon>
                <polygon id="Polygon-Copy-25" points="377.05618 0 494.13503 67.5834642 494.13503 202.750392 377.05618 270.333857 259.97733 202.750392 259.97733 67.5834642"></polygon>
                <polygon id="Polygon-Copy-20" points="255.595506 210.142334 372.674356 277.725798 372.674356 412.892726 255.595506 480.47619 138.516656 412.892726 138.516656 277.725798"></polygon>
                <polygon id="Polygon-Copy-22" points="376 418.172684 493.07885 485.756149 493.07885 620.923077 376 688.506541 258.92115 620.923077 258.92115 485.756149"></polygon>
                <polygon id="Polygon-Copy-19" points="981.191011 210.142334 1098.26986 277.725798 1098.26986 412.892726 981.191011 480.47619 864.112161 412.892726 864.112161 277.725798"></polygon>
                <polygon id="Polygon-Copy-23" points="1101.59551 420.284668 1218.67436 487.868132 1218.67436 623.03506 1101.59551 690.618524 984.516656 623.03506 984.516656 487.868132"></polygon>
                <polygon id="Polygon-Copy-27" points="860.786517 0 977.865367 67.5834642 977.865367 202.750392 860.786517 270.333857 743.707667 202.750392 743.707667 67.5834642"></polygon>
                <polygon id="Polygon-Copy-27" points="1102.65169 0 1219.73054 67.5834642 1219.73054 202.750392 1102.65169 270.333857 985.572835 202.750392 985.572835 67.5834642"></polygon>
                <polygon id="Polygon-Copy-20" points="739.325843 210.142334 856.404693 277.725798 856.404693 412.892726 739.325843 480.47619 622.246993 412.892726 622.246993 277.725798"></polygon>
                <polygon id="Polygon-Copy-26" points="135.191011 0 252.269861 67.5834642 252.269861 202.750392 135.191011 270.333857 18.1121611 202.750392 18.1121611 67.5834642"></polygon>
                <polygon id="Polygon-Copy-28" points="618.921348 0 736.000198 67.5834642 736.000198 202.750392 618.921348 270.333857 501.842498 202.750392 501.842498 67.5834642"></polygon>
            </g>
            <g id="Group-4-Copy" opacity="0.4" transform="translate(482.674157, 1882.833072)" fill="url(#radialGradient-1)">
                <polygon id="Polygon-Copy-19" points="496.404494 210.142334 613.483344 277.725798 613.483344 412.892726 496.404494 480.47619 379.325644 412.892726 379.325644 277.725798"></polygon>
                <polygon id="Polygon-Copy-25" points="376 0 493.07885 67.5834642 493.07885 202.750392 376 270.333857 258.92115 202.750392 258.92115 67.5834642"></polygon>
                <polygon id="Polygon-Copy-20" points="254.539326 210.142334 371.618176 277.725798 371.618176 412.892726 254.539326 480.47619 137.460476 412.892726 137.460476 277.725798"></polygon>
                <polygon id="Polygon-Copy-20" points="739.325843 210.142334 856.404693 277.725798 856.404693 412.892726 739.325843 480.47619 622.246993 412.892726 622.246993 277.725798"></polygon>
                <polygon id="Polygon-Copy-26" points="135.191011 0 252.269861 67.5834642 252.269861 202.750392 135.191011 270.333857 18.1121611 202.750392 18.1121611 67.5834642"></polygon>
                <polygon id="Polygon-Copy-28" points="617.865169 1.05599163 734.944019 68.6394558 734.944019 203.806384 617.865169 271.389848 500.786318 203.806384 500.786318 68.6394558"></polygon>
            </g>
            <g id="Group" transform="translate(1330.786517, 837.401361)" fill="url(#radialGradient-2)">
                <polygon id="Polygon" points="254.539326 209.086342 371.618176 276.669806 371.618176 411.836735 254.539326 479.420199 137.460476 411.836735 137.460476 276.669806"></polygon>
                <polygon id="Polygon-Copy" points="376 417.116693 493.07885 484.700157 493.07885 619.867085 376 687.450549 258.92115 619.867085 258.92115 484.700157"></polygon>
                <polygon id="Polygon-Copy-9" points="495.348315 626.203035 612.427165 693.786499 612.427165 828.953428 495.348315 896.536892 378.269465 828.953428 378.269465 693.786499"></polygon>
                <polygon id="Polygon-Copy-18" points="254.539326 626.203035 371.618176 693.786499 371.618176 828.953428 254.539326 896.536892 137.460476 828.953428 137.460476 693.786499"></polygon>
                <polygon id="Polygon-Copy-11" points="373.88764 835.289377 490.966491 902.872841 490.966491 1038.03977 373.88764 1105.62323 256.80879 1038.03977 256.80879 902.872841"></polygon>
                <polygon id="Polygon-Copy-17" points="493.235955 1044.37572 610.314805 1111.95918 610.314805 1247.12611 493.235955 1314.70958 376.157105 1247.12611 376.157105 1111.95918"></polygon>
                <polygon id="Polygon-Copy-2" points="496.404494 208.030351 613.483344 275.613815 613.483344 410.780743 496.404494 478.364207 379.325644 410.780743 379.325644 275.613815"></polygon>
            </g>
            <g id="Group-Copy" transform="translate(366.494382, 0.000000)" fill="url(#radialGradient-2)">
                <polygon id="Polygon-Copy-17" points="493.235955 1045.43171 610.314805 1113.01518 610.314805 1248.1821 493.235955 1315.76557 376.157105 1248.1821 376.157105 1113.01518"></polygon>
                <polygon id="Polygon-Copy-15" points="736.157303 1045.43171 853.236153 1113.01518 853.236153 1248.1821 736.157303 1315.76557 619.078453 1248.1821 619.078453 1113.01518"></polygon>
                <polygon id="Polygon-Copy-16" points="978.022472 1045.43171 1095.10132 1113.01518 1095.10132 1248.1821 978.022472 1315.76557 860.943622 1248.1821 860.943622 1113.01518"></polygon>
            </g>
        </g>
    </g>
</svg>