<?xml version="1.0" encoding="UTF-8"?>
<svg width="34px" height="39px" viewBox="0 0 34 39" version="1.1" xmlns="http://www.w3.org/2000/svg" xmlns:xlink="http://www.w3.org/1999/xlink">
    <title>linkedin-svgrepo-com</title>
    <g id="Landing" stroke="none" stroke-width="1" fill="none" fill-rule="evenodd">
        <g id="Extra-Large" transform="translate(-968.000000, -770.000000)" fill="#F77F00" fill-rule="nonzero">
            <g id="Group-7" transform="translate(463.000000, 261.000000)">
                <g id="Group-5" transform="translate(0.000000, 144.000000)">
                    <g id="Group-2" transform="translate(455.000000, 365.000000)">
                        <g id="linkedin-svgrepo-com" transform="translate(50.000000, 0.000000)">
                            <path d="M0,10 L0,29.5 L17.5,39 L34,29.5 L34,10 L17.5,0 L0,10 Z M12.2453125,26.1121094 L8.93164062,26.1121094 L8.93164062,15.5070313 L12.2453125,15.5070313 L12.2453125,26.1121094 Z M10.4988281,14.1789062 L10.4722656,14.1789062 C9.2703125,14.1789062 8.49335937,13.36875 8.49335937,12.3394531 C8.49335937,11.2902344 9.296875,10.5 10.51875,10.5 C11.740625,10.5 12.4910156,11.2902344 12.5175781,12.3394531 C12.5242187,13.3621094 11.7472656,14.1789062 10.4988281,14.1789062 Z M25.5,26.1121094 L21.7414063,26.1121094 L21.7414063,20.6269531 C21.7414063,19.1925781 21.1570313,18.2097656 19.8621094,18.2097656 C18.8726563,18.2097656 18.3214844,18.8738281 18.0691406,19.5113281 C17.9761719,19.7371094 17.9894531,20.0558594 17.9894531,20.38125 L17.9894531,26.1121094 L14.2640625,26.1121094 C14.2640625,26.1121094 14.3105469,16.3902344 14.2640625,15.5070313 L17.9894531,15.5070313 L17.9894531,17.1738281 C18.2085938,16.4433594 19.3972656,15.4074219 21.2964844,15.4074219 C23.6539063,15.4074219 25.5,16.9347656 25.5,20.2152344 L25.5,26.1121094 Z" id="Shape"></path>
                        </g>
                    </g>
                </g>
            </g>
        </g>
    </g>
</svg>