<?xml version="1.0" encoding="UTF-8"?>
<svg width="34px" height="39px" viewBox="0 0 34 39" version="1.1" xmlns="http://www.w3.org/2000/svg" xmlns:xlink="http://www.w3.org/1999/xlink">
    <title>twitter-svgrepo-com</title>
    <g id="Landing" stroke="none" stroke-width="1" fill="none" fill-rule="evenodd">
        <g id="Extra-Large" transform="translate(-918.000000, -770.000000)" fill="#F77F00" fill-rule="nonzero">
            <g id="Group-7" transform="translate(463.000000, 261.000000)">
                <g id="Group-5" transform="translate(0.000000, 144.000000)">
                    <g id="twitter-svgrepo-com" transform="translate(455.000000, 365.000000)">
                        <path d="M0,10 L0,29.5 L17,39 L34,29.5 L34,10 L17,0 L0,10 Z M23.7867187,16.3570313 C23.7933594,16.503125 23.7933594,16.6558594 23.7933594,16.8085938 C23.7933594,21.4238281 20.2804687,26.7496094 13.8523437,26.7496094 C11.8800781,26.7496094 10.040625,26.171875 8.5,25.1824219 C8.77226562,25.215625 9.05117187,25.2289063 9.33671875,25.2289063 C10.9703125,25.2289063 12.4777344,24.6710938 13.6730469,23.7347656 C12.1457031,23.7082031 10.8507812,22.6988281 10.4125,21.3109375 C10.625,21.3507813 10.8441406,21.3707031 11.0699219,21.3707031 C11.3886719,21.3707031 11.7007812,21.3308594 11.9929687,21.2445313 C10.3925781,20.9257813 9.190625,19.5113281 9.190625,17.8179688 L9.190625,17.778125 C9.66210937,18.0371094 10.2,18.1964844 10.7710937,18.2164063 C9.83476562,17.5921875 9.2171875,16.5164063 9.2171875,15.3078125 C9.2171875,14.6703125 9.38984375,14.0660156 9.68867187,13.5480469 C11.4152344,15.6664063 13.9851562,17.0542969 16.8871094,17.2003906 C16.8273438,16.9480469 16.7941406,16.6824219 16.7941406,16.4035156 C16.7941406,14.4777344 18.3613281,12.9105469 20.2871094,12.9105469 C21.2898438,12.9105469 22.1996094,13.3355469 22.8371094,14.0128906 C23.6339844,13.8535156 24.3777344,13.5679688 25.0550781,13.1628906 C24.7960937,13.9796875 24.2382812,14.6636719 23.5210938,15.0953125 C24.225,15.0089844 24.9023438,14.8230469 25.5265625,14.5441406 C25.0617187,15.2480469 24.4707031,15.8589844 23.7867187,16.3570313 Z" id="Shape"></path>
                    </g>
                </g>
            </g>
        </g>
    </g>
</svg>